<svg xmlns="http://www.w3.org/2000/svg" xmlns:rdkit="http://www.rdkit.org/xml" xmlns:xlink="http://www.w3.org/1999/xlink" version="1.1" baseProfile="full" xml:space="preserve" width="750px" height="750px" viewBox="0 0 750 750">
<!-- END OF HEADER -->
<rect style="opacity:1.0;fill:#FFFFFF;stroke:none" width="750.0" height="750.0" x="0.0" y="0.0"> </rect>
<rect style="opacity:1.0;fill:#FFFFFF;stroke:none" width="750.0" height="750.0" x="0.0" y="0.0"> </rect>
<rect style="opacity:1.0;fill:#FFFFFF;stroke:none" width="750.0" height="750.0" x="0.0" y="0.0"> </rect>
<rect style="opacity:1.0;fill:#FFFFFF;stroke:none" width="750.0" height="750.0" x="0.0" y="0.0"> </rect>
<rect style="opacity:1.0;fill:#FFFFFF;stroke:none" width="750.0" height="750.0" x="0.0" y="0.0"> </rect>
<rect style="opacity:1.0;fill:#FFFFFF;stroke:none" width="750.0" height="750.0" x="0.0" y="0.0"> </rect>
<rect style="opacity:1.0;fill:#FFFFFF;stroke:none" width="750.0" height="750.0" x="0.0" y="0.0"> </rect>
<rect style="opacity:1.0;fill:#FFFFFF;stroke:none" width="750.0" height="750.0" x="0.0" y="0.0"> </rect>
<rect style="opacity:1.0;fill:#FFFFFF;stroke:none" width="750.0" height="750.0" x="0.0" y="0.0"> </rect>
<rect style="opacity:1.0;fill:#FFFFFF;stroke:none" width="750.0" height="750.0" x="0.0" y="0.0"> </rect>
<path class="bond-0 atom-0 atom-1" d="M 115.1,134.2 L 121.8,134.2" style="fill:none;fill-rule:evenodd;stroke:#0000FF;stroke-width:2.0px;stroke-linecap:butt;stroke-linejoin:miter;stroke-opacity:1"/>
<path class="bond-0 atom-0 atom-1" d="M 121.8,134.2 L 128.5,134.2" style="fill:none;fill-rule:evenodd;stroke:#00CC00;stroke-width:2.0px;stroke-linecap:butt;stroke-linejoin:miter;stroke-opacity:1"/>
<path class="atom-0" d="M 100.7 131.1 L 101.6 131.1 L 101.6 133.8 L 104.8 133.8 L 104.8 131.1 L 105.7 131.1 L 105.7 137.4 L 104.8 137.4 L 104.8 134.5 L 101.6 134.5 L 101.6 137.4 L 100.7 137.4 L 100.7 131.1 " fill="#0000FF"/>
<path class="atom-0" d="M 107.5 131.1 L 109.5 134.4 Q 109.8 134.8, 110.1 135.4 Q 110.4 136.0, 110.4 136.0 L 110.4 131.1 L 111.3 131.1 L 111.3 137.4 L 110.4 137.4 L 108.2 133.7 Q 107.9 133.3, 107.6 132.8 Q 107.4 132.3, 107.3 132.2 L 107.3 137.4 L 106.5 137.4 L 106.5 131.1 L 107.5 131.1 " fill="#0000FF"/>
<path class="atom-0" d="M 111.8 132.2 L 112.9 132.2 L 112.9 131.0 L 113.4 131.0 L 113.4 132.2 L 114.6 132.2 L 114.6 132.6 L 113.4 132.6 L 113.4 133.8 L 112.9 133.8 L 112.9 132.6 L 111.8 132.6 L 111.8 132.2 " fill="#0000FF"/>
<path class="atom-1" d="M 128.9 134.5 Q 128.9 132.9, 129.6 132.1 Q 130.4 131.2, 131.8 131.2 Q 133.1 131.2, 133.8 132.1 L 133.2 132.6 Q 132.7 132.0, 131.8 132.0 Q 130.8 132.0, 130.3 132.6 Q 129.8 133.2, 129.8 134.5 Q 129.8 135.7, 130.3 136.4 Q 130.8 137.0, 131.9 137.0 Q 132.6 137.0, 133.4 136.6 L 133.6 137.3 Q 133.3 137.5, 132.8 137.6 Q 132.3 137.7, 131.7 137.7 Q 130.4 137.7, 129.6 136.9 Q 128.9 136.0, 128.9 134.5 " fill="#00CC00"/>
<path class="atom-1" d="M 134.6 130.8 L 135.4 130.8 L 135.4 137.6 L 134.6 137.6 L 134.6 130.8 " fill="#00CC00"/>
<path d="M 99.8,133.3 L 99.8,133.3 L 99.8,133.3 L 99.8,133.2 L 99.8,133.2 L 99.8,133.2 L 99.8,133.1 L 99.8,133.1 L 99.7,133.1 L 99.7,133.0 L 99.7,133.0 L 99.6,133.0 L 99.6,133.0 L 99.6,132.9 L 99.5,132.9 L 99.5,132.9 L 99.5,132.9 L 99.4,132.9 L 99.4,132.9 L 99.4,132.9 L 99.3,132.9 L 99.3,132.9 L 99.2,132.9 L 99.2,132.9 L 99.2,132.9 L 99.1,133.0 L 99.1,133.0 L 99.1,133.0 L 99.1,133.0 L 99.0,133.1 L 99.0,133.1 L 99.0,133.1 L 99.0,133.2 L 99.0,133.2 L 98.9,133.2 L 98.9,133.3 L 98.9,133.3 L 98.9,133.4 L 98.9,133.4 L 98.9,133.4 L 99.0,133.5 L 99.0,133.5 L 99.0,133.5 L 99.0,133.6 L 99.0,133.6 L 99.1,133.6 L 99.1,133.7 L 99.1,133.7 L 99.1,133.7 L 99.2,133.7 L 99.2,133.8 L 99.2,133.8 L 99.3,133.8 L 99.3,133.8 L 99.4,133.8 L 99.4,133.8 L 99.4,133.8 L 99.5,133.8 L 99.5,133.8 L 99.5,133.8 L 99.6,133.7 L 99.6,133.7 L 99.6,133.7 L 99.7,133.7 L 99.7,133.7 L 99.7,133.6 L 99.8,133.6 L 99.8,133.6 L 99.8,133.5 L 99.8,133.5 L 99.8,133.5 L 99.8,133.4 L 99.8,133.4 L 99.8,133.3 L 99.4,133.3 Z" style="fill:#000000;fill-rule:evenodd;fill-opacity:1;stroke:#000000;stroke-width:0.0px;stroke-linecap:butt;stroke-linejoin:miter;stroke-opacity:1;"/>
<path d="M 99.8,135.1 L 99.8,135.1 L 99.8,135.1 L 99.8,135.0 L 99.8,135.0 L 99.8,134.9 L 99.8,134.9 L 99.8,134.9 L 99.7,134.9 L 99.7,134.8 L 99.7,134.8 L 99.6,134.8 L 99.6,134.8 L 99.6,134.7 L 99.5,134.7 L 99.5,134.7 L 99.5,134.7 L 99.4,134.7 L 99.4,134.7 L 99.4,134.7 L 99.3,134.7 L 99.3,134.7 L 99.2,134.7 L 99.2,134.7 L 99.2,134.7 L 99.1,134.8 L 99.1,134.8 L 99.1,134.8 L 99.1,134.8 L 99.0,134.9 L 99.0,134.9 L 99.0,134.9 L 99.0,135.0 L 99.0,135.0 L 98.9,135.0 L 98.9,135.1 L 98.9,135.1 L 98.9,135.2 L 98.9,135.2 L 98.9,135.2 L 99.0,135.3 L 99.0,135.3 L 99.0,135.3 L 99.0,135.4 L 99.0,135.4 L 99.1,135.4 L 99.1,135.5 L 99.1,135.5 L 99.1,135.5 L 99.2,135.5 L 99.2,135.5 L 99.2,135.6 L 99.3,135.6 L 99.3,135.6 L 99.4,135.6 L 99.4,135.6 L 99.4,135.6 L 99.5,135.6 L 99.5,135.6 L 99.5,135.6 L 99.6,135.5 L 99.6,135.5 L 99.6,135.5 L 99.7,135.5 L 99.7,135.5 L 99.7,135.4 L 99.8,135.4 L 99.8,135.4 L 99.8,135.3 L 99.8,135.3 L 99.8,135.3 L 99.8,135.2 L 99.8,135.2 L 99.8,135.1 L 99.4,135.1 Z" style="fill:#000000;fill-rule:evenodd;fill-opacity:1;stroke:#000000;stroke-width:0.0px;stroke-linecap:butt;stroke-linejoin:miter;stroke-opacity:1;"/>
<path class="bond-0 atom-0 atom-1" d="M 260.7,139.1 L 269.1,134.6" style="fill:none;fill-rule:evenodd;stroke:#000000;stroke-width:2.0px;stroke-linecap:butt;stroke-linejoin:miter;stroke-opacity:1"/>
<path class="bond-0 atom-0 atom-1" d="M 269.1,134.6 L 277.5,130.0" style="fill:none;fill-rule:evenodd;stroke:#0000FF;stroke-width:2.0px;stroke-linecap:butt;stroke-linejoin:miter;stroke-opacity:1"/>
<path class="bond-1 atom-1 atom-2" d="M 283.4,130.3 L 291.5,135.2" style="fill:none;fill-rule:evenodd;stroke:#0000FF;stroke-width:2.0px;stroke-linecap:butt;stroke-linejoin:miter;stroke-opacity:1"/>
<path class="bond-1 atom-1 atom-2" d="M 291.5,135.2 L 299.6,140.2" style="fill:none;fill-rule:evenodd;stroke:#000000;stroke-width:2.0px;stroke-linecap:butt;stroke-linejoin:miter;stroke-opacity:1"/>
<path class="bond-2 atom-2 atom-3" d="M 299.6,140.2 L 319.3,129.5" style="fill:none;fill-rule:evenodd;stroke:#000000;stroke-width:2.0px;stroke-linecap:butt;stroke-linejoin:miter;stroke-opacity:1"/>
<path class="bond-2 atom-2 atom-3" d="M 300.4,134.6 L 314.2,127.1" style="fill:none;fill-rule:evenodd;stroke:#000000;stroke-width:2.0px;stroke-linecap:butt;stroke-linejoin:miter;stroke-opacity:1"/>
<path class="bond-3 atom-3 atom-4" d="M 319.3,129.5 L 338.5,141.2" style="fill:none;fill-rule:evenodd;stroke:#000000;stroke-width:2.0px;stroke-linecap:butt;stroke-linejoin:miter;stroke-opacity:1"/>
<path class="bond-4 atom-4 atom-5" d="M 338.5,141.2 L 358.2,130.5" style="fill:none;fill-rule:evenodd;stroke:#000000;stroke-width:2.0px;stroke-linecap:butt;stroke-linejoin:miter;stroke-opacity:1"/>
<path class="bond-4 atom-4 atom-5" d="M 339.3,135.6 L 353.1,128.1" style="fill:none;fill-rule:evenodd;stroke:#000000;stroke-width:2.0px;stroke-linecap:butt;stroke-linejoin:miter;stroke-opacity:1"/>
<path class="bond-5 atom-5 atom-6" d="M 358.2,130.5 L 377.4,142.2" style="fill:none;fill-rule:evenodd;stroke:#000000;stroke-width:2.0px;stroke-linecap:butt;stroke-linejoin:miter;stroke-opacity:1"/>
<path class="bond-6 atom-6 atom-7" d="M 377.4,142.2 L 397.1,131.5" style="fill:none;fill-rule:evenodd;stroke:#000000;stroke-width:2.0px;stroke-linecap:butt;stroke-linejoin:miter;stroke-opacity:1"/>
<path class="bond-6 atom-6 atom-7" d="M 378.2,136.7 L 392.0,129.1" style="fill:none;fill-rule:evenodd;stroke:#000000;stroke-width:2.0px;stroke-linecap:butt;stroke-linejoin:miter;stroke-opacity:1"/>
<path class="bond-7 atom-7 atom-8" d="M 397.1,131.5 L 397.4,122.2" style="fill:none;fill-rule:evenodd;stroke:#000000;stroke-width:2.0px;stroke-linecap:butt;stroke-linejoin:miter;stroke-opacity:1"/>
<path class="bond-7 atom-7 atom-8" d="M 397.4,122.2 L 397.6,112.9" style="fill:none;fill-rule:evenodd;stroke:#FF0000;stroke-width:2.0px;stroke-linecap:butt;stroke-linejoin:miter;stroke-opacity:1"/>
<path class="bond-8 atom-7 atom-9" d="M 397.1,131.5 L 405.2,136.4" style="fill:none;fill-rule:evenodd;stroke:#000000;stroke-width:2.0px;stroke-linecap:butt;stroke-linejoin:miter;stroke-opacity:1"/>
<path class="bond-8 atom-7 atom-9" d="M 405.2,136.4 L 413.3,141.4" style="fill:none;fill-rule:evenodd;stroke:#0000FF;stroke-width:2.0px;stroke-linecap:butt;stroke-linejoin:miter;stroke-opacity:1"/>
<path class="bond-9 atom-9 atom-10" d="M 419.2,141.6 L 427.6,137.1" style="fill:none;fill-rule:evenodd;stroke:#0000FF;stroke-width:2.0px;stroke-linecap:butt;stroke-linejoin:miter;stroke-opacity:1"/>
<path class="bond-9 atom-9 atom-10" d="M 427.6,137.1 L 436.0,132.5" style="fill:none;fill-rule:evenodd;stroke:#000000;stroke-width:2.0px;stroke-linecap:butt;stroke-linejoin:miter;stroke-opacity:1"/>
<path class="bond-10 atom-10 atom-11" d="M 436.0,132.5 L 455.2,144.2" style="fill:none;fill-rule:evenodd;stroke:#000000;stroke-width:2.0px;stroke-linecap:butt;stroke-linejoin:miter;stroke-opacity:1"/>
<path class="bond-10 atom-10 atom-11" d="M 436.5,138.1 L 449.9,146.3" style="fill:none;fill-rule:evenodd;stroke:#000000;stroke-width:2.0px;stroke-linecap:butt;stroke-linejoin:miter;stroke-opacity:1"/>
<path class="bond-11 atom-11 atom-12" d="M 455.2,144.2 L 474.9,133.5" style="fill:none;fill-rule:evenodd;stroke:#000000;stroke-width:2.0px;stroke-linecap:butt;stroke-linejoin:miter;stroke-opacity:1"/>
<path class="atom-1" d="M 279.0 125.3 L 281.1 128.6 Q 281.3 129.0, 281.7 129.6 Q 282.0 130.2, 282.0 130.2 L 282.0 125.3 L 282.9 125.3 L 282.9 131.6 L 282.0 131.6 L 279.8 127.9 Q 279.5 127.5, 279.2 127.0 Q 278.9 126.5, 278.9 126.4 L 278.9 131.6 L 278.0 131.6 L 278.0 125.3 L 279.0 125.3 " fill="#0000FF"/>
<path class="atom-1" d="M 278.0 118.3 L 278.8 118.3 L 278.8 121.0 L 282.1 121.0 L 282.1 118.3 L 282.9 118.3 L 282.9 124.6 L 282.1 124.6 L 282.1 121.7 L 278.8 121.7 L 278.8 124.6 L 278.0 124.6 L 278.0 118.3 " fill="#0000FF"/>
<path class="atom-8" d="M 394.8 109.1 Q 394.8 107.5, 395.5 106.7 Q 396.3 105.8, 397.7 105.8 Q 399.1 105.8, 399.9 106.7 Q 400.6 107.5, 400.6 109.1 Q 400.6 110.6, 399.9 111.5 Q 399.1 112.4, 397.7 112.4 Q 396.3 112.4, 395.5 111.5 Q 394.8 110.6, 394.8 109.1 M 397.7 111.6 Q 398.7 111.6, 399.2 111.0 Q 399.7 110.3, 399.7 109.1 Q 399.7 107.8, 399.2 107.2 Q 398.7 106.5, 397.7 106.5 Q 396.7 106.5, 396.2 107.2 Q 395.7 107.8, 395.7 109.1 Q 395.7 110.3, 396.2 111.0 Q 396.7 111.6, 397.7 111.6 " fill="#FF0000"/>
<path class="atom-8" d="M 401.4 105.9 L 402.2 105.9 L 402.2 108.6 L 405.5 108.6 L 405.5 105.9 L 406.4 105.9 L 406.4 112.3 L 405.5 112.3 L 405.5 109.3 L 402.2 109.3 L 402.2 112.3 L 401.4 112.3 L 401.4 105.9 " fill="#FF0000"/>
<path class="atom-9" d="M 414.9 140.0 L 416.9 143.4 Q 417.1 143.7, 417.5 144.3 Q 417.8 145.0, 417.8 145.0 L 417.8 140.0 L 418.7 140.0 L 418.7 146.4 L 417.8 146.4 L 415.6 142.7 Q 415.3 142.3, 415.0 141.8 Q 414.8 141.3, 414.7 141.2 L 414.7 146.4 L 413.9 146.4 L 413.9 140.0 L 414.9 140.0 " fill="#0000FF"/>
<path class="atom-9" d="M 413.8 147.0 L 414.6 147.0 L 414.6 149.7 L 417.9 149.7 L 417.9 147.0 L 418.8 147.0 L 418.8 153.4 L 417.9 153.4 L 417.9 150.5 L 414.6 150.5 L 414.6 153.4 L 413.8 153.4 L 413.8 147.0 " fill="#0000FF"/>
<path class="bond-0 atom-0 atom-1" d="M 571.5,158.8 L 563.8,153.4" style="fill:none;fill-rule:evenodd;stroke:#00CC00;stroke-width:2.0px;stroke-linecap:butt;stroke-linejoin:miter;stroke-opacity:1"/>
<path class="bond-0 atom-0 atom-1" d="M 563.8,153.4 L 556.1,148.0" style="fill:none;fill-rule:evenodd;stroke:#000000;stroke-width:2.0px;stroke-linecap:butt;stroke-linejoin:miter;stroke-opacity:1"/>
<path class="bond-1 atom-1 atom-2" d="M 556.1,148.0 L 535.8,157.4" style="fill:none;fill-rule:evenodd;stroke:#000000;stroke-width:2.0px;stroke-linecap:butt;stroke-linejoin:miter;stroke-opacity:1"/>
<path class="bond-1 atom-1 atom-2" d="M 551.2,145.3 L 536.9,151.9" style="fill:none;fill-rule:evenodd;stroke:#000000;stroke-width:2.0px;stroke-linecap:butt;stroke-linejoin:miter;stroke-opacity:1"/>
<path class="bond-18 atom-6 atom-1" d="M 558.2,125.6 L 556.1,148.0" style="fill:none;fill-rule:evenodd;stroke:#000000;stroke-width:2.0px;stroke-linecap:butt;stroke-linejoin:miter;stroke-opacity:1"/>
<path class="bond-2 atom-2 atom-3" d="M 535.8,157.4 L 517.4,144.5" style="fill:none;fill-rule:evenodd;stroke:#000000;stroke-width:2.0px;stroke-linecap:butt;stroke-linejoin:miter;stroke-opacity:1"/>
<path class="bond-3 atom-3 atom-4" d="M 517.4,144.5 L 519.4,122.1" style="fill:none;fill-rule:evenodd;stroke:#000000;stroke-width:2.0px;stroke-linecap:butt;stroke-linejoin:miter;stroke-opacity:1"/>
<path class="bond-3 atom-3 atom-4" d="M 522.2,141.5 L 523.6,125.9" style="fill:none;fill-rule:evenodd;stroke:#000000;stroke-width:2.0px;stroke-linecap:butt;stroke-linejoin:miter;stroke-opacity:1"/>
<path class="bond-4 atom-4 atom-5" d="M 519.4,122.1 L 539.8,112.7" style="fill:none;fill-rule:evenodd;stroke:#000000;stroke-width:2.0px;stroke-linecap:butt;stroke-linejoin:miter;stroke-opacity:1"/>
<path class="bond-5 atom-5 atom-6" d="M 539.8,112.7 L 558.2,125.6" style="fill:none;fill-rule:evenodd;stroke:#000000;stroke-width:2.0px;stroke-linecap:butt;stroke-linejoin:miter;stroke-opacity:1"/>
<path class="bond-5 atom-5 atom-6" d="M 540.0,118.3 L 552.8,127.4" style="fill:none;fill-rule:evenodd;stroke:#000000;stroke-width:2.0px;stroke-linecap:butt;stroke-linejoin:miter;stroke-opacity:1"/>
<path class="bond-6 atom-6 atom-7" d="M 558.2,125.6 L 566.9,121.6" style="fill:none;fill-rule:evenodd;stroke:#000000;stroke-width:2.0px;stroke-linecap:butt;stroke-linejoin:miter;stroke-opacity:1"/>
<path class="bond-6 atom-6 atom-7" d="M 566.9,121.6 L 575.6,117.6" style="fill:none;fill-rule:evenodd;stroke:#0000FF;stroke-width:2.0px;stroke-linecap:butt;stroke-linejoin:miter;stroke-opacity:1"/>
<path class="bond-7 atom-7 atom-8" d="M 581.5,118.3 L 589.2,123.7" style="fill:none;fill-rule:evenodd;stroke:#0000FF;stroke-width:2.0px;stroke-linecap:butt;stroke-linejoin:miter;stroke-opacity:1"/>
<path class="bond-7 atom-7 atom-8" d="M 589.2,123.7 L 596.9,129.2" style="fill:none;fill-rule:evenodd;stroke:#000000;stroke-width:2.0px;stroke-linecap:butt;stroke-linejoin:miter;stroke-opacity:1"/>
<path class="bond-8 atom-8 atom-9" d="M 596.9,129.2 L 617.3,119.7" style="fill:none;fill-rule:evenodd;stroke:#000000;stroke-width:2.0px;stroke-linecap:butt;stroke-linejoin:miter;stroke-opacity:1"/>
<path class="bond-9 atom-9 atom-10" d="M 617.3,119.7 L 635.7,132.7" style="fill:none;fill-rule:evenodd;stroke:#000000;stroke-width:2.0px;stroke-linecap:butt;stroke-linejoin:miter;stroke-opacity:1"/>
<path class="bond-9 atom-9 atom-10" d="M 617.5,125.4 L 630.3,134.4" style="fill:none;fill-rule:evenodd;stroke:#000000;stroke-width:2.0px;stroke-linecap:butt;stroke-linejoin:miter;stroke-opacity:1"/>
<path class="bond-10 atom-10 atom-11" d="M 635.7,132.7 L 656.0,123.3" style="fill:none;fill-rule:evenodd;stroke:#000000;stroke-width:2.0px;stroke-linecap:butt;stroke-linejoin:miter;stroke-opacity:1"/>
<path class="bond-11 atom-11 atom-12" d="M 656.0,123.3 L 674.4,136.2" style="fill:none;fill-rule:evenodd;stroke:#000000;stroke-width:2.0px;stroke-linecap:butt;stroke-linejoin:miter;stroke-opacity:1"/>
<path class="bond-11 atom-11 atom-12" d="M 656.2,128.9 L 669.1,137.9" style="fill:none;fill-rule:evenodd;stroke:#000000;stroke-width:2.0px;stroke-linecap:butt;stroke-linejoin:miter;stroke-opacity:1"/>
<path class="bond-12 atom-12 atom-13" d="M 674.4,136.2 L 673.6,145.5" style="fill:none;fill-rule:evenodd;stroke:#000000;stroke-width:2.0px;stroke-linecap:butt;stroke-linejoin:miter;stroke-opacity:1"/>
<path class="bond-12 atom-12 atom-13" d="M 673.6,145.5 L 672.7,154.8" style="fill:none;fill-rule:evenodd;stroke:#33CCCC;stroke-width:2.0px;stroke-linecap:butt;stroke-linejoin:miter;stroke-opacity:1"/>
<path class="bond-13 atom-12 atom-14" d="M 674.4,136.2 L 694.8,126.8" style="fill:none;fill-rule:evenodd;stroke:#000000;stroke-width:2.0px;stroke-linecap:butt;stroke-linejoin:miter;stroke-opacity:1"/>
<path class="bond-14 atom-14 atom-15" d="M 694.8,126.8 L 695.6,117.5" style="fill:none;fill-rule:evenodd;stroke:#000000;stroke-width:2.0px;stroke-linecap:butt;stroke-linejoin:miter;stroke-opacity:1"/>
<path class="bond-14 atom-14 atom-15" d="M 695.6,117.5 L 696.5,108.2" style="fill:none;fill-rule:evenodd;stroke:#33CCCC;stroke-width:2.0px;stroke-linecap:butt;stroke-linejoin:miter;stroke-opacity:1"/>
<path class="bond-15 atom-14 atom-16" d="M 694.8,126.8 L 713.1,139.7" style="fill:none;fill-rule:evenodd;stroke:#000000;stroke-width:2.0px;stroke-linecap:butt;stroke-linejoin:miter;stroke-opacity:1"/>
<path class="bond-15 atom-14 atom-16" d="M 695.0,132.4 L 707.8,141.5" style="fill:none;fill-rule:evenodd;stroke:#000000;stroke-width:2.0px;stroke-linecap:butt;stroke-linejoin:miter;stroke-opacity:1"/>
<path class="bond-16 atom-16 atom-17" d="M 713.1,139.7 L 712.3,149.0" style="fill:none;fill-rule:evenodd;stroke:#000000;stroke-width:2.0px;stroke-linecap:butt;stroke-linejoin:miter;stroke-opacity:1"/>
<path class="bond-16 atom-16 atom-17" d="M 712.3,149.0 L 711.5,158.3" style="fill:none;fill-rule:evenodd;stroke:#FF0000;stroke-width:2.0px;stroke-linecap:butt;stroke-linejoin:miter;stroke-opacity:1"/>
<path class="bond-17 atom-16 atom-18" d="M 713.1,139.7 L 721.6,135.8" style="fill:none;fill-rule:evenodd;stroke:#000000;stroke-width:2.0px;stroke-linecap:butt;stroke-linejoin:miter;stroke-opacity:1"/>
<path class="bond-17 atom-16 atom-18" d="M 721.6,135.8 L 730.1,131.9" style="fill:none;fill-rule:evenodd;stroke:#FF0000;stroke-width:2.0px;stroke-linecap:butt;stroke-linejoin:miter;stroke-opacity:1"/>
<path class="atom-0" d="M 572.0 161.2 Q 572.0 159.6, 572.8 158.8 Q 573.5 157.9, 574.9 157.9 Q 576.2 157.9, 576.9 158.9 L 576.4 159.3 Q 575.8 158.7, 574.9 158.7 Q 574.0 158.7, 573.5 159.3 Q 573.0 160.0, 573.0 161.2 Q 573.0 162.4, 573.5 163.1 Q 574.0 163.7, 575.0 163.7 Q 575.7 163.7, 576.6 163.3 L 576.8 164.0 Q 576.5 164.2, 576.0 164.3 Q 575.5 164.4, 574.9 164.4 Q 573.5 164.4, 572.8 163.6 Q 572.0 162.8, 572.0 161.2 " fill="#00CC00"/>
<path class="atom-0" d="M 577.7 157.5 L 578.5 157.5 L 578.5 164.4 L 577.7 164.4 L 577.7 157.5 " fill="#00CC00"/>
<path class="atom-7" d="M 577.2 113.0 L 579.2 116.4 Q 579.4 116.7, 579.8 117.3 Q 580.1 117.9, 580.1 118.0 L 580.1 113.0 L 581.0 113.0 L 581.0 119.4 L 580.1 119.4 L 577.9 115.7 Q 577.6 115.3, 577.3 114.8 Q 577.1 114.3, 577.0 114.1 L 577.0 119.4 L 576.2 119.4 L 576.2 113.0 L 577.2 113.0 " fill="#0000FF"/>
<path class="atom-7" d="M 576.1 106.0 L 576.9 106.0 L 576.9 108.7 L 580.2 108.7 L 580.2 106.0 L 581.1 106.0 L 581.1 112.4 L 580.2 112.4 L 580.2 109.5 L 576.9 109.5 L 576.9 112.4 L 576.1 112.4 L 576.1 106.0 " fill="#0000FF"/>
<path class="atom-13" d="M 670.5 155.4 L 674.3 155.4 L 674.3 156.1 L 671.3 156.1 L 671.3 158.1 L 673.9 158.1 L 673.9 158.8 L 671.3 158.8 L 671.3 161.8 L 670.5 161.8 L 670.5 155.4 " fill="#33CCCC"/>
<path class="atom-15" d="M 694.9 101.2 L 698.7 101.2 L 698.7 102.0 L 695.8 102.0 L 695.8 103.9 L 698.4 103.9 L 698.4 104.6 L 695.8 104.6 L 695.8 107.6 L 694.9 107.6 L 694.9 101.2 " fill="#33CCCC"/>
<path class="atom-17" d="M 708.2 162.1 Q 708.2 160.6, 708.9 159.7 Q 709.7 158.9, 711.1 158.9 Q 712.5 158.9, 713.3 159.7 Q 714.0 160.6, 714.0 162.1 Q 714.0 163.7, 713.3 164.5 Q 712.5 165.4, 711.1 165.4 Q 709.7 165.4, 708.9 164.5 Q 708.2 163.7, 708.2 162.1 M 711.1 164.7 Q 712.1 164.7, 712.6 164.1 Q 713.1 163.4, 713.1 162.1 Q 713.1 160.9, 712.6 160.2 Q 712.1 159.6, 711.1 159.6 Q 710.1 159.6, 709.6 160.2 Q 709.1 160.9, 709.1 162.1 Q 709.1 163.4, 709.6 164.1 Q 710.1 164.7, 711.1 164.7 " fill="#FF0000"/>
<path class="atom-17" d="M 714.8 159.0 L 715.7 159.0 L 715.7 161.7 L 718.9 161.7 L 718.9 159.0 L 719.8 159.0 L 719.8 165.3 L 718.9 165.3 L 718.9 162.4 L 715.7 162.4 L 715.7 165.3 L 714.8 165.3 L 714.8 159.0 " fill="#FF0000"/>
<path class="atom-18" d="M 730.6 130.3 Q 730.6 128.8, 731.4 127.9 Q 732.1 127.1, 733.5 127.1 Q 734.9 127.1, 735.7 127.9 Q 736.5 128.8, 736.5 130.3 Q 736.5 131.9, 735.7 132.8 Q 734.9 133.6, 733.5 133.6 Q 732.1 133.6, 731.4 132.8 Q 730.6 131.9, 730.6 130.3 M 733.5 132.9 Q 734.5 132.9, 735.0 132.3 Q 735.6 131.6, 735.6 130.3 Q 735.6 129.1, 735.0 128.5 Q 734.5 127.8, 733.5 127.8 Q 732.6 127.8, 732.0 128.4 Q 731.5 129.1, 731.5 130.3 Q 731.5 131.6, 732.0 132.3 Q 732.6 132.9, 733.5 132.9 " fill="#FF0000"/>
<path class="atom-18" d="M 736.7 128.1 L 738.9 128.1 L 738.9 128.6 L 736.7 128.6 L 736.7 128.1 " fill="#FF0000"/>
<path class="bond-0 atom-0 atom-1" d="M 136.0,384.2 L 120.1,400.1" style="fill:none;fill-rule:evenodd;stroke:#000000;stroke-width:2.0px;stroke-linecap:butt;stroke-linejoin:miter;stroke-opacity:1"/>
<path class="bond-3 atom-3 atom-0" d="M 120.1,368.4 L 136.0,384.2" style="fill:none;fill-rule:evenodd;stroke:#000000;stroke-width:2.0px;stroke-linecap:butt;stroke-linejoin:miter;stroke-opacity:1"/>
<path class="bond-1 atom-1 atom-2" d="M 120.1,400.1 L 104.2,384.2" style="fill:none;fill-rule:evenodd;stroke:#000000;stroke-width:2.0px;stroke-linecap:butt;stroke-linejoin:miter;stroke-opacity:1"/>
<path class="bond-2 atom-2 atom-3" d="M 104.2,384.2 L 120.1,368.4" style="fill:none;fill-rule:evenodd;stroke:#000000;stroke-width:2.0px;stroke-linecap:butt;stroke-linejoin:miter;stroke-opacity:1"/>
<path class="bond-0 atom-0 atom-1" d="M 325.2,412.5 L 318.5,404.5" style="fill:none;fill-rule:evenodd;stroke:#A01EEF;stroke-width:2.0px;stroke-linecap:butt;stroke-linejoin:miter;stroke-opacity:1"/>
<path class="bond-0 atom-0 atom-1" d="M 318.5,404.5 L 311.8,396.5" style="fill:none;fill-rule:evenodd;stroke:#000000;stroke-width:2.0px;stroke-linecap:butt;stroke-linejoin:miter;stroke-opacity:1"/>
<path class="bond-1 atom-1 atom-2" d="M 311.8,396.5 L 289.6,400.3" style="fill:none;fill-rule:evenodd;stroke:#000000;stroke-width:2.0px;stroke-linecap:butt;stroke-linejoin:miter;stroke-opacity:1"/>
<path class="bond-1 atom-1 atom-2" d="M 307.7,392.6 L 292.2,395.3" style="fill:none;fill-rule:evenodd;stroke:#000000;stroke-width:2.0px;stroke-linecap:butt;stroke-linejoin:miter;stroke-opacity:1"/>
<path class="bond-22 atom-6 atom-1" d="M 319.5,375.4 L 311.8,396.5" style="fill:none;fill-rule:evenodd;stroke:#000000;stroke-width:2.0px;stroke-linecap:butt;stroke-linejoin:miter;stroke-opacity:1"/>
<path class="bond-2 atom-2 atom-3" d="M 289.6,400.3 L 275.2,383.1" style="fill:none;fill-rule:evenodd;stroke:#000000;stroke-width:2.0px;stroke-linecap:butt;stroke-linejoin:miter;stroke-opacity:1"/>
<path class="bond-3 atom-3 atom-4" d="M 275.2,383.1 L 282.9,362.0" style="fill:none;fill-rule:evenodd;stroke:#000000;stroke-width:2.0px;stroke-linecap:butt;stroke-linejoin:miter;stroke-opacity:1"/>
<path class="bond-3 atom-3 atom-4" d="M 280.6,381.5 L 286.0,366.7" style="fill:none;fill-rule:evenodd;stroke:#000000;stroke-width:2.0px;stroke-linecap:butt;stroke-linejoin:miter;stroke-opacity:1"/>
<path class="bond-4 atom-4 atom-5" d="M 282.9,362.0 L 305.1,358.1" style="fill:none;fill-rule:evenodd;stroke:#000000;stroke-width:2.0px;stroke-linecap:butt;stroke-linejoin:miter;stroke-opacity:1"/>
<path class="bond-5 atom-5 atom-6" d="M 305.1,358.1 L 319.5,375.4" style="fill:none;fill-rule:evenodd;stroke:#000000;stroke-width:2.0px;stroke-linecap:butt;stroke-linejoin:miter;stroke-opacity:1"/>
<path class="bond-5 atom-5 atom-6" d="M 303.8,363.6 L 313.9,375.7" style="fill:none;fill-rule:evenodd;stroke:#000000;stroke-width:2.0px;stroke-linecap:butt;stroke-linejoin:miter;stroke-opacity:1"/>
<path class="bond-6 atom-6 atom-7" d="M 319.5,375.4 L 328.8,373.7" style="fill:none;fill-rule:evenodd;stroke:#000000;stroke-width:2.0px;stroke-linecap:butt;stroke-linejoin:miter;stroke-opacity:1"/>
<path class="bond-6 atom-6 atom-7" d="M 328.8,373.7 L 338.1,372.1" style="fill:none;fill-rule:evenodd;stroke:#FF0000;stroke-width:2.0px;stroke-linecap:butt;stroke-linejoin:miter;stroke-opacity:1"/>
<path class="bond-7 atom-7 atom-8" d="M 344.8,375.4 L 348.9,380.2" style="fill:none;fill-rule:evenodd;stroke:#FF0000;stroke-width:2.0px;stroke-linecap:butt;stroke-linejoin:miter;stroke-opacity:1"/>
<path class="bond-7 atom-7 atom-8" d="M 348.9,380.2 L 353.0,385.1" style="fill:none;fill-rule:evenodd;stroke:#FF7F00;stroke-width:2.0px;stroke-linecap:butt;stroke-linejoin:miter;stroke-opacity:1"/>
<path class="bond-8 atom-8 atom-9" d="M 358.6,388.3 L 368.4,386.6" style="fill:none;fill-rule:evenodd;stroke:#FF7F00;stroke-width:2.0px;stroke-linecap:butt;stroke-linejoin:miter;stroke-opacity:1"/>
<path class="bond-8 atom-8 atom-9" d="M 368.4,386.6 L 378.1,384.9" style="fill:none;fill-rule:evenodd;stroke:#000000;stroke-width:2.0px;stroke-linecap:butt;stroke-linejoin:miter;stroke-opacity:1"/>
<path class="bond-9 atom-9 atom-10" d="M 378.1,384.9 L 385.9,363.8" style="fill:none;fill-rule:evenodd;stroke:#000000;stroke-width:2.0px;stroke-linecap:butt;stroke-linejoin:miter;stroke-opacity:1"/>
<path class="bond-23 atom-14 atom-9" d="M 392.6,402.1 L 378.1,384.9" style="fill:none;fill-rule:evenodd;stroke:#000000;stroke-width:2.0px;stroke-linecap:butt;stroke-linejoin:miter;stroke-opacity:1"/>
<path class="bond-23 atom-14 atom-9" d="M 393.8,396.6 L 383.7,384.6" style="fill:none;fill-rule:evenodd;stroke:#000000;stroke-width:2.0px;stroke-linecap:butt;stroke-linejoin:miter;stroke-opacity:1"/>
<path class="bond-10 atom-10 atom-11" d="M 385.9,363.8 L 408.0,359.9" style="fill:none;fill-rule:evenodd;stroke:#000000;stroke-width:2.0px;stroke-linecap:butt;stroke-linejoin:miter;stroke-opacity:1"/>
<path class="bond-10 atom-10 atom-11" d="M 389.9,367.6 L 405.4,364.9" style="fill:none;fill-rule:evenodd;stroke:#000000;stroke-width:2.0px;stroke-linecap:butt;stroke-linejoin:miter;stroke-opacity:1"/>
<path class="bond-25 atom-19 atom-10" d="M 404.5,379.6 L 395.2,371.7" style="fill:none;fill-rule:evenodd;stroke:#CCCC00;stroke-width:2.0px;stroke-linecap:butt;stroke-linejoin:miter;stroke-opacity:1"/>
<path class="bond-25 atom-19 atom-10" d="M 395.2,371.7 L 385.9,363.8" style="fill:none;fill-rule:evenodd;stroke:#000000;stroke-width:2.0px;stroke-linecap:butt;stroke-linejoin:miter;stroke-opacity:1"/>
<path class="bond-11 atom-11 atom-12" d="M 408.0,359.9 L 422.4,377.1" style="fill:none;fill-rule:evenodd;stroke:#000000;stroke-width:2.0px;stroke-linecap:butt;stroke-linejoin:miter;stroke-opacity:1"/>
<path class="bond-12 atom-12 atom-13" d="M 422.4,377.1 L 414.7,398.2" style="fill:none;fill-rule:evenodd;stroke:#000000;stroke-width:2.0px;stroke-linecap:butt;stroke-linejoin:miter;stroke-opacity:1"/>
<path class="bond-12 atom-12 atom-13" d="M 417.0,378.7 L 411.6,393.5" style="fill:none;fill-rule:evenodd;stroke:#000000;stroke-width:2.0px;stroke-linecap:butt;stroke-linejoin:miter;stroke-opacity:1"/>
<path class="bond-13 atom-13 atom-14" d="M 414.7,398.2 L 392.6,402.1" style="fill:none;fill-rule:evenodd;stroke:#000000;stroke-width:2.0px;stroke-linecap:butt;stroke-linejoin:miter;stroke-opacity:1"/>
<path class="bond-24 atom-18 atom-13" d="M 429.1,415.4 L 414.7,398.2" style="fill:none;fill-rule:evenodd;stroke:#000000;stroke-width:2.0px;stroke-linecap:butt;stroke-linejoin:miter;stroke-opacity:1"/>
<path class="bond-14 atom-14 atom-15" d="M 392.6,402.1 L 389.4,410.8" style="fill:none;fill-rule:evenodd;stroke:#000000;stroke-width:2.0px;stroke-linecap:butt;stroke-linejoin:miter;stroke-opacity:1"/>
<path class="bond-14 atom-14 atom-15" d="M 389.4,410.8 L 386.2,419.4" style="fill:none;fill-rule:evenodd;stroke:#0000FF;stroke-width:2.0px;stroke-linecap:butt;stroke-linejoin:miter;stroke-opacity:1"/>
<path class="bond-15 atom-15 atom-16" d="M 387.8,426.7 L 393.5,433.6" style="fill:none;fill-rule:evenodd;stroke:#0000FF;stroke-width:2.0px;stroke-linecap:butt;stroke-linejoin:miter;stroke-opacity:1"/>
<path class="bond-15 atom-15 atom-16" d="M 393.5,433.6 L 399.2,440.4" style="fill:none;fill-rule:evenodd;stroke:#000000;stroke-width:2.0px;stroke-linecap:butt;stroke-linejoin:miter;stroke-opacity:1"/>
<path class="bond-15 atom-15 atom-16" d="M 393.0,425.9 L 397.0,430.7" style="fill:none;fill-rule:evenodd;stroke:#0000FF;stroke-width:2.0px;stroke-linecap:butt;stroke-linejoin:miter;stroke-opacity:1"/>
<path class="bond-15 atom-15 atom-16" d="M 397.0,430.7 L 401.0,435.5" style="fill:none;fill-rule:evenodd;stroke:#000000;stroke-width:2.0px;stroke-linecap:butt;stroke-linejoin:miter;stroke-opacity:1"/>
<path class="bond-16 atom-16 atom-17" d="M 399.2,440.4 L 409.0,438.7" style="fill:none;fill-rule:evenodd;stroke:#000000;stroke-width:2.0px;stroke-linecap:butt;stroke-linejoin:miter;stroke-opacity:1"/>
<path class="bond-16 atom-16 atom-17" d="M 409.0,438.7 L 418.8,437.0" style="fill:none;fill-rule:evenodd;stroke:#CCCC00;stroke-width:2.0px;stroke-linecap:butt;stroke-linejoin:miter;stroke-opacity:1"/>
<path class="bond-17 atom-17 atom-18" d="M 422.7,432.8 L 425.9,424.1" style="fill:none;fill-rule:evenodd;stroke:#CCCC00;stroke-width:2.0px;stroke-linecap:butt;stroke-linejoin:miter;stroke-opacity:1"/>
<path class="bond-17 atom-17 atom-18" d="M 425.9,424.1 L 429.1,415.4" style="fill:none;fill-rule:evenodd;stroke:#000000;stroke-width:2.0px;stroke-linecap:butt;stroke-linejoin:miter;stroke-opacity:1"/>
<path class="bond-18 atom-18 atom-19" d="M 429.1,415.4 L 419.6,400.9" style="fill:none;fill-rule:evenodd;stroke:#000000;stroke-width:2.0px;stroke-linecap:butt;stroke-linejoin:miter;stroke-opacity:1"/>
<path class="bond-18 atom-18 atom-19" d="M 419.6,400.9 L 410.1,386.3" style="fill:none;fill-rule:evenodd;stroke:#CCCC00;stroke-width:2.0px;stroke-linecap:butt;stroke-linejoin:miter;stroke-opacity:1"/>
<path class="bond-19 atom-19 atom-20" d="M 410.0,377.9 L 415.8,369.5" style="fill:none;fill-rule:evenodd;stroke:#CCCC00;stroke-width:2.0px;stroke-linecap:butt;stroke-linejoin:miter;stroke-opacity:1"/>
<path class="bond-19 atom-19 atom-20" d="M 415.8,369.5 L 421.5,361.0" style="fill:none;fill-rule:evenodd;stroke:#FF0000;stroke-width:2.0px;stroke-linecap:butt;stroke-linejoin:miter;stroke-opacity:1"/>
<path class="bond-20 atom-20 atom-21" d="M 425.7,352.9 L 424.5,345.6" style="fill:none;fill-rule:evenodd;stroke:#FF0000;stroke-width:2.0px;stroke-linecap:butt;stroke-linejoin:miter;stroke-opacity:1"/>
<path class="bond-20 atom-20 atom-21" d="M 424.5,345.6 L 423.2,338.3" style="fill:none;fill-rule:evenodd;stroke:#000000;stroke-width:2.0px;stroke-linecap:butt;stroke-linejoin:miter;stroke-opacity:1"/>
<path class="bond-20 atom-20 atom-21" d="M 421.3,353.7 L 420.0,346.4" style="fill:none;fill-rule:evenodd;stroke:#FF0000;stroke-width:2.0px;stroke-linecap:butt;stroke-linejoin:miter;stroke-opacity:1"/>
<path class="bond-20 atom-20 atom-21" d="M 420.0,346.4 L 418.8,339.1" style="fill:none;fill-rule:evenodd;stroke:#000000;stroke-width:2.0px;stroke-linecap:butt;stroke-linejoin:miter;stroke-opacity:1"/>
<path class="bond-21 atom-21 atom-22" d="M 421.9,330.8 L 420.6,323.5" style="fill:none;fill-rule:evenodd;stroke:#000000;stroke-width:2.0px;stroke-linecap:butt;stroke-linejoin:miter;stroke-opacity:1"/>
<path class="bond-21 atom-21 atom-22" d="M 420.6,323.5 L 419.3,316.2" style="fill:none;fill-rule:evenodd;stroke:#FF0000;stroke-width:2.0px;stroke-linecap:butt;stroke-linejoin:miter;stroke-opacity:1"/>
<path class="bond-21 atom-21 atom-22" d="M 417.4,331.5 L 416.2,324.3" style="fill:none;fill-rule:evenodd;stroke:#000000;stroke-width:2.0px;stroke-linecap:butt;stroke-linejoin:miter;stroke-opacity:1"/>
<path class="bond-21 atom-21 atom-22" d="M 416.2,324.3 L 414.9,317.0" style="fill:none;fill-rule:evenodd;stroke:#FF0000;stroke-width:2.0px;stroke-linecap:butt;stroke-linejoin:miter;stroke-opacity:1"/>
<path class="atom-0" d="M 325.8 410.5 L 326.6 410.5 L 326.6 416.9 L 325.8 416.9 L 325.8 410.5 " fill="#A01EEF"/>
<path class="atom-7" d="M 338.7 371.5 Q 338.7 370.0, 339.4 369.1 Q 340.2 368.3, 341.6 368.3 Q 343.0 368.3, 343.8 369.1 Q 344.5 370.0, 344.5 371.5 Q 344.5 373.1, 343.8 373.9 Q 343.0 374.8, 341.6 374.8 Q 340.2 374.8, 339.4 373.9 Q 338.7 373.1, 338.7 371.5 M 341.6 374.1 Q 342.6 374.1, 343.1 373.4 Q 343.6 372.8, 343.6 371.5 Q 343.6 370.3, 343.1 369.6 Q 342.6 369.0, 341.6 369.0 Q 340.6 369.0, 340.1 369.6 Q 339.6 370.3, 339.6 371.5 Q 339.6 372.8, 340.1 373.4 Q 340.6 374.1, 341.6 374.1 " fill="#FF0000"/>
<path class="atom-8" d="M 348.2 385.5 L 349.1 385.5 L 349.1 388.2 L 352.4 388.2 L 352.4 385.5 L 353.2 385.5 L 353.2 391.9 L 352.4 391.9 L 352.4 389.0 L 349.1 389.0 L 349.1 391.9 L 348.2 391.9 L 348.2 385.5 " fill="#FF7F00"/>
<path class="atom-8" d="M 355.9 385.5 Q 357.0 385.5, 357.5 386.0 Q 358.0 386.5, 358.0 387.4 Q 358.0 388.3, 357.5 388.8 Q 356.9 389.3, 355.9 389.3 L 354.8 389.3 L 354.8 391.9 L 354.0 391.9 L 354.0 385.5 L 355.9 385.5 M 355.9 388.6 Q 356.5 388.6, 356.8 388.3 Q 357.1 388.0, 357.1 387.4 Q 357.1 386.8, 356.8 386.6 Q 356.5 386.3, 355.9 386.3 L 354.8 386.3 L 354.8 388.6 L 355.9 388.6 " fill="#FF7F00"/>
<path class="atom-15" d="M 376.7 420.0 L 377.6 420.0 L 377.6 422.7 L 380.8 422.7 L 380.8 420.0 L 381.7 420.0 L 381.7 426.4 L 380.8 426.4 L 380.8 423.4 L 377.6 423.4 L 377.6 426.4 L 376.7 426.4 L 376.7 420.0 " fill="#0000FF"/>
<path class="atom-15" d="M 383.4 420.0 L 385.5 423.4 Q 385.7 423.7, 386.1 424.3 Q 386.4 424.9, 386.4 424.9 L 386.4 420.0 L 387.3 420.0 L 387.3 426.4 L 386.4 426.4 L 384.1 422.7 Q 383.9 422.2, 383.6 421.7 Q 383.3 421.3, 383.3 421.1 L 383.3 426.4 L 382.4 426.4 L 382.4 420.0 L 383.4 420.0 " fill="#0000FF"/>
<path class="atom-15" d="M 387.8 421.1 L 388.9 421.1 L 388.9 420.0 L 389.4 420.0 L 389.4 421.1 L 390.6 421.1 L 390.6 421.6 L 389.4 421.6 L 389.4 422.8 L 388.9 422.8 L 388.9 421.6 L 387.8 421.6 L 387.8 421.1 " fill="#0000FF"/>
<path class="atom-17" d="M 419.6 438.7 Q 419.6 438.7, 419.9 438.9 Q 420.2 439.0, 420.6 439.1 Q 420.9 439.2, 421.2 439.2 Q 421.8 439.2, 422.2 438.9 Q 422.5 438.6, 422.5 438.1 Q 422.5 437.7, 422.3 437.5 Q 422.2 437.3, 421.9 437.2 Q 421.6 437.0, 421.2 436.9 Q 420.6 436.7, 420.3 436.6 Q 419.9 436.4, 419.7 436.1 Q 419.5 435.7, 419.5 435.2 Q 419.5 434.4, 420.0 433.9 Q 420.6 433.4, 421.6 433.4 Q 422.4 433.4, 423.2 433.7 L 423.0 434.4 Q 422.2 434.1, 421.7 434.1 Q 421.0 434.1, 420.7 434.4 Q 420.4 434.6, 420.4 435.0 Q 420.4 435.4, 420.5 435.6 Q 420.7 435.8, 421.0 435.9 Q 421.2 436.0, 421.7 436.2 Q 422.2 436.3, 422.6 436.5 Q 422.9 436.7, 423.2 437.1 Q 423.4 437.4, 423.4 438.1 Q 423.4 438.9, 422.8 439.4 Q 422.2 439.9, 421.3 439.9 Q 420.7 439.9, 420.3 439.8 Q 419.8 439.6, 419.3 439.4 L 419.6 438.7 " fill="#CCCC00"/>
<path class="atom-19" d="M 405.5 384.1 Q 405.5 384.2, 405.8 384.3 Q 406.1 384.4, 406.4 384.5 Q 406.8 384.6, 407.1 384.6 Q 407.7 384.6, 408.1 384.3 Q 408.4 384.0, 408.4 383.5 Q 408.4 383.1, 408.2 382.9 Q 408.1 382.7, 407.8 382.6 Q 407.5 382.5, 407.1 382.3 Q 406.5 382.1, 406.2 382.0 Q 405.8 381.8, 405.6 381.5 Q 405.3 381.1, 405.3 380.6 Q 405.3 379.8, 405.9 379.3 Q 406.4 378.8, 407.5 378.8 Q 408.2 378.8, 409.1 379.1 L 408.9 379.8 Q 408.1 379.5, 407.5 379.5 Q 406.9 379.5, 406.6 379.8 Q 406.2 380.0, 406.2 380.5 Q 406.2 380.8, 406.4 381.0 Q 406.6 381.2, 406.8 381.3 Q 407.1 381.4, 407.5 381.6 Q 408.1 381.8, 408.5 381.9 Q 408.8 382.1, 409.0 382.5 Q 409.3 382.8, 409.3 383.5 Q 409.3 384.3, 408.7 384.8 Q 408.1 385.3, 407.1 385.3 Q 406.6 385.3, 406.1 385.2 Q 405.7 385.1, 405.2 384.8 L 405.5 384.1 " fill="#CCCC00"/>
<path class="atom-19" d="M 409.8 379.8 L 410.9 379.8 L 410.9 378.7 L 411.4 378.7 L 411.4 379.8 L 412.6 379.8 L 412.6 380.3 L 411.4 380.3 L 411.4 381.4 L 410.9 381.4 L 410.9 380.3 L 409.8 380.3 L 409.8 379.8 " fill="#CCCC00"/>
<path class="atom-20" d="M 421.3 357.1 Q 421.3 355.6, 422.0 354.7 Q 422.8 353.8, 424.2 353.8 Q 425.6 353.8, 426.3 354.7 Q 427.1 355.6, 427.1 357.1 Q 427.1 358.6, 426.3 359.5 Q 425.6 360.4, 424.2 360.4 Q 422.8 360.4, 422.0 359.5 Q 421.3 358.6, 421.3 357.1 M 424.2 359.7 Q 425.1 359.7, 425.7 359.0 Q 426.2 358.4, 426.2 357.1 Q 426.2 355.8, 425.7 355.2 Q 425.1 354.6, 424.2 354.6 Q 423.2 354.6, 422.7 355.2 Q 422.2 355.8, 422.2 357.1 Q 422.2 358.4, 422.7 359.0 Q 423.2 359.7, 424.2 359.7 " fill="#FF0000"/>
<path class="atom-20" d="M 427.6 355.0 L 428.8 355.0 L 428.8 353.8 L 429.2 353.8 L 429.2 355.0 L 430.4 355.0 L 430.4 355.4 L 429.2 355.4 L 429.2 356.6 L 428.8 356.6 L 428.8 355.4 L 427.6 355.4 L 427.6 355.0 " fill="#FF0000"/>
<path class="atom-21" d="M 417.9 335.0 Q 417.9 333.4, 418.6 332.6 Q 419.3 331.7, 420.8 331.7 Q 422.1 331.7, 422.8 332.6 L 422.2 333.1 Q 421.7 332.5, 420.8 332.5 Q 419.8 332.5, 419.3 333.1 Q 418.8 333.7, 418.8 335.0 Q 418.8 336.2, 419.3 336.9 Q 419.8 337.5, 420.9 337.5 Q 421.6 337.5, 422.4 337.1 L 422.6 337.8 Q 422.3 338.0, 421.8 338.1 Q 421.3 338.2, 420.7 338.2 Q 419.3 338.2, 418.6 337.4 Q 417.9 336.5, 417.9 335.0 " fill="#000000"/>
<path class="atom-22" d="M 413.5 312.8 Q 413.5 311.3, 414.3 310.5 Q 415.0 309.6, 416.4 309.6 Q 417.9 309.6, 418.6 310.5 Q 419.4 311.3, 419.4 312.8 Q 419.4 314.4, 418.6 315.3 Q 417.8 316.1, 416.4 316.1 Q 415.0 316.1, 414.3 315.3 Q 413.5 314.4, 413.5 312.8 M 416.4 315.4 Q 417.4 315.4, 417.9 314.8 Q 418.5 314.1, 418.5 312.8 Q 418.5 311.6, 417.9 311.0 Q 417.4 310.3, 416.4 310.3 Q 415.5 310.3, 414.9 310.9 Q 414.4 311.6, 414.4 312.8 Q 414.4 314.1, 414.9 314.8 Q 415.5 315.4, 416.4 315.4 " fill="#FF0000"/>
<path class="bond-0 atom-0 atom-1" d="M 576.6,375.0 L 582.9,381.9" style="fill:none;fill-rule:evenodd;stroke:#FF7F00;stroke-width:2.0px;stroke-linecap:butt;stroke-linejoin:miter;stroke-opacity:1"/>
<path class="bond-0 atom-0 atom-1" d="M 582.9,381.9 L 589.2,388.7" style="fill:none;fill-rule:evenodd;stroke:#000000;stroke-width:2.0px;stroke-linecap:butt;stroke-linejoin:miter;stroke-opacity:1"/>
<path class="bond-1 atom-1 atom-2" d="M 589.2,388.7 L 611.1,384.0" style="fill:none;fill-rule:evenodd;stroke:#000000;stroke-width:2.0px;stroke-linecap:butt;stroke-linejoin:miter;stroke-opacity:1"/>
<path class="bond-2 atom-2 atom-3" d="M 611.1,384.0 L 618.0,362.6" style="fill:none;fill-rule:evenodd;stroke:#000000;stroke-width:2.0px;stroke-linecap:butt;stroke-linejoin:miter;stroke-opacity:1"/>
<path class="bond-2 atom-2 atom-3" d="M 616.4,382.1 L 621.2,367.2" style="fill:none;fill-rule:evenodd;stroke:#000000;stroke-width:2.0px;stroke-linecap:butt;stroke-linejoin:miter;stroke-opacity:1"/>
<path class="bond-8 atom-7 atom-2" d="M 626.2,400.6 L 611.1,384.0" style="fill:none;fill-rule:evenodd;stroke:#000000;stroke-width:2.0px;stroke-linecap:butt;stroke-linejoin:miter;stroke-opacity:1"/>
<path class="bond-3 atom-3 atom-4" d="M 618.0,362.6 L 639.9,357.8" style="fill:none;fill-rule:evenodd;stroke:#000000;stroke-width:2.0px;stroke-linecap:butt;stroke-linejoin:miter;stroke-opacity:1"/>
<path class="bond-4 atom-4 atom-5" d="M 639.9,357.8 L 655.0,374.4" style="fill:none;fill-rule:evenodd;stroke:#000000;stroke-width:2.0px;stroke-linecap:butt;stroke-linejoin:miter;stroke-opacity:1"/>
<path class="bond-4 atom-4 atom-5" d="M 638.8,363.3 L 649.4,375.0" style="fill:none;fill-rule:evenodd;stroke:#000000;stroke-width:2.0px;stroke-linecap:butt;stroke-linejoin:miter;stroke-opacity:1"/>
<path class="bond-5 atom-5 atom-6" d="M 655.0,374.4 L 648.2,395.8" style="fill:none;fill-rule:evenodd;stroke:#000000;stroke-width:2.0px;stroke-linecap:butt;stroke-linejoin:miter;stroke-opacity:1"/>
<path class="bond-6 atom-6 atom-7" d="M 648.2,395.8 L 626.2,400.6" style="fill:none;fill-rule:evenodd;stroke:#000000;stroke-width:2.0px;stroke-linecap:butt;stroke-linejoin:miter;stroke-opacity:1"/>
<path class="bond-6 atom-6 atom-7" d="M 643.9,392.2 L 628.5,395.5" style="fill:none;fill-rule:evenodd;stroke:#000000;stroke-width:2.0px;stroke-linecap:butt;stroke-linejoin:miter;stroke-opacity:1"/>
<path class="bond-7 atom-7 atom-8" d="M 626.2,400.6 L 623.4,409.5" style="fill:none;fill-rule:evenodd;stroke:#000000;stroke-width:2.0px;stroke-linecap:butt;stroke-linejoin:miter;stroke-opacity:1"/>
<path class="bond-7 atom-7 atom-8" d="M 623.4,409.5 L 620.5,418.4" style="fill:none;fill-rule:evenodd;stroke:#00CC00;stroke-width:2.0px;stroke-linecap:butt;stroke-linejoin:miter;stroke-opacity:1"/>
<path class="atom-0" d="M 573.9 368.9 Q 575.0 368.9, 575.5 369.4 Q 576.1 369.9, 576.1 370.8 Q 576.1 371.7, 575.5 372.2 Q 575.0 372.7, 573.9 372.7 L 572.9 372.7 L 572.9 375.3 L 572.0 375.3 L 572.0 368.9 L 573.9 368.9 M 573.9 372.0 Q 574.5 372.0, 574.9 371.7 Q 575.2 371.4, 575.2 370.8 Q 575.2 370.2, 574.9 370.0 Q 574.5 369.7, 573.9 369.7 L 572.9 369.7 L 572.9 372.0 L 573.9 372.0 " fill="#FF7F00"/>
<path class="atom-8" d="M 616.9 422.2 Q 616.9 420.6, 617.6 419.8 Q 618.4 419.0, 619.8 419.0 Q 621.1 419.0, 621.8 419.9 L 621.2 420.4 Q 620.7 419.7, 619.8 419.7 Q 618.8 419.7, 618.3 420.4 Q 617.8 421.0, 617.8 422.2 Q 617.8 423.5, 618.3 424.1 Q 618.9 424.8, 619.9 424.8 Q 620.6 424.8, 621.4 424.3 L 621.7 425.0 Q 621.3 425.2, 620.8 425.4 Q 620.3 425.5, 619.8 425.5 Q 618.4 425.5, 617.6 424.6 Q 616.9 423.8, 616.9 422.2 " fill="#00CC00"/>
<path class="atom-8" d="M 622.6 418.6 L 623.4 418.6 L 623.4 425.4 L 622.6 425.4 L 622.6 418.6 " fill="#00CC00"/>
<path d="M 571.1,371.2 L 571.1,371.2 L 571.1,371.1 L 571.1,371.1 L 571.1,371.1 L 571.1,371.0 L 571.1,371.0 L 571.0,371.0 L 571.0,370.9 L 571.0,370.9 L 571.0,370.9 L 570.9,370.9 L 570.9,370.8 L 570.9,370.8 L 570.8,370.8 L 570.8,370.8 L 570.8,370.8 L 570.7,370.8 L 570.7,370.8 L 570.6,370.8 L 570.6,370.8 L 570.6,370.8 L 570.5,370.8 L 570.5,370.8 L 570.5,370.8 L 570.4,370.8 L 570.4,370.9 L 570.4,370.9 L 570.3,370.9 L 570.3,371.0 L 570.3,371.0 L 570.3,371.0 L 570.3,371.1 L 570.2,371.1 L 570.2,371.1 L 570.2,371.2 L 570.2,371.2 L 570.2,371.2 L 570.2,371.3 L 570.2,371.3 L 570.2,371.4 L 570.3,371.4 L 570.3,371.4 L 570.3,371.5 L 570.3,371.5 L 570.3,371.5 L 570.4,371.6 L 570.4,371.6 L 570.4,371.6 L 570.5,371.6 L 570.5,371.6 L 570.5,371.6 L 570.6,371.7 L 570.6,371.7 L 570.6,371.7 L 570.7,371.7 L 570.7,371.7 L 570.8,371.7 L 570.8,371.7 L 570.8,371.6 L 570.9,371.6 L 570.9,371.6 L 570.9,371.6 L 571.0,371.6 L 571.0,371.5 L 571.0,371.5 L 571.0,371.5 L 571.1,371.4 L 571.1,371.4 L 571.1,371.4 L 571.1,371.3 L 571.1,371.3 L 571.1,371.3 L 571.1,371.2 L 570.7,371.2 Z" style="fill:#000000;fill-rule:evenodd;fill-opacity:1;stroke:#000000;stroke-width:0.0px;stroke-linecap:butt;stroke-linejoin:miter;stroke-opacity:1;"/>
<path d="M 571.1,373.0 L 571.1,373.0 L 571.1,372.9 L 571.1,372.9 L 571.1,372.9 L 571.1,372.8 L 571.1,372.8 L 571.0,372.8 L 571.0,372.7 L 571.0,372.7 L 571.0,372.7 L 570.9,372.7 L 570.9,372.6 L 570.9,372.6 L 570.8,372.6 L 570.8,372.6 L 570.8,372.6 L 570.7,372.6 L 570.7,372.6 L 570.6,372.6 L 570.6,372.6 L 570.6,372.6 L 570.5,372.6 L 570.5,372.6 L 570.5,372.6 L 570.4,372.6 L 570.4,372.7 L 570.4,372.7 L 570.3,372.7 L 570.3,372.7 L 570.3,372.8 L 570.3,372.8 L 570.3,372.9 L 570.2,372.9 L 570.2,372.9 L 570.2,373.0 L 570.2,373.0 L 570.2,373.0 L 570.2,373.1 L 570.2,373.1 L 570.2,373.2 L 570.3,373.2 L 570.3,373.2 L 570.3,373.3 L 570.3,373.3 L 570.3,373.3 L 570.4,373.3 L 570.4,373.4 L 570.4,373.4 L 570.5,373.4 L 570.5,373.4 L 570.5,373.4 L 570.6,373.5 L 570.6,373.5 L 570.6,373.5 L 570.7,373.5 L 570.7,373.5 L 570.8,373.5 L 570.8,373.5 L 570.8,373.4 L 570.9,373.4 L 570.9,373.4 L 570.9,373.4 L 571.0,373.4 L 571.0,373.3 L 571.0,373.3 L 571.0,373.3 L 571.1,373.2 L 571.1,373.2 L 571.1,373.2 L 571.1,373.1 L 571.1,373.1 L 571.1,373.1 L 571.1,373.0 L 570.7,373.0 Z" style="fill:#000000;fill-rule:evenodd;fill-opacity:1;stroke:#000000;stroke-width:0.0px;stroke-linecap:butt;stroke-linejoin:miter;stroke-opacity:1;"/>
<path class="bond-0 atom-0 atom-1" d="M 112.4,634.2 L 127.9,634.2" style="fill:none;fill-rule:evenodd;stroke:#FF0000;stroke-width:2.0px;stroke-linecap:butt;stroke-linejoin:miter;stroke-opacity:1"/>
<path class="atom-0" d="M 105.9 634.3 Q 105.9 632.7, 106.7 631.9 Q 107.5 631.0, 108.9 631.0 Q 110.3 631.0, 111.0 631.9 Q 111.8 632.7, 111.8 634.3 Q 111.8 635.8, 111.0 636.7 Q 110.3 637.6, 108.9 637.6 Q 107.5 637.6, 106.7 636.7 Q 105.9 635.8, 105.9 634.3 M 108.9 636.8 Q 109.8 636.8, 110.4 636.2 Q 110.9 635.5, 110.9 634.3 Q 110.9 633.0, 110.4 632.4 Q 109.8 631.7, 108.9 631.7 Q 107.9 631.7, 107.4 632.4 Q 106.8 633.0, 106.8 634.3 Q 106.8 635.5, 107.4 636.2 Q 107.9 636.8, 108.9 636.8 " fill="#FF0000"/>
<path class="atom-0" d="M 112.1 632.1 L 114.3 632.1 L 114.3 632.5 L 112.1 632.5 L 112.1 632.1 " fill="#FF0000"/>
<path class="atom-1" d="M 128.4 634.3 Q 128.4 632.7, 129.2 631.9 Q 129.9 631.0, 131.3 631.0 Q 132.7 631.0, 133.5 631.9 Q 134.2 632.7, 134.2 634.3 Q 134.2 635.8, 133.5 636.7 Q 132.7 637.6, 131.3 637.6 Q 129.9 637.6, 129.2 636.7 Q 128.4 635.8, 128.4 634.3 M 131.3 636.8 Q 132.3 636.8, 132.8 636.2 Q 133.4 635.5, 133.4 634.3 Q 133.4 633.0, 132.8 632.4 Q 132.3 631.7, 131.3 631.7 Q 130.4 631.7, 129.8 632.4 Q 129.3 633.0, 129.3 634.3 Q 129.3 635.5, 129.8 636.2 Q 130.4 636.8, 131.3 636.8 " fill="#FF0000"/>
<path class="atom-1" d="M 134.5 632.1 L 136.7 632.1 L 136.7 632.5 L 134.5 632.5 L 134.5 632.1 " fill="#FF0000"/>
<path class="bond-0 atom-0 atom-1" d="M 311.8,595.8 L 312.7,605.1" style="fill:none;fill-rule:evenodd;stroke:#0000FF;stroke-width:2.0px;stroke-linecap:butt;stroke-linejoin:miter;stroke-opacity:1"/>
<path class="bond-0 atom-0 atom-1" d="M 312.7,605.1 L 313.7,614.4" style="fill:none;fill-rule:evenodd;stroke:#000000;stroke-width:2.0px;stroke-linecap:butt;stroke-linejoin:miter;stroke-opacity:1"/>
<path class="bond-0 atom-0 atom-1" d="M 316.2,595.4 L 317.2,604.7" style="fill:none;fill-rule:evenodd;stroke:#0000FF;stroke-width:2.0px;stroke-linecap:butt;stroke-linejoin:miter;stroke-opacity:1"/>
<path class="bond-0 atom-0 atom-1" d="M 317.2,604.7 L 318.1,614.0" style="fill:none;fill-rule:evenodd;stroke:#000000;stroke-width:2.0px;stroke-linecap:butt;stroke-linejoin:miter;stroke-opacity:1"/>
<path class="bond-1 atom-1 atom-2" d="M 315.9,614.2 L 336.4,623.4" style="fill:none;fill-rule:evenodd;stroke:#000000;stroke-width:2.0px;stroke-linecap:butt;stroke-linejoin:miter;stroke-opacity:1"/>
<path class="bond-2 atom-2 atom-3" d="M 336.4,623.4 L 337.4,632.7" style="fill:none;fill-rule:evenodd;stroke:#000000;stroke-width:2.0px;stroke-linecap:butt;stroke-linejoin:miter;stroke-opacity:1"/>
<path class="bond-2 atom-2 atom-3" d="M 337.4,632.7 L 338.3,642.0" style="fill:none;fill-rule:evenodd;stroke:#0000FF;stroke-width:2.0px;stroke-linecap:butt;stroke-linejoin:miter;stroke-opacity:1"/>
<path class="bond-3 atom-3 atom-4" d="M 335.7,647.9 L 328.1,653.4" style="fill:none;fill-rule:evenodd;stroke:#0000FF;stroke-width:2.0px;stroke-linecap:butt;stroke-linejoin:miter;stroke-opacity:1"/>
<path class="bond-3 atom-3 atom-4" d="M 328.1,653.4 L 320.5,658.9" style="fill:none;fill-rule:evenodd;stroke:#000000;stroke-width:2.0px;stroke-linecap:butt;stroke-linejoin:miter;stroke-opacity:1"/>
<path class="bond-4 atom-3 atom-5" d="M 341.7,647.1 L 350.4,651.0" style="fill:none;fill-rule:evenodd;stroke:#0000FF;stroke-width:2.0px;stroke-linecap:butt;stroke-linejoin:miter;stroke-opacity:1"/>
<path class="bond-4 atom-3 atom-5" d="M 350.4,651.0 L 359.2,654.9" style="fill:none;fill-rule:evenodd;stroke:#000000;stroke-width:2.0px;stroke-linecap:butt;stroke-linejoin:miter;stroke-opacity:1"/>
<path class="bond-5 atom-5 atom-6" d="M 357.0,655.2 L 357.9,664.4" style="fill:none;fill-rule:evenodd;stroke:#000000;stroke-width:2.0px;stroke-linecap:butt;stroke-linejoin:miter;stroke-opacity:1"/>
<path class="bond-5 atom-5 atom-6" d="M 357.9,664.4 L 358.9,673.7" style="fill:none;fill-rule:evenodd;stroke:#FF0000;stroke-width:2.0px;stroke-linecap:butt;stroke-linejoin:miter;stroke-opacity:1"/>
<path class="bond-5 atom-5 atom-6" d="M 361.4,654.7 L 362.4,664.0" style="fill:none;fill-rule:evenodd;stroke:#000000;stroke-width:2.0px;stroke-linecap:butt;stroke-linejoin:miter;stroke-opacity:1"/>
<path class="bond-5 atom-5 atom-6" d="M 362.4,664.0 L 363.3,673.3" style="fill:none;fill-rule:evenodd;stroke:#FF0000;stroke-width:2.0px;stroke-linecap:butt;stroke-linejoin:miter;stroke-opacity:1"/>
<path class="bond-6 atom-5 atom-7" d="M 359.2,654.9 L 377.4,641.8" style="fill:none;fill-rule:evenodd;stroke:#000000;stroke-width:2.0px;stroke-linecap:butt;stroke-linejoin:miter;stroke-opacity:1"/>
<path class="bond-7 atom-7 atom-8" d="M 377.4,641.8 L 375.1,619.4" style="fill:none;fill-rule:evenodd;stroke:#000000;stroke-width:2.0px;stroke-linecap:butt;stroke-linejoin:miter;stroke-opacity:1"/>
<path class="bond-7 atom-7 atom-8" d="M 381.5,638.0 L 379.9,622.3" style="fill:none;fill-rule:evenodd;stroke:#000000;stroke-width:2.0px;stroke-linecap:butt;stroke-linejoin:miter;stroke-opacity:1"/>
<path class="bond-14 atom-13 atom-7" d="M 397.9,651.0 L 377.4,641.8" style="fill:none;fill-rule:evenodd;stroke:#000000;stroke-width:2.0px;stroke-linecap:butt;stroke-linejoin:miter;stroke-opacity:1"/>
<path class="bond-8 atom-8 atom-9" d="M 375.1,619.4 L 393.3,606.3" style="fill:none;fill-rule:evenodd;stroke:#000000;stroke-width:2.0px;stroke-linecap:butt;stroke-linejoin:miter;stroke-opacity:1"/>
<path class="bond-9 atom-9 atom-10" d="M 393.3,606.3 L 413.8,615.5" style="fill:none;fill-rule:evenodd;stroke:#000000;stroke-width:2.0px;stroke-linecap:butt;stroke-linejoin:miter;stroke-opacity:1"/>
<path class="bond-9 atom-9 atom-10" d="M 394.5,611.7 L 408.9,618.2" style="fill:none;fill-rule:evenodd;stroke:#000000;stroke-width:2.0px;stroke-linecap:butt;stroke-linejoin:miter;stroke-opacity:1"/>
<path class="bond-10 atom-10 atom-11" d="M 413.8,615.5 L 421.7,609.8" style="fill:none;fill-rule:evenodd;stroke:#000000;stroke-width:2.0px;stroke-linecap:butt;stroke-linejoin:miter;stroke-opacity:1"/>
<path class="bond-10 atom-10 atom-11" d="M 421.7,609.8 L 429.5,604.1" style="fill:none;fill-rule:evenodd;stroke:#33CCCC;stroke-width:2.0px;stroke-linecap:butt;stroke-linejoin:miter;stroke-opacity:1"/>
<path class="bond-11 atom-10 atom-12" d="M 413.8,615.5 L 416.1,637.8" style="fill:none;fill-rule:evenodd;stroke:#000000;stroke-width:2.0px;stroke-linecap:butt;stroke-linejoin:miter;stroke-opacity:1"/>
<path class="bond-12 atom-12 atom-13" d="M 416.1,637.8 L 397.9,651.0" style="fill:none;fill-rule:evenodd;stroke:#000000;stroke-width:2.0px;stroke-linecap:butt;stroke-linejoin:miter;stroke-opacity:1"/>
<path class="bond-12 atom-12 atom-13" d="M 410.7,636.1 L 398.0,645.3" style="fill:none;fill-rule:evenodd;stroke:#000000;stroke-width:2.0px;stroke-linecap:butt;stroke-linejoin:miter;stroke-opacity:1"/>
<path class="bond-13 atom-13 atom-14" d="M 397.9,651.0 L 398.8,660.3" style="fill:none;fill-rule:evenodd;stroke:#000000;stroke-width:2.0px;stroke-linecap:butt;stroke-linejoin:miter;stroke-opacity:1"/>
<path class="bond-13 atom-13 atom-14" d="M 398.8,660.3 L 399.8,669.6" style="fill:none;fill-rule:evenodd;stroke:#33CCCC;stroke-width:2.0px;stroke-linecap:butt;stroke-linejoin:miter;stroke-opacity:1"/>
<path class="atom-0" d="M 312.2 588.7 L 314.3 592.1 Q 314.5 592.4, 314.8 593.0 Q 315.2 593.6, 315.2 593.6 L 315.2 588.7 L 316.0 588.7 L 316.0 595.0 L 315.2 595.0 L 312.9 591.4 Q 312.7 590.9, 312.4 590.4 Q 312.1 589.9, 312.0 589.8 L 312.0 595.0 L 311.2 595.0 L 311.2 588.7 L 312.2 588.7 " fill="#0000FF"/>
<path class="atom-0" d="M 316.3 589.7 L 318.5 589.7 L 318.5 590.2 L 316.3 590.2 L 316.3 589.7 " fill="#0000FF"/>
<path class="atom-3" d="M 337.3 642.6 L 339.4 645.9 Q 339.6 646.3, 339.9 646.9 Q 340.2 647.5, 340.3 647.5 L 340.3 642.6 L 341.1 642.6 L 341.1 648.9 L 340.2 648.9 L 338.0 645.2 Q 337.7 644.8, 337.5 644.3 Q 337.2 643.8, 337.1 643.7 L 337.1 648.9 L 336.3 648.9 L 336.3 642.6 L 337.3 642.6 " fill="#0000FF"/>
<path class="atom-6" d="M 358.6 677.3 Q 358.6 675.8, 359.3 674.9 Q 360.1 674.1, 361.5 674.1 Q 362.9 674.1, 363.6 674.9 Q 364.4 675.8, 364.4 677.3 Q 364.4 678.8, 363.6 679.7 Q 362.9 680.6, 361.5 680.6 Q 360.1 680.6, 359.3 679.7 Q 358.6 678.8, 358.6 677.3 M 361.5 679.9 Q 362.5 679.9, 363.0 679.2 Q 363.5 678.6, 363.5 677.3 Q 363.5 676.0, 363.0 675.4 Q 362.5 674.8, 361.5 674.8 Q 360.5 674.8, 360.0 675.4 Q 359.5 676.0, 359.5 677.3 Q 359.5 678.6, 360.0 679.2 Q 360.5 679.9, 361.5 679.9 " fill="#FF0000"/>
<path class="atom-11" d="M 430.1 599.1 L 433.9 599.1 L 433.9 599.8 L 431.0 599.8 L 431.0 601.8 L 433.6 601.8 L 433.6 602.5 L 431.0 602.5 L 431.0 605.5 L 430.1 605.5 L 430.1 599.1 " fill="#33CCCC"/>
<path class="atom-14" d="M 398.3 670.1 L 402.1 670.1 L 402.1 670.8 L 399.1 670.8 L 399.1 672.8 L 401.7 672.8 L 401.7 673.5 L 399.1 673.5 L 399.1 676.5 L 398.3 676.5 L 398.3 670.1 " fill="#33CCCC"/>
<path class="bond-0 atom-0 atom-1" d="M 642.4,679.1 L 650.3,678.0" style="fill:none;fill-rule:evenodd;stroke:#0000FF;stroke-width:2.0px;stroke-linecap:butt;stroke-linejoin:miter;stroke-opacity:1"/>
<path class="bond-0 atom-0 atom-1" d="M 650.3,678.0 L 658.3,676.8" style="fill:none;fill-rule:evenodd;stroke:#000000;stroke-width:2.0px;stroke-linecap:butt;stroke-linejoin:miter;stroke-opacity:1"/>
<path class="bond-17 atom-15 atom-0" d="M 622.2,662.3 L 627.7,669.3" style="fill:none;fill-rule:evenodd;stroke:#000000;stroke-width:2.0px;stroke-linecap:butt;stroke-linejoin:miter;stroke-opacity:1"/>
<path class="bond-17 atom-15 atom-0" d="M 627.7,669.3 L 633.1,676.3" style="fill:none;fill-rule:evenodd;stroke:#0000FF;stroke-width:2.0px;stroke-linecap:butt;stroke-linejoin:miter;stroke-opacity:1"/>
<path class="bond-1 atom-1 atom-2" d="M 658.3,676.8 L 666.7,656.0" style="fill:none;fill-rule:evenodd;stroke:#000000;stroke-width:2.0px;stroke-linecap:butt;stroke-linejoin:miter;stroke-opacity:1"/>
<path class="bond-2 atom-2 atom-3" d="M 666.7,656.0 L 652.8,638.3" style="fill:none;fill-rule:evenodd;stroke:#000000;stroke-width:2.0px;stroke-linecap:butt;stroke-linejoin:miter;stroke-opacity:1"/>
<path class="bond-3 atom-3 atom-4" d="M 652.8,638.3 L 666.2,620.3" style="fill:none;fill-rule:evenodd;stroke:#000000;stroke-width:2.0px;stroke-linecap:butt;stroke-linejoin:miter;stroke-opacity:1"/>
<path class="bond-13 atom-3 atom-14" d="M 652.8,638.3 L 630.5,641.5" style="fill:none;fill-rule:evenodd;stroke:#000000;stroke-width:2.0px;stroke-linecap:butt;stroke-linejoin:miter;stroke-opacity:1"/>
<path class="bond-4 atom-4 atom-5" d="M 666.2,620.3 L 663.0,598.1" style="fill:none;fill-rule:evenodd;stroke:#000000;stroke-width:2.0px;stroke-linecap:butt;stroke-linejoin:miter;stroke-opacity:1"/>
<path class="bond-5 atom-5 atom-6" d="M 663.0,598.1 L 645.1,584.6" style="fill:none;fill-rule:evenodd;stroke:#000000;stroke-width:2.0px;stroke-linecap:butt;stroke-linejoin:miter;stroke-opacity:1"/>
<path class="bond-6 atom-6 atom-7" d="M 645.1,584.6 L 622.8,587.8" style="fill:none;fill-rule:evenodd;stroke:#000000;stroke-width:2.0px;stroke-linecap:butt;stroke-linejoin:miter;stroke-opacity:1"/>
<path class="bond-7 atom-7 atom-8" d="M 622.8,587.8 L 609.4,605.8" style="fill:none;fill-rule:evenodd;stroke:#000000;stroke-width:2.0px;stroke-linecap:butt;stroke-linejoin:miter;stroke-opacity:1"/>
<path class="bond-8 atom-8 atom-9" d="M 609.4,605.8 L 612.6,628.0" style="fill:none;fill-rule:evenodd;stroke:#000000;stroke-width:2.0px;stroke-linecap:butt;stroke-linejoin:miter;stroke-opacity:1"/>
<path class="bond-9 atom-9 atom-10" d="M 612.6,628.0 L 593.2,639.5" style="fill:none;fill-rule:evenodd;stroke:#000000;stroke-width:2.0px;stroke-linecap:butt;stroke-linejoin:miter;stroke-opacity:1"/>
<path class="bond-16 atom-14 atom-9" d="M 630.5,641.5 L 612.6,628.0" style="fill:none;fill-rule:evenodd;stroke:#000000;stroke-width:2.0px;stroke-linecap:butt;stroke-linejoin:miter;stroke-opacity:1"/>
<path class="bond-10 atom-10 atom-11" d="M 593.2,639.5 L 573.7,628.5" style="fill:none;fill-rule:evenodd;stroke:#000000;stroke-width:2.0px;stroke-linecap:butt;stroke-linejoin:miter;stroke-opacity:1"/>
<path class="bond-11 atom-11 atom-12" d="M 573.7,628.5 L 565.7,633.2" style="fill:none;fill-rule:evenodd;stroke:#000000;stroke-width:2.0px;stroke-linecap:butt;stroke-linejoin:miter;stroke-opacity:1"/>
<path class="bond-11 atom-11 atom-12" d="M 565.7,633.2 L 557.8,637.9" style="fill:none;fill-rule:evenodd;stroke:#FF0000;stroke-width:2.0px;stroke-linecap:butt;stroke-linejoin:miter;stroke-opacity:1"/>
<path class="bond-12 atom-12 atom-13" d="M 550.9,638.0 L 542.8,633.5" style="fill:none;fill-rule:evenodd;stroke:#FF0000;stroke-width:2.0px;stroke-linecap:butt;stroke-linejoin:miter;stroke-opacity:1"/>
<path class="bond-12 atom-12 atom-13" d="M 542.8,633.5 L 534.8,628.9" style="fill:none;fill-rule:evenodd;stroke:#000000;stroke-width:2.0px;stroke-linecap:butt;stroke-linejoin:miter;stroke-opacity:1"/>
<path class="bond-14 atom-14 atom-15" d="M 630.5,641.5 L 622.2,662.3" style="fill:none;fill-rule:evenodd;stroke:#000000;stroke-width:2.0px;stroke-linecap:butt;stroke-linejoin:miter;stroke-opacity:1"/>
<path class="bond-15 atom-15 atom-16" d="M 621.9,660.1 L 612.5,661.5" style="fill:none;fill-rule:evenodd;stroke:#000000;stroke-width:2.0px;stroke-linecap:butt;stroke-linejoin:miter;stroke-opacity:1"/>
<path class="bond-15 atom-15 atom-16" d="M 612.5,661.5 L 603.1,662.8" style="fill:none;fill-rule:evenodd;stroke:#FF0000;stroke-width:2.0px;stroke-linecap:butt;stroke-linejoin:miter;stroke-opacity:1"/>
<path class="bond-15 atom-15 atom-16" d="M 622.5,664.6 L 613.1,665.9" style="fill:none;fill-rule:evenodd;stroke:#000000;stroke-width:2.0px;stroke-linecap:butt;stroke-linejoin:miter;stroke-opacity:1"/>
<path class="bond-15 atom-15 atom-16" d="M 613.1,665.9 L 603.8,667.3" style="fill:none;fill-rule:evenodd;stroke:#FF0000;stroke-width:2.0px;stroke-linecap:butt;stroke-linejoin:miter;stroke-opacity:1"/>
<path class="atom-0" d="M 627.9 676.8 L 628.8 676.8 L 628.8 679.5 L 632.1 679.5 L 632.1 676.8 L 632.9 676.8 L 632.9 683.2 L 632.1 683.2 L 632.1 680.2 L 628.8 680.2 L 628.8 683.2 L 627.9 683.2 L 627.9 676.8 " fill="#0000FF"/>
<path class="atom-0" d="M 634.7 676.8 L 636.8 680.2 Q 637.0 680.5, 637.3 681.1 Q 637.6 681.7, 637.6 681.8 L 637.6 676.8 L 638.5 676.8 L 638.5 683.2 L 637.6 683.2 L 635.4 679.5 Q 635.1 679.1, 634.8 678.6 Q 634.6 678.1, 634.5 677.9 L 634.5 683.2 L 633.7 683.2 L 633.7 676.8 L 634.7 676.8 " fill="#0000FF"/>
<path class="atom-0" d="M 639.0 678.0 L 640.1 678.0 L 640.1 676.8 L 640.6 676.8 L 640.6 678.0 L 641.8 678.0 L 641.8 678.4 L 640.6 678.4 L 640.6 679.6 L 640.1 679.6 L 640.1 678.4 L 639.0 678.4 L 639.0 678.0 " fill="#0000FF"/>
<path class="atom-12" d="M 551.4 640.0 Q 551.4 638.4, 552.2 637.6 Q 552.9 636.7, 554.4 636.7 Q 555.8 636.7, 556.5 637.6 Q 557.3 638.4, 557.3 640.0 Q 557.3 641.5, 556.5 642.4 Q 555.7 643.3, 554.4 643.3 Q 552.9 643.3, 552.2 642.4 Q 551.4 641.5, 551.4 640.0 M 554.4 642.5 Q 555.3 642.5, 555.8 641.9 Q 556.4 641.2, 556.4 640.0 Q 556.4 638.7, 555.8 638.1 Q 555.3 637.5, 554.4 637.5 Q 553.4 637.5, 552.9 638.1 Q 552.3 638.7, 552.3 640.0 Q 552.3 641.3, 552.9 641.9 Q 553.4 642.5, 554.4 642.5 " fill="#FF0000"/>
<path class="atom-16" d="M 597.0 665.6 Q 597.0 664.0, 597.8 663.2 Q 598.6 662.3, 600.0 662.3 Q 601.4 662.3, 602.1 663.2 Q 602.9 664.0, 602.9 665.6 Q 602.9 667.1, 602.1 668.0 Q 601.4 668.9, 600.0 668.9 Q 598.6 668.9, 597.8 668.0 Q 597.0 667.1, 597.0 665.6 M 600.0 668.1 Q 600.9 668.1, 601.5 667.5 Q 602.0 666.8, 602.0 665.6 Q 602.0 664.3, 601.5 663.7 Q 600.9 663.0, 600.0 663.0 Q 599.0 663.0, 598.5 663.7 Q 597.9 664.3, 597.9 665.6 Q 597.9 666.8, 598.5 667.5 Q 599.0 668.1, 600.0 668.1 " fill="#FF0000"/>
<path d="M 627.0,680.0 L 627.0,680.0 L 627.0,679.9 L 627.0,679.9 L 627.0,679.9 L 627.0,679.8 L 627.0,679.8 L 627.0,679.7 L 626.9,679.7 L 626.9,679.7 L 626.9,679.7 L 626.9,679.6 L 626.8,679.6 L 626.8,679.6 L 626.8,679.6 L 626.7,679.6 L 626.7,679.6 L 626.6,679.6 L 626.6,679.6 L 626.6,679.6 L 626.5,679.6 L 626.5,679.6 L 626.4,679.6 L 626.4,679.6 L 626.4,679.6 L 626.3,679.6 L 626.3,679.7 L 626.3,679.7 L 626.3,679.7 L 626.2,679.7 L 626.2,679.8 L 626.2,679.8 L 626.2,679.8 L 626.2,679.9 L 626.2,679.9 L 626.1,679.9 L 626.1,680.0 L 626.1,680.0 L 626.1,680.1 L 626.2,680.1 L 626.2,680.1 L 626.2,680.2 L 626.2,680.2 L 626.2,680.2 L 626.2,680.3 L 626.3,680.3 L 626.3,680.3 L 626.3,680.4 L 626.3,680.4 L 626.4,680.4 L 626.4,680.4 L 626.4,680.4 L 626.5,680.4 L 626.5,680.4 L 626.6,680.5 L 626.6,680.5 L 626.6,680.5 L 626.7,680.4 L 626.7,680.4 L 626.8,680.4 L 626.8,680.4 L 626.8,680.4 L 626.9,680.4 L 626.9,680.3 L 626.9,680.3 L 626.9,680.3 L 627.0,680.3 L 627.0,680.2 L 627.0,680.2 L 627.0,680.2 L 627.0,680.1 L 627.0,680.1 L 627.0,680.0 L 627.0,680.0 L 626.6,680.0 Z" style="fill:#000000;fill-rule:evenodd;fill-opacity:1;stroke:#000000;stroke-width:0.0px;stroke-linecap:butt;stroke-linejoin:miter;stroke-opacity:1;"/>
</svg>