<svg xmlns="http://www.w3.org/2000/svg" xmlns:rdkit="http://www.rdkit.org/xml" xmlns:xlink="http://www.w3.org/1999/xlink" version="1.1" baseProfile="full" xml:space="preserve" width="750px" height="750px" viewBox="0 0 750 750">
<!-- END OF HEADER -->
<rect style="opacity:1.0;fill:#FFFFFF;stroke:none" width="750.0" height="750.0" x="0.0" y="0.0"> </rect>
<rect style="opacity:1.0;fill:#FFFFFF;stroke:none" width="750.0" height="750.0" x="0.0" y="0.0"> </rect>
<rect style="opacity:1.0;fill:#FFFFFF;stroke:none" width="750.0" height="750.0" x="0.0" y="0.0"> </rect>
<rect style="opacity:1.0;fill:#FFFFFF;stroke:none" width="750.0" height="750.0" x="0.0" y="0.0"> </rect>
<rect style="opacity:1.0;fill:#FFFFFF;stroke:none" width="750.0" height="750.0" x="0.0" y="0.0"> </rect>
<rect style="opacity:1.0;fill:#FFFFFF;stroke:none" width="750.0" height="750.0" x="0.0" y="0.0"> </rect>
<rect style="opacity:1.0;fill:#FFFFFF;stroke:none" width="750.0" height="750.0" x="0.0" y="0.0"> </rect>
<rect style="opacity:1.0;fill:#FFFFFF;stroke:none" width="750.0" height="750.0" x="0.0" y="0.0"> </rect>
<rect style="opacity:1.0;fill:#FFFFFF;stroke:none" width="750.0" height="750.0" x="0.0" y="0.0"> </rect>
<rect style="opacity:1.0;fill:#FFFFFF;stroke:none" width="750.0" height="750.0" x="0.0" y="0.0"> </rect>
<path class="bond-0 atom-0 atom-1" d="M 170.0,118.6 L 164.6,122.2" style="fill:none;fill-rule:evenodd;stroke:#0000FF;stroke-width:2.0px;stroke-linecap:butt;stroke-linejoin:miter;stroke-opacity:1"/>
<path class="bond-0 atom-0 atom-1" d="M 164.6,122.2 L 159.2,125.7" style="fill:none;fill-rule:evenodd;stroke:#FF0000;stroke-width:2.0px;stroke-linecap:butt;stroke-linejoin:miter;stroke-opacity:1"/>
<path class="bond-1 atom-1 atom-2" d="M 153.2,126.1 L 147.2,123.1" style="fill:none;fill-rule:evenodd;stroke:#FF0000;stroke-width:2.0px;stroke-linecap:butt;stroke-linejoin:miter;stroke-opacity:1"/>
<path class="bond-1 atom-1 atom-2" d="M 147.2,123.1 L 141.3,120.1" style="fill:none;fill-rule:evenodd;stroke:#0000FF;stroke-width:2.0px;stroke-linecap:butt;stroke-linejoin:miter;stroke-opacity:1"/>
<path class="bond-2 atom-2 atom-3" d="M 136.2,120.6 L 130.4,124.4" style="fill:none;fill-rule:evenodd;stroke:#0000FF;stroke-width:2.0px;stroke-linecap:butt;stroke-linejoin:miter;stroke-opacity:1"/>
<path class="bond-2 atom-2 atom-3" d="M 130.4,124.4 L 124.6,128.2" style="fill:none;fill-rule:evenodd;stroke:#CCCC00;stroke-width:2.0px;stroke-linecap:butt;stroke-linejoin:miter;stroke-opacity:1"/>
<path class="bond-2 atom-2 atom-3" d="M 136.6,125.0 L 132.5,127.6" style="fill:none;fill-rule:evenodd;stroke:#0000FF;stroke-width:2.0px;stroke-linecap:butt;stroke-linejoin:miter;stroke-opacity:1"/>
<path class="bond-2 atom-2 atom-3" d="M 132.5,127.6 L 128.5,130.3" style="fill:none;fill-rule:evenodd;stroke:#CCCC00;stroke-width:2.0px;stroke-linecap:butt;stroke-linejoin:miter;stroke-opacity:1"/>
<path class="bond-3 atom-3 atom-4" d="M 120.1,128.5 L 107.1,121.9" style="fill:none;fill-rule:evenodd;stroke:#CCCC00;stroke-width:2.0px;stroke-linecap:butt;stroke-linejoin:miter;stroke-opacity:1"/>
<path class="bond-4 atom-4 atom-5" d="M 101.5,123.4 L 98.7,128.8" style="fill:none;fill-rule:evenodd;stroke:#CCCC00;stroke-width:2.0px;stroke-linecap:butt;stroke-linejoin:miter;stroke-opacity:1"/>
<path class="bond-4 atom-4 atom-5" d="M 98.7,128.8 L 96.0,134.2" style="fill:none;fill-rule:evenodd;stroke:#FF0000;stroke-width:2.0px;stroke-linecap:butt;stroke-linejoin:miter;stroke-opacity:1"/>
<path class="bond-4 atom-4 atom-5" d="M 105.0,125.1 L 102.2,130.6" style="fill:none;fill-rule:evenodd;stroke:#CCCC00;stroke-width:2.0px;stroke-linecap:butt;stroke-linejoin:miter;stroke-opacity:1"/>
<path class="bond-4 atom-4 atom-5" d="M 102.2,130.6 L 99.5,136.0" style="fill:none;fill-rule:evenodd;stroke:#FF0000;stroke-width:2.0px;stroke-linecap:butt;stroke-linejoin:miter;stroke-opacity:1"/>
<path class="bond-5 atom-4 atom-6" d="M 108.3,118.5 L 111.0,113.0" style="fill:none;fill-rule:evenodd;stroke:#CCCC00;stroke-width:2.0px;stroke-linecap:butt;stroke-linejoin:miter;stroke-opacity:1"/>
<path class="bond-5 atom-4 atom-6" d="M 111.0,113.0 L 113.8,107.5" style="fill:none;fill-rule:evenodd;stroke:#FF0000;stroke-width:2.0px;stroke-linecap:butt;stroke-linejoin:miter;stroke-opacity:1"/>
<path class="bond-5 atom-4 atom-6" d="M 104.8,116.7 L 107.5,111.2" style="fill:none;fill-rule:evenodd;stroke:#CCCC00;stroke-width:2.0px;stroke-linecap:butt;stroke-linejoin:miter;stroke-opacity:1"/>
<path class="bond-5 atom-4 atom-6" d="M 107.5,111.2 L 110.3,105.7" style="fill:none;fill-rule:evenodd;stroke:#FF0000;stroke-width:2.0px;stroke-linecap:butt;stroke-linejoin:miter;stroke-opacity:1"/>
<path class="bond-6 atom-4 atom-7" d="M 102.6,119.7 L 96.1,116.4" style="fill:none;fill-rule:evenodd;stroke:#CCCC00;stroke-width:2.0px;stroke-linecap:butt;stroke-linejoin:miter;stroke-opacity:1"/>
<path class="bond-6 atom-4 atom-7" d="M 96.1,116.4 L 89.5,113.1" style="fill:none;fill-rule:evenodd;stroke:#33CCCC;stroke-width:2.0px;stroke-linecap:butt;stroke-linejoin:miter;stroke-opacity:1"/>
<path class="atom-0" d="M 171.4 114.1 L 173.2 117.1 Q 173.4 117.4, 173.7 117.9 Q 174.0 118.4, 174.0 118.4 L 174.0 114.1 L 174.7 114.1 L 174.7 119.7 L 173.9 119.7 L 172.0 116.5 Q 171.8 116.1, 171.5 115.7 Q 171.3 115.2, 171.2 115.1 L 171.2 119.7 L 170.5 119.7 L 170.5 114.1 L 171.4 114.1 " fill="#0000FF"/>
<path class="atom-0" d="M 175.4 114.1 L 176.1 114.1 L 176.1 116.5 L 179.0 116.5 L 179.0 114.1 L 179.7 114.1 L 179.7 119.7 L 179.0 119.7 L 179.0 117.1 L 176.1 117.1 L 176.1 119.7 L 175.4 119.7 L 175.4 114.1 " fill="#0000FF"/>
<path class="atom-0" d="M 180.0 119.5 Q 180.1 119.1, 180.4 118.9 Q 180.8 118.7, 181.2 118.7 Q 181.8 118.7, 182.1 119.0 Q 182.4 119.3, 182.4 119.9 Q 182.4 120.4, 182.0 120.9 Q 181.6 121.4, 180.7 122.0 L 182.4 122.0 L 182.4 122.4 L 180.0 122.4 L 180.0 122.1 Q 180.7 121.6, 181.1 121.3 Q 181.5 120.9, 181.7 120.6 Q 181.9 120.2, 181.9 119.9 Q 181.9 119.6, 181.7 119.4 Q 181.5 119.2, 181.2 119.2 Q 180.9 119.2, 180.7 119.3 Q 180.5 119.4, 180.4 119.7 L 180.0 119.5 " fill="#0000FF"/>
<path class="atom-1" d="M 153.7 127.7 Q 153.7 126.3, 154.4 125.6 Q 155.0 124.9, 156.2 124.9 Q 157.5 124.9, 158.1 125.6 Q 158.8 126.3, 158.8 127.7 Q 158.8 129.0, 158.1 129.8 Q 157.5 130.5, 156.2 130.5 Q 155.0 130.5, 154.4 129.8 Q 153.7 129.0, 153.7 127.7 M 156.2 129.9 Q 157.1 129.9, 157.5 129.4 Q 158.0 128.8, 158.0 127.7 Q 158.0 126.6, 157.5 126.0 Q 157.1 125.5, 156.2 125.5 Q 155.4 125.5, 154.9 126.0 Q 154.5 126.6, 154.5 127.7 Q 154.5 128.8, 154.9 129.4 Q 155.4 129.9, 156.2 129.9 " fill="#FF0000"/>
<path class="atom-2" d="M 137.5 116.1 L 139.3 119.0 Q 139.5 119.3, 139.8 119.8 Q 140.1 120.4, 140.1 120.4 L 140.1 116.1 L 140.9 116.1 L 140.9 121.6 L 140.1 121.6 L 138.2 118.4 Q 137.9 118.1, 137.7 117.6 Q 137.4 117.2, 137.4 117.1 L 137.4 121.6 L 136.7 121.6 L 136.7 116.1 L 137.5 116.1 " fill="#0000FF"/>
<path class="atom-3" d="M 120.8 131.5 Q 120.9 131.5, 121.2 131.7 Q 121.4 131.8, 121.7 131.8 Q 122.0 131.9, 122.3 131.9 Q 122.8 131.9, 123.1 131.6 Q 123.4 131.4, 123.4 130.9 Q 123.4 130.6, 123.2 130.5 Q 123.1 130.3, 122.9 130.2 Q 122.6 130.1, 122.2 129.9 Q 121.7 129.8, 121.4 129.7 Q 121.2 129.5, 120.9 129.2 Q 120.7 128.9, 120.7 128.4 Q 120.7 127.7, 121.2 127.3 Q 121.7 126.9, 122.6 126.9 Q 123.3 126.9, 124.0 127.2 L 123.8 127.8 Q 123.2 127.5, 122.7 127.5 Q 122.1 127.5, 121.8 127.7 Q 121.5 127.9, 121.5 128.3 Q 121.5 128.6, 121.7 128.8 Q 121.8 129.0, 122.0 129.1 Q 122.3 129.2, 122.7 129.3 Q 123.2 129.5, 123.5 129.6 Q 123.7 129.8, 124.0 130.1 Q 124.2 130.4, 124.2 130.9 Q 124.2 131.7, 123.7 132.1 Q 123.2 132.5, 122.3 132.5 Q 121.8 132.5, 121.4 132.4 Q 121.1 132.3, 120.6 132.1 L 120.8 131.5 " fill="#CCCC00"/>
<path class="atom-3" d="M 120.2 133.1 L 121.0 133.1 L 121.0 135.4 L 123.8 135.4 L 123.8 133.1 L 124.6 133.1 L 124.6 138.6 L 123.8 138.6 L 123.8 136.1 L 121.0 136.1 L 121.0 138.6 L 120.2 138.6 L 120.2 133.1 " fill="#CCCC00"/>
<path class="atom-4" d="M 103.3 122.7 Q 103.4 122.8, 103.7 122.9 Q 103.9 123.0, 104.2 123.0 Q 104.5 123.1, 104.8 123.1 Q 105.3 123.1, 105.6 122.9 Q 105.9 122.6, 105.9 122.2 Q 105.9 121.9, 105.8 121.7 Q 105.6 121.5, 105.4 121.4 Q 105.1 121.3, 104.7 121.2 Q 104.3 121.0, 104.0 120.9 Q 103.7 120.7, 103.5 120.4 Q 103.3 120.1, 103.3 119.6 Q 103.3 118.9, 103.7 118.5 Q 104.2 118.1, 105.1 118.1 Q 105.8 118.1, 106.5 118.4 L 106.3 119.0 Q 105.7 118.7, 105.2 118.7 Q 104.6 118.7, 104.3 118.9 Q 104.0 119.1, 104.0 119.5 Q 104.0 119.8, 104.2 120.0 Q 104.3 120.2, 104.6 120.3 Q 104.8 120.4, 105.2 120.5 Q 105.7 120.7, 106.0 120.8 Q 106.3 121.0, 106.5 121.3 Q 106.7 121.6, 106.7 122.2 Q 106.7 122.9, 106.2 123.3 Q 105.7 123.7, 104.8 123.7 Q 104.3 123.7, 103.9 123.6 Q 103.6 123.5, 103.1 123.4 L 103.3 122.7 " fill="#CCCC00"/>
<path class="atom-5" d="M 93.6 138.3 Q 93.6 137.0, 94.2 136.3 Q 94.9 135.5, 96.1 135.5 Q 97.4 135.5, 98.0 136.3 Q 98.7 137.0, 98.7 138.3 Q 98.7 139.7, 98.0 140.5 Q 97.3 141.2, 96.1 141.2 Q 94.9 141.2, 94.2 140.5 Q 93.6 139.7, 93.6 138.3 M 96.1 140.6 Q 97.0 140.6, 97.4 140.0 Q 97.9 139.5, 97.9 138.3 Q 97.9 137.3, 97.4 136.7 Q 97.0 136.1, 96.1 136.1 Q 95.3 136.1, 94.8 136.7 Q 94.4 137.2, 94.4 138.3 Q 94.4 139.5, 94.8 140.0 Q 95.3 140.6, 96.1 140.6 " fill="#FF0000"/>
<path class="atom-6" d="M 111.2 103.4 Q 111.2 102.0, 111.8 101.3 Q 112.5 100.5, 113.7 100.5 Q 114.9 100.5, 115.6 101.3 Q 116.2 102.0, 116.2 103.4 Q 116.2 104.7, 115.6 105.5 Q 114.9 106.2, 113.7 106.2 Q 112.5 106.2, 111.8 105.5 Q 111.2 104.7, 111.2 103.4 M 113.7 105.6 Q 114.5 105.6, 115.0 105.0 Q 115.5 104.5, 115.5 103.4 Q 115.5 102.3, 115.0 101.7 Q 114.5 101.2, 113.7 101.2 Q 112.9 101.2, 112.4 101.7 Q 111.9 102.3, 111.9 103.4 Q 111.9 104.5, 112.4 105.0 Q 112.9 105.6, 113.7 105.6 " fill="#FF0000"/>
<path class="atom-7" d="M 85.8 109.3 L 89.1 109.3 L 89.1 109.9 L 86.5 109.9 L 86.5 111.6 L 88.8 111.6 L 88.8 112.2 L 86.5 112.2 L 86.5 114.8 L 85.8 114.8 L 85.8 109.3 " fill="#33CCCC"/>
<path class="bond-0 atom-0 atom-1" d="M 367.2,87.6 L 364.0,82.7" style="fill:none;fill-rule:evenodd;stroke:#CCCC00;stroke-width:2.0px;stroke-linecap:butt;stroke-linejoin:miter;stroke-opacity:1"/>
<path class="bond-0 atom-0 atom-1" d="M 364.0,82.7 L 360.7,77.8" style="fill:none;fill-rule:evenodd;stroke:#FF0000;stroke-width:2.0px;stroke-linecap:butt;stroke-linejoin:miter;stroke-opacity:1"/>
<path class="bond-0 atom-0 atom-1" d="M 363.9,89.7 L 360.7,84.8" style="fill:none;fill-rule:evenodd;stroke:#CCCC00;stroke-width:2.0px;stroke-linecap:butt;stroke-linejoin:miter;stroke-opacity:1"/>
<path class="bond-0 atom-0 atom-1" d="M 360.7,84.8 L 357.5,79.9" style="fill:none;fill-rule:evenodd;stroke:#FF0000;stroke-width:2.0px;stroke-linecap:butt;stroke-linejoin:miter;stroke-opacity:1"/>
<path class="bond-1 atom-0 atom-2" d="M 364.8,90.9 L 358.2,93.4" style="fill:none;fill-rule:evenodd;stroke:#CCCC00;stroke-width:2.0px;stroke-linecap:butt;stroke-linejoin:miter;stroke-opacity:1"/>
<path class="bond-1 atom-0 atom-2" d="M 358.2,93.4 L 351.7,95.9" style="fill:none;fill-rule:evenodd;stroke:#FF0000;stroke-width:2.0px;stroke-linecap:butt;stroke-linejoin:miter;stroke-opacity:1"/>
<path class="bond-1 atom-0 atom-2" d="M 366.1,94.6 L 359.6,97.1" style="fill:none;fill-rule:evenodd;stroke:#CCCC00;stroke-width:2.0px;stroke-linecap:butt;stroke-linejoin:miter;stroke-opacity:1"/>
<path class="bond-1 atom-0 atom-2" d="M 359.6,97.1 L 353.1,99.5" style="fill:none;fill-rule:evenodd;stroke:#FF0000;stroke-width:2.0px;stroke-linecap:butt;stroke-linejoin:miter;stroke-opacity:1"/>
<path class="bond-2 atom-0 atom-3" d="M 370.0,89.6 L 375.6,83.7" style="fill:none;fill-rule:evenodd;stroke:#CCCC00;stroke-width:2.0px;stroke-linecap:butt;stroke-linejoin:miter;stroke-opacity:1"/>
<path class="bond-2 atom-0 atom-3" d="M 375.6,83.7 L 381.3,77.8" style="fill:none;fill-rule:evenodd;stroke:#000000;stroke-width:2.0px;stroke-linecap:butt;stroke-linejoin:miter;stroke-opacity:1"/>
<path class="bond-25 atom-15 atom-0" d="M 370.4,111.3 L 369.3,103.3" style="fill:none;fill-rule:evenodd;stroke:#000000;stroke-width:2.0px;stroke-linecap:butt;stroke-linejoin:miter;stroke-opacity:1"/>
<path class="bond-25 atom-15 atom-0" d="M 369.3,103.3 L 368.2,95.3" style="fill:none;fill-rule:evenodd;stroke:#CCCC00;stroke-width:2.0px;stroke-linecap:butt;stroke-linejoin:miter;stroke-opacity:1"/>
<path class="bond-3 atom-3 atom-4" d="M 381.3,77.8 L 400.7,79.5" style="fill:none;fill-rule:evenodd;stroke:#000000;stroke-width:2.0px;stroke-linecap:butt;stroke-linejoin:miter;stroke-opacity:1"/>
<path class="bond-4 atom-4 atom-5" d="M 400.7,79.5 L 405.1,86.1" style="fill:none;fill-rule:evenodd;stroke:#000000;stroke-width:2.0px;stroke-linecap:butt;stroke-linejoin:miter;stroke-opacity:1"/>
<path class="bond-4 atom-4 atom-5" d="M 405.1,86.1 L 409.4,92.6" style="fill:none;fill-rule:evenodd;stroke:#0000FF;stroke-width:2.0px;stroke-linecap:butt;stroke-linejoin:miter;stroke-opacity:1"/>
<path class="bond-5 atom-5 atom-6" d="M 414.1,98.7 L 419.4,104.6" style="fill:none;fill-rule:evenodd;stroke:#0000FF;stroke-width:2.0px;stroke-linecap:butt;stroke-linejoin:miter;stroke-opacity:1"/>
<path class="bond-5 atom-5 atom-6" d="M 419.4,104.6 L 424.6,110.4" style="fill:none;fill-rule:evenodd;stroke:#000000;stroke-width:2.0px;stroke-linecap:butt;stroke-linejoin:miter;stroke-opacity:1"/>
<path class="bond-12 atom-5 atom-13" d="M 410.5,99.1 L 408.0,106.8" style="fill:none;fill-rule:evenodd;stroke:#0000FF;stroke-width:2.0px;stroke-linecap:butt;stroke-linejoin:miter;stroke-opacity:1"/>
<path class="bond-12 atom-5 atom-13" d="M 408.0,106.8 L 405.5,114.5" style="fill:none;fill-rule:evenodd;stroke:#000000;stroke-width:2.0px;stroke-linecap:butt;stroke-linejoin:miter;stroke-opacity:1"/>
<path class="bond-6 atom-6 atom-7" d="M 424.6,110.4 L 443.3,116.4" style="fill:none;fill-rule:evenodd;stroke:#000000;stroke-width:2.0px;stroke-linecap:butt;stroke-linejoin:miter;stroke-opacity:1"/>
<path class="bond-6 atom-6 atom-7" d="M 428.6,107.6 L 441.7,111.8" style="fill:none;fill-rule:evenodd;stroke:#000000;stroke-width:2.0px;stroke-linecap:butt;stroke-linejoin:miter;stroke-opacity:1"/>
<path class="bond-24 atom-13 atom-6" d="M 405.5,114.5 L 424.6,110.4" style="fill:none;fill-rule:evenodd;stroke:#000000;stroke-width:2.0px;stroke-linecap:butt;stroke-linejoin:miter;stroke-opacity:1"/>
<path class="bond-7 atom-7 atom-8" d="M 443.3,116.4 L 447.3,135.6" style="fill:none;fill-rule:evenodd;stroke:#000000;stroke-width:2.0px;stroke-linecap:butt;stroke-linejoin:miter;stroke-opacity:1"/>
<path class="bond-8 atom-8 atom-9" d="M 447.3,135.6 L 465.9,141.6" style="fill:none;fill-rule:evenodd;stroke:#000000;stroke-width:2.0px;stroke-linecap:butt;stroke-linejoin:miter;stroke-opacity:1"/>
<path class="bond-8 atom-8 atom-9" d="M 451.3,132.8 L 464.4,137.0" style="fill:none;fill-rule:evenodd;stroke:#000000;stroke-width:2.0px;stroke-linecap:butt;stroke-linejoin:miter;stroke-opacity:1"/>
<path class="bond-9 atom-9 atom-10" d="M 465.9,141.6 L 471.7,136.5" style="fill:none;fill-rule:evenodd;stroke:#000000;stroke-width:2.0px;stroke-linecap:butt;stroke-linejoin:miter;stroke-opacity:1"/>
<path class="bond-9 atom-9 atom-10" d="M 471.7,136.5 L 477.5,131.3" style="fill:none;fill-rule:evenodd;stroke:#FF0000;stroke-width:2.0px;stroke-linecap:butt;stroke-linejoin:miter;stroke-opacity:1"/>
<path class="bond-10 atom-9 atom-11" d="M 465.9,141.6 L 470.0,160.8" style="fill:none;fill-rule:evenodd;stroke:#000000;stroke-width:2.0px;stroke-linecap:butt;stroke-linejoin:miter;stroke-opacity:1"/>
<path class="bond-11 atom-11 atom-12" d="M 470.0,160.8 L 488.6,166.8" style="fill:none;fill-rule:evenodd;stroke:#000000;stroke-width:2.0px;stroke-linecap:butt;stroke-linejoin:miter;stroke-opacity:1"/>
<path class="bond-13 atom-13 atom-14" d="M 405.5,114.5 L 387.2,121.4" style="fill:none;fill-rule:evenodd;stroke:#000000;stroke-width:2.0px;stroke-linecap:butt;stroke-linejoin:miter;stroke-opacity:1"/>
<path class="bond-14 atom-14 atom-15" d="M 387.2,121.4 L 370.4,111.3" style="fill:none;fill-rule:evenodd;stroke:#000000;stroke-width:2.0px;stroke-linecap:butt;stroke-linejoin:miter;stroke-opacity:1"/>
<path class="bond-15 atom-15 atom-16" d="M 370.4,111.3 L 364.7,115.0" style="fill:none;fill-rule:evenodd;stroke:#000000;stroke-width:2.0px;stroke-linecap:butt;stroke-linejoin:miter;stroke-opacity:1"/>
<path class="bond-15 atom-15 atom-16" d="M 364.7,115.0 L 359.1,118.7" style="fill:none;fill-rule:evenodd;stroke:#CCCC00;stroke-width:2.0px;stroke-linecap:butt;stroke-linejoin:miter;stroke-opacity:1"/>
<path class="bond-15 atom-15 atom-16" d="M 370.8,115.7 L 366.9,118.3" style="fill:none;fill-rule:evenodd;stroke:#000000;stroke-width:2.0px;stroke-linecap:butt;stroke-linejoin:miter;stroke-opacity:1"/>
<path class="bond-15 atom-15 atom-16" d="M 366.9,118.3 L 363.0,120.9" style="fill:none;fill-rule:evenodd;stroke:#CCCC00;stroke-width:2.0px;stroke-linecap:butt;stroke-linejoin:miter;stroke-opacity:1"/>
<path class="bond-16 atom-16 atom-17" d="M 351.8,121.0 L 344.1,117.2" style="fill:none;fill-rule:evenodd;stroke:#CCCC00;stroke-width:2.0px;stroke-linecap:butt;stroke-linejoin:miter;stroke-opacity:1"/>
<path class="bond-16 atom-16 atom-17" d="M 344.1,117.2 L 336.5,113.4" style="fill:none;fill-rule:evenodd;stroke:#000000;stroke-width:2.0px;stroke-linecap:butt;stroke-linejoin:miter;stroke-opacity:1"/>
<path class="bond-17 atom-17 atom-18" d="M 336.5,113.4 L 320.2,124.1" style="fill:none;fill-rule:evenodd;stroke:#000000;stroke-width:2.0px;stroke-linecap:butt;stroke-linejoin:miter;stroke-opacity:1"/>
<path class="bond-18 atom-18 atom-19" d="M 320.2,124.1 L 302.7,115.4" style="fill:none;fill-rule:evenodd;stroke:#000000;stroke-width:2.0px;stroke-linecap:butt;stroke-linejoin:miter;stroke-opacity:1"/>
<path class="bond-18 atom-18 atom-19" d="M 319.3,119.3 L 307.0,113.2" style="fill:none;fill-rule:evenodd;stroke:#000000;stroke-width:2.0px;stroke-linecap:butt;stroke-linejoin:miter;stroke-opacity:1"/>
<path class="bond-19 atom-19 atom-20" d="M 302.7,115.4 L 286.3,126.2" style="fill:none;fill-rule:evenodd;stroke:#000000;stroke-width:2.0px;stroke-linecap:butt;stroke-linejoin:miter;stroke-opacity:1"/>
<path class="bond-20 atom-20 atom-21" d="M 286.3,126.2 L 268.8,117.4" style="fill:none;fill-rule:evenodd;stroke:#000000;stroke-width:2.0px;stroke-linecap:butt;stroke-linejoin:miter;stroke-opacity:1"/>
<path class="bond-21 atom-20 atom-22" d="M 286.3,126.2 L 287.5,145.7" style="fill:none;fill-rule:evenodd;stroke:#000000;stroke-width:2.0px;stroke-linecap:butt;stroke-linejoin:miter;stroke-opacity:1"/>
<path class="bond-22 atom-22 atom-23" d="M 287.5,145.7 L 281.8,149.5" style="fill:none;fill-rule:evenodd;stroke:#000000;stroke-width:2.0px;stroke-linecap:butt;stroke-linejoin:miter;stroke-opacity:1"/>
<path class="bond-22 atom-22 atom-23" d="M 281.8,149.5 L 276.2,153.2" style="fill:none;fill-rule:evenodd;stroke:#0000FF;stroke-width:2.0px;stroke-linecap:butt;stroke-linejoin:miter;stroke-opacity:1"/>
<path class="bond-23 atom-23 atom-24" d="M 271.4,159.8 L 271.9,167.9" style="fill:none;fill-rule:evenodd;stroke:#0000FF;stroke-width:2.0px;stroke-linecap:butt;stroke-linejoin:miter;stroke-opacity:1"/>
<path class="bond-23 atom-23 atom-24" d="M 271.9,167.9 L 272.4,176.0" style="fill:none;fill-rule:evenodd;stroke:#000000;stroke-width:2.0px;stroke-linecap:butt;stroke-linejoin:miter;stroke-opacity:1"/>
<path class="atom-0" d="M 366.2 93.8 Q 366.2 93.8, 366.5 94.0 Q 366.7 94.1, 367.0 94.1 Q 367.3 94.2, 367.6 94.2 Q 368.1 94.2, 368.4 94.0 Q 368.7 93.7, 368.7 93.2 Q 368.7 92.9, 368.6 92.8 Q 368.4 92.6, 368.2 92.5 Q 368.0 92.4, 367.6 92.2 Q 367.1 92.1, 366.8 92.0 Q 366.5 91.8, 366.3 91.5 Q 366.1 91.2, 366.1 90.7 Q 366.1 90.0, 366.5 89.6 Q 367.0 89.2, 368.0 89.2 Q 368.6 89.2, 369.3 89.5 L 369.1 90.1 Q 368.5 89.8, 368.0 89.8 Q 367.4 89.8, 367.1 90.0 Q 366.8 90.2, 366.9 90.6 Q 366.9 90.9, 367.0 91.1 Q 367.2 91.3, 367.4 91.4 Q 367.6 91.5, 368.0 91.6 Q 368.5 91.8, 368.8 91.9 Q 369.1 92.1, 369.3 92.4 Q 369.5 92.7, 369.5 93.2 Q 369.5 94.0, 369.0 94.4 Q 368.5 94.8, 367.6 94.8 Q 367.1 94.8, 366.8 94.7 Q 366.4 94.6, 366.0 94.4 L 366.2 93.8 " fill="#CCCC00"/>
<path class="atom-1" d="M 354.4 75.6 Q 354.4 74.3, 355.1 73.5 Q 355.7 72.8, 356.9 72.8 Q 358.2 72.8, 358.8 73.5 Q 359.5 74.3, 359.5 75.6 Q 359.5 77.0, 358.8 77.7 Q 358.2 78.5, 356.9 78.5 Q 355.7 78.5, 355.1 77.7 Q 354.4 77.0, 354.4 75.6 M 356.9 77.9 Q 357.8 77.9, 358.2 77.3 Q 358.7 76.7, 358.7 75.6 Q 358.7 74.5, 358.2 74.0 Q 357.8 73.4, 356.9 73.4 Q 356.1 73.4, 355.6 74.0 Q 355.2 74.5, 355.2 75.6 Q 355.2 76.7, 355.6 77.3 Q 356.1 77.9, 356.9 77.9 " fill="#FF0000"/>
<path class="atom-2" d="M 346.9 98.8 Q 346.9 97.5, 347.5 96.7 Q 348.2 96.0, 349.4 96.0 Q 350.6 96.0, 351.3 96.7 Q 351.9 97.5, 351.9 98.8 Q 351.9 100.2, 351.3 100.9 Q 350.6 101.7, 349.4 101.7 Q 348.2 101.7, 347.5 100.9 Q 346.9 100.2, 346.9 98.8 M 349.4 101.1 Q 350.2 101.1, 350.7 100.5 Q 351.2 99.9, 351.2 98.8 Q 351.2 97.7, 350.7 97.2 Q 350.2 96.6, 349.4 96.6 Q 348.6 96.6, 348.1 97.2 Q 347.6 97.7, 347.6 98.8 Q 347.6 99.9, 348.1 100.5 Q 348.6 101.1, 349.4 101.1 " fill="#FF0000"/>
<path class="atom-5" d="M 410.3 93.1 L 412.1 96.0 Q 412.3 96.3, 412.6 96.8 Q 412.9 97.4, 412.9 97.4 L 412.9 93.1 L 413.6 93.1 L 413.6 98.6 L 412.9 98.6 L 410.9 95.4 Q 410.7 95.0, 410.5 94.6 Q 410.2 94.2, 410.2 94.0 L 410.2 98.6 L 409.4 98.6 L 409.4 93.1 L 410.3 93.1 " fill="#0000FF"/>
<path class="atom-10" d="M 477.9 128.6 Q 477.9 127.2, 478.6 126.5 Q 479.3 125.7, 480.5 125.7 Q 481.7 125.7, 482.4 126.5 Q 483.0 127.2, 483.0 128.6 Q 483.0 129.9, 482.4 130.7 Q 481.7 131.4, 480.5 131.4 Q 479.3 131.4, 478.6 130.7 Q 477.9 129.9, 477.9 128.6 M 480.5 130.8 Q 481.3 130.8, 481.8 130.2 Q 482.3 129.7, 482.3 128.6 Q 482.3 127.5, 481.8 126.9 Q 481.3 126.4, 480.5 126.4 Q 479.6 126.4, 479.2 126.9 Q 478.7 127.5, 478.7 128.6 Q 478.7 129.7, 479.2 130.2 Q 479.6 130.8, 480.5 130.8 " fill="#FF0000"/>
<path class="atom-10" d="M 483.7 125.8 L 484.5 125.8 L 484.5 128.2 L 487.3 128.2 L 487.3 125.8 L 488.0 125.8 L 488.0 131.3 L 487.3 131.3 L 487.3 128.8 L 484.5 128.8 L 484.5 131.3 L 483.7 131.3 L 483.7 125.8 " fill="#FF0000"/>
<path class="atom-16" d="M 352.5 124.0 Q 352.5 124.0, 352.8 124.1 Q 353.0 124.3, 353.3 124.3 Q 353.6 124.4, 353.9 124.4 Q 354.4 124.4, 354.7 124.1 Q 355.0 123.9, 355.0 123.4 Q 355.0 123.1, 354.9 122.9 Q 354.7 122.7, 354.5 122.6 Q 354.3 122.5, 353.9 122.4 Q 353.4 122.3, 353.1 122.1 Q 352.8 122.0, 352.6 121.7 Q 352.4 121.4, 352.4 120.9 Q 352.4 120.2, 352.8 119.8 Q 353.3 119.3, 354.3 119.3 Q 354.9 119.3, 355.6 119.6 L 355.4 120.3 Q 354.8 120.0, 354.3 120.0 Q 353.7 120.0, 353.4 120.2 Q 353.1 120.4, 353.1 120.8 Q 353.1 121.1, 353.3 121.3 Q 353.5 121.5, 353.7 121.6 Q 353.9 121.7, 354.3 121.8 Q 354.8 121.9, 355.1 122.1 Q 355.4 122.3, 355.6 122.6 Q 355.8 122.9, 355.8 123.4 Q 355.8 124.2, 355.3 124.6 Q 354.8 125.0, 353.9 125.0 Q 353.4 125.0, 353.1 124.9 Q 352.7 124.8, 352.2 124.6 L 352.5 124.0 " fill="#CCCC00"/>
<path class="atom-16" d="M 356.3 120.3 L 357.2 120.3 L 357.2 119.2 L 357.7 119.2 L 357.7 120.3 L 358.7 120.3 L 358.7 120.6 L 357.7 120.6 L 357.7 121.7 L 357.2 121.7 L 357.2 120.6 L 356.3 120.6 L 356.3 120.3 " fill="#CCCC00"/>
<path class="atom-23" d="M 261.4 153.7 L 262.1 153.7 L 262.1 156.1 L 264.9 156.1 L 264.9 153.7 L 265.7 153.7 L 265.7 159.3 L 264.9 159.3 L 264.9 156.7 L 262.1 156.7 L 262.1 159.3 L 261.4 159.3 L 261.4 153.7 " fill="#0000FF"/>
<path class="atom-23" d="M 266.0 159.1 Q 266.1 158.7, 266.4 158.5 Q 266.7 158.3, 267.2 158.3 Q 267.7 158.3, 268.1 158.6 Q 268.4 158.9, 268.4 159.5 Q 268.4 160.0, 268.0 160.5 Q 267.6 161.0, 266.7 161.6 L 268.4 161.6 L 268.4 162.0 L 266.0 162.0 L 266.0 161.7 Q 266.6 161.2, 267.0 160.9 Q 267.5 160.5, 267.6 160.2 Q 267.8 159.8, 267.8 159.5 Q 267.8 159.2, 267.7 159.0 Q 267.5 158.8, 267.2 158.8 Q 266.9 158.8, 266.7 158.9 Q 266.5 159.0, 266.4 159.3 L 266.0 159.1 " fill="#0000FF"/>
<path class="atom-23" d="M 270.0 153.7 L 271.8 156.7 Q 271.9 157.0, 272.2 157.5 Q 272.5 158.0, 272.5 158.0 L 272.5 153.7 L 273.3 153.7 L 273.3 159.3 L 272.5 159.3 L 270.6 156.1 Q 270.3 155.7, 270.1 155.3 Q 269.9 154.8, 269.8 154.7 L 269.8 159.3 L 269.1 159.3 L 269.1 153.7 L 270.0 153.7 " fill="#0000FF"/>
<path class="atom-23" d="M 273.7 154.7 L 274.7 154.7 L 274.7 153.7 L 275.2 153.7 L 275.2 154.7 L 276.2 154.7 L 276.2 155.1 L 275.2 155.1 L 275.2 156.1 L 274.7 156.1 L 274.7 155.1 L 273.7 155.1 L 273.7 154.7 " fill="#0000FF"/>
<path d="M 286.7,124.4 L 286.7,124.4 L 286.7,124.3 L 286.7,124.3 L 286.7,124.3 L 286.7,124.2 L 286.7,124.2 L 286.7,124.2 L 286.6,124.2 L 286.6,124.1 L 286.6,124.1 L 286.6,124.1 L 286.5,124.1 L 286.5,124.1 L 286.5,124.0 L 286.4,124.0 L 286.4,124.0 L 286.4,124.0 L 286.3,124.0 L 286.3,124.0 L 286.3,124.0 L 286.2,124.0 L 286.2,124.0 L 286.2,124.1 L 286.2,124.1 L 286.1,124.1 L 286.1,124.1 L 286.1,124.1 L 286.0,124.2 L 286.0,124.2 L 286.0,124.2 L 286.0,124.2 L 286.0,124.3 L 286.0,124.3 L 286.0,124.3 L 285.9,124.4 L 285.9,124.4 L 285.9,124.4 L 285.9,124.5 L 286.0,124.5 L 286.0,124.5 L 286.0,124.6 L 286.0,124.6 L 286.0,124.6 L 286.0,124.6 L 286.0,124.7 L 286.1,124.7 L 286.1,124.7 L 286.1,124.7 L 286.2,124.8 L 286.2,124.8 L 286.2,124.8 L 286.2,124.8 L 286.3,124.8 L 286.3,124.8 L 286.3,124.8 L 286.4,124.8 L 286.4,124.8 L 286.4,124.8 L 286.5,124.8 L 286.5,124.8 L 286.5,124.7 L 286.6,124.7 L 286.6,124.7 L 286.6,124.7 L 286.6,124.7 L 286.7,124.6 L 286.7,124.6 L 286.7,124.6 L 286.7,124.5 L 286.7,124.5 L 286.7,124.5 L 286.7,124.4 L 286.7,124.4 L 286.3,124.4 Z" style="fill:#000000;fill-rule:evenodd;fill-opacity:1;stroke:#000000;stroke-width:0.0px;stroke-linecap:butt;stroke-linejoin:miter;stroke-opacity:1;"/>
<path d="M 290.3,145.7 L 290.3,145.7 L 290.2,145.6 L 290.2,145.6 L 290.2,145.6 L 290.2,145.6 L 290.2,145.5 L 290.2,145.5 L 290.2,145.5 L 290.1,145.4 L 290.1,145.4 L 290.1,145.4 L 290.1,145.4 L 290.0,145.4 L 290.0,145.3 L 290.0,145.3 L 289.9,145.3 L 289.9,145.3 L 289.9,145.3 L 289.8,145.3 L 289.8,145.3 L 289.8,145.3 L 289.7,145.3 L 289.7,145.4 L 289.7,145.4 L 289.6,145.4 L 289.6,145.4 L 289.6,145.4 L 289.6,145.5 L 289.5,145.5 L 289.5,145.5 L 289.5,145.5 L 289.5,145.6 L 289.5,145.6 L 289.5,145.6 L 289.5,145.7 L 289.5,145.7 L 289.5,145.7 L 289.5,145.8 L 289.5,145.8 L 289.5,145.8 L 289.5,145.9 L 289.5,145.9 L 289.5,145.9 L 289.5,145.9 L 289.6,146.0 L 289.6,146.0 L 289.6,146.0 L 289.6,146.0 L 289.7,146.1 L 289.7,146.1 L 289.7,146.1 L 289.8,146.1 L 289.8,146.1 L 289.8,146.1 L 289.9,146.1 L 289.9,146.1 L 289.9,146.1 L 290.0,146.1 L 290.0,146.1 L 290.0,146.1 L 290.1,146.1 L 290.1,146.0 L 290.1,146.0 L 290.1,146.0 L 290.2,146.0 L 290.2,145.9 L 290.2,145.9 L 290.2,145.9 L 290.2,145.8 L 290.2,145.8 L 290.2,145.8 L 290.3,145.7 L 290.3,145.7 L 289.9,145.7 Z" style="fill:#000000;fill-rule:evenodd;fill-opacity:1;stroke:#000000;stroke-width:0.0px;stroke-linecap:butt;stroke-linejoin:miter;stroke-opacity:1;"/>
<path d="M 275.1,175.3 L 275.1,175.2 L 275.1,175.2 L 275.1,175.2 L 275.1,175.1 L 275.1,175.1 L 275.0,175.1 L 275.0,175.0 L 275.0,175.0 L 275.0,175.0 L 275.0,175.0 L 274.9,174.9 L 274.9,174.9 L 274.9,174.9 L 274.8,174.9 L 274.8,174.9 L 274.8,174.9 L 274.7,174.9 L 274.7,174.9 L 274.7,174.9 L 274.6,174.9 L 274.6,174.9 L 274.6,174.9 L 274.5,174.9 L 274.5,174.9 L 274.5,174.9 L 274.5,174.9 L 274.4,175.0 L 274.4,175.0 L 274.4,175.0 L 274.4,175.0 L 274.4,175.1 L 274.3,175.1 L 274.3,175.1 L 274.3,175.2 L 274.3,175.2 L 274.3,175.2 L 274.3,175.3 L 274.3,175.3 L 274.3,175.3 L 274.3,175.4 L 274.3,175.4 L 274.4,175.4 L 274.4,175.5 L 274.4,175.5 L 274.4,175.5 L 274.4,175.5 L 274.5,175.6 L 274.5,175.6 L 274.5,175.6 L 274.5,175.6 L 274.6,175.6 L 274.6,175.6 L 274.6,175.6 L 274.7,175.6 L 274.7,175.6 L 274.7,175.6 L 274.8,175.6 L 274.8,175.6 L 274.8,175.6 L 274.9,175.6 L 274.9,175.6 L 274.9,175.6 L 275.0,175.6 L 275.0,175.5 L 275.0,175.5 L 275.0,175.5 L 275.0,175.5 L 275.1,175.4 L 275.1,175.4 L 275.1,175.4 L 275.1,175.3 L 275.1,175.3 L 275.1,175.3 L 274.7,175.3 Z" style="fill:#000000;fill-rule:evenodd;fill-opacity:1;stroke:#000000;stroke-width:0.0px;stroke-linecap:butt;stroke-linejoin:miter;stroke-opacity:1;"/>
<path d="M 275.1,176.8 L 275.1,176.8 L 275.1,176.8 L 275.1,176.7 L 275.1,176.7 L 275.1,176.7 L 275.0,176.6 L 275.0,176.6 L 275.0,176.6 L 275.0,176.5 L 275.0,176.5 L 274.9,176.5 L 274.9,176.5 L 274.9,176.5 L 274.8,176.5 L 274.8,176.4 L 274.8,176.4 L 274.7,176.4 L 274.7,176.4 L 274.7,176.4 L 274.6,176.4 L 274.6,176.4 L 274.6,176.5 L 274.5,176.5 L 274.5,176.5 L 274.5,176.5 L 274.5,176.5 L 274.4,176.5 L 274.4,176.6 L 274.4,176.6 L 274.4,176.6 L 274.4,176.6 L 274.3,176.7 L 274.3,176.7 L 274.3,176.7 L 274.3,176.8 L 274.3,176.8 L 274.3,176.8 L 274.3,176.9 L 274.3,176.9 L 274.3,176.9 L 274.3,177.0 L 274.4,177.0 L 274.4,177.0 L 274.4,177.1 L 274.4,177.1 L 274.4,177.1 L 274.5,177.1 L 274.5,177.2 L 274.5,177.2 L 274.5,177.2 L 274.6,177.2 L 274.6,177.2 L 274.6,177.2 L 274.7,177.2 L 274.7,177.2 L 274.7,177.2 L 274.8,177.2 L 274.8,177.2 L 274.8,177.2 L 274.9,177.2 L 274.9,177.2 L 274.9,177.1 L 275.0,177.1 L 275.0,177.1 L 275.0,177.1 L 275.0,177.0 L 275.0,177.0 L 275.1,177.0 L 275.1,177.0 L 275.1,176.9 L 275.1,176.9 L 275.1,176.9 L 275.1,176.8 L 274.7,176.8 Z" style="fill:#000000;fill-rule:evenodd;fill-opacity:1;stroke:#000000;stroke-width:0.0px;stroke-linecap:butt;stroke-linejoin:miter;stroke-opacity:1;"/>
<path class="bond-0 atom-0 atom-1" d="M 705.2,137.8 L 703.0,131.9" style="fill:none;fill-rule:evenodd;stroke:#33CCCC;stroke-width:2.0px;stroke-linecap:butt;stroke-linejoin:miter;stroke-opacity:1"/>
<path class="bond-0 atom-0 atom-1" d="M 703.0,131.9 L 700.9,125.9" style="fill:none;fill-rule:evenodd;stroke:#0000FF;stroke-width:2.0px;stroke-linecap:butt;stroke-linejoin:miter;stroke-opacity:1"/>
<path class="bond-1 atom-1 atom-2" d="M 697.1,122.2 L 688.8,120.7" style="fill:none;fill-rule:evenodd;stroke:#0000FF;stroke-width:2.0px;stroke-linecap:butt;stroke-linejoin:miter;stroke-opacity:1"/>
<path class="bond-1 atom-1 atom-2" d="M 688.8,120.7 L 680.5,119.2" style="fill:none;fill-rule:evenodd;stroke:#000000;stroke-width:2.0px;stroke-linecap:butt;stroke-linejoin:miter;stroke-opacity:1"/>
<path class="bond-2 atom-2 atom-3" d="M 679.0,118.0 L 674.0,123.8" style="fill:none;fill-rule:evenodd;stroke:#000000;stroke-width:2.0px;stroke-linecap:butt;stroke-linejoin:miter;stroke-opacity:1"/>
<path class="bond-2 atom-2 atom-3" d="M 674.0,123.8 L 669.1,129.6" style="fill:none;fill-rule:evenodd;stroke:#FF0000;stroke-width:2.0px;stroke-linecap:butt;stroke-linejoin:miter;stroke-opacity:1"/>
<path class="bond-2 atom-2 atom-3" d="M 682.0,120.5 L 677.0,126.3" style="fill:none;fill-rule:evenodd;stroke:#000000;stroke-width:2.0px;stroke-linecap:butt;stroke-linejoin:miter;stroke-opacity:1"/>
<path class="bond-2 atom-2 atom-3" d="M 677.0,126.3 L 672.1,132.1" style="fill:none;fill-rule:evenodd;stroke:#FF0000;stroke-width:2.0px;stroke-linecap:butt;stroke-linejoin:miter;stroke-opacity:1"/>
<path class="bond-3 atom-2 atom-4" d="M 680.5,119.2 L 673.8,100.8" style="fill:none;fill-rule:evenodd;stroke:#000000;stroke-width:2.0px;stroke-linecap:butt;stroke-linejoin:miter;stroke-opacity:1"/>
<path class="bond-4 atom-4 atom-5" d="M 673.8,100.8 L 665.5,99.3" style="fill:none;fill-rule:evenodd;stroke:#000000;stroke-width:2.0px;stroke-linecap:butt;stroke-linejoin:miter;stroke-opacity:1"/>
<path class="bond-4 atom-4 atom-5" d="M 665.5,99.3 L 657.2,97.8" style="fill:none;fill-rule:evenodd;stroke:#0000FF;stroke-width:2.0px;stroke-linecap:butt;stroke-linejoin:miter;stroke-opacity:1"/>
<path class="bond-4 atom-4 atom-5" d="M 670.6,104.2 L 664.8,103.2" style="fill:none;fill-rule:evenodd;stroke:#000000;stroke-width:2.0px;stroke-linecap:butt;stroke-linejoin:miter;stroke-opacity:1"/>
<path class="bond-4 atom-4 atom-5" d="M 664.8,103.2 L 659.0,102.1" style="fill:none;fill-rule:evenodd;stroke:#0000FF;stroke-width:2.0px;stroke-linecap:butt;stroke-linejoin:miter;stroke-opacity:1"/>
<path class="bond-5 atom-5 atom-6" d="M 652.0,100.4 L 644.4,109.3" style="fill:none;fill-rule:evenodd;stroke:#0000FF;stroke-width:2.0px;stroke-linecap:butt;stroke-linejoin:miter;stroke-opacity:1"/>
<path class="bond-6 atom-6 atom-7" d="M 639.3,111.8 L 631.0,110.3" style="fill:none;fill-rule:evenodd;stroke:#0000FF;stroke-width:2.0px;stroke-linecap:butt;stroke-linejoin:miter;stroke-opacity:1"/>
<path class="bond-6 atom-6 atom-7" d="M 631.0,110.3 L 622.7,108.8" style="fill:none;fill-rule:evenodd;stroke:#000000;stroke-width:2.0px;stroke-linecap:butt;stroke-linejoin:miter;stroke-opacity:1"/>
<path class="bond-6 atom-6 atom-7" d="M 637.5,107.5 L 631.7,106.5" style="fill:none;fill-rule:evenodd;stroke:#0000FF;stroke-width:2.0px;stroke-linecap:butt;stroke-linejoin:miter;stroke-opacity:1"/>
<path class="bond-6 atom-6 atom-7" d="M 631.7,106.5 L 625.9,105.4" style="fill:none;fill-rule:evenodd;stroke:#000000;stroke-width:2.0px;stroke-linecap:butt;stroke-linejoin:miter;stroke-opacity:1"/>
<path class="bond-7 atom-7 atom-8" d="M 622.7,108.8 L 614.1,91.2" style="fill:none;fill-rule:evenodd;stroke:#000000;stroke-width:2.0px;stroke-linecap:butt;stroke-linejoin:miter;stroke-opacity:1"/>
<path class="bond-13 atom-7 atom-14" d="M 622.7,108.8 L 608.5,122.4" style="fill:none;fill-rule:evenodd;stroke:#000000;stroke-width:2.0px;stroke-linecap:butt;stroke-linejoin:miter;stroke-opacity:1"/>
<path class="bond-8 atom-8 atom-9" d="M 614.1,91.2 L 594.8,93.9" style="fill:none;fill-rule:evenodd;stroke:#000000;stroke-width:2.0px;stroke-linecap:butt;stroke-linejoin:miter;stroke-opacity:1"/>
<path class="bond-9 atom-9 atom-10" d="M 594.8,93.9 L 591.3,113.1" style="fill:none;fill-rule:evenodd;stroke:#000000;stroke-width:2.0px;stroke-linecap:butt;stroke-linejoin:miter;stroke-opacity:1"/>
<path class="bond-10 atom-10 atom-11" d="M 591.3,113.1 L 585.2,116.1" style="fill:none;fill-rule:evenodd;stroke:#000000;stroke-width:2.0px;stroke-linecap:butt;stroke-linejoin:miter;stroke-opacity:1"/>
<path class="bond-10 atom-10 atom-11" d="M 585.2,116.1 L 579.1,119.0" style="fill:none;fill-rule:evenodd;stroke:#0000FF;stroke-width:2.0px;stroke-linecap:butt;stroke-linejoin:miter;stroke-opacity:1"/>
<path class="bond-17 atom-14 atom-10" d="M 608.5,122.4 L 591.3,113.1" style="fill:none;fill-rule:evenodd;stroke:#000000;stroke-width:2.0px;stroke-linecap:butt;stroke-linejoin:miter;stroke-opacity:1"/>
<path class="bond-11 atom-11 atom-12" d="M 571.1,119.9 L 565.4,116.0" style="fill:none;fill-rule:evenodd;stroke:#0000FF;stroke-width:2.0px;stroke-linecap:butt;stroke-linejoin:miter;stroke-opacity:1"/>
<path class="bond-11 atom-11 atom-12" d="M 565.4,116.0 L 559.7,112.1" style="fill:none;fill-rule:evenodd;stroke:#CCCC00;stroke-width:2.0px;stroke-linecap:butt;stroke-linejoin:miter;stroke-opacity:1"/>
<path class="bond-12 atom-12 atom-13" d="M 555.2,111.7 L 547.5,115.4" style="fill:none;fill-rule:evenodd;stroke:#CCCC00;stroke-width:2.0px;stroke-linecap:butt;stroke-linejoin:miter;stroke-opacity:1"/>
<path class="bond-12 atom-12 atom-13" d="M 547.5,115.4 L 539.8,119.2" style="fill:none;fill-rule:evenodd;stroke:#000000;stroke-width:2.0px;stroke-linecap:butt;stroke-linejoin:miter;stroke-opacity:1"/>
<path class="bond-14 atom-14 atom-15" d="M 608.5,122.4 L 609.6,130.4" style="fill:none;fill-rule:evenodd;stroke:#000000;stroke-width:2.0px;stroke-linecap:butt;stroke-linejoin:miter;stroke-opacity:1"/>
<path class="bond-14 atom-14 atom-15" d="M 609.6,130.4 L 610.7,138.5" style="fill:none;fill-rule:evenodd;stroke:#0000FF;stroke-width:2.0px;stroke-linecap:butt;stroke-linejoin:miter;stroke-opacity:1"/>
<path class="bond-15 atom-15 atom-16" d="M 608.6,143.8 L 602.2,148.8" style="fill:none;fill-rule:evenodd;stroke:#0000FF;stroke-width:2.0px;stroke-linecap:butt;stroke-linejoin:miter;stroke-opacity:1"/>
<path class="bond-15 atom-15 atom-16" d="M 602.2,148.8 L 595.7,153.8" style="fill:none;fill-rule:evenodd;stroke:#000000;stroke-width:2.0px;stroke-linecap:butt;stroke-linejoin:miter;stroke-opacity:1"/>
<path class="bond-16 atom-16 atom-17" d="M 595.7,153.8 L 598.4,173.2" style="fill:none;fill-rule:evenodd;stroke:#000000;stroke-width:2.0px;stroke-linecap:butt;stroke-linejoin:miter;stroke-opacity:1"/>
<path class="atom-0" d="M 704.7 138.3 L 708.0 138.3 L 708.0 139.0 L 705.5 139.0 L 705.5 140.7 L 707.7 140.7 L 707.7 141.3 L 705.5 141.3 L 705.5 143.9 L 704.7 143.9 L 704.7 138.3 " fill="#33CCCC"/>
<path class="atom-1" d="M 698.5 119.9 L 700.3 122.9 Q 700.5 123.1, 700.8 123.7 Q 701.1 124.2, 701.1 124.2 L 701.1 119.9 L 701.8 119.9 L 701.8 125.5 L 701.1 125.5 L 699.1 122.2 Q 698.9 121.9, 698.7 121.4 Q 698.4 121.0, 698.3 120.9 L 698.3 125.5 L 697.6 125.5 L 697.6 119.9 L 698.5 119.9 " fill="#0000FF"/>
<path class="atom-1" d="M 702.5 119.9 L 703.2 119.9 L 703.2 122.3 L 706.1 122.3 L 706.1 119.9 L 706.8 119.9 L 706.8 125.5 L 706.1 125.5 L 706.1 122.9 L 703.2 122.9 L 703.2 125.5 L 702.5 125.5 L 702.5 119.9 " fill="#0000FF"/>
<path class="atom-3" d="M 665.3 134.2 Q 665.3 132.9, 665.9 132.1 Q 666.6 131.4, 667.8 131.4 Q 669.1 131.4, 669.7 132.1 Q 670.4 132.9, 670.4 134.2 Q 670.4 135.5, 669.7 136.3 Q 669.0 137.1, 667.8 137.1 Q 666.6 137.1, 665.9 136.3 Q 665.3 135.5, 665.3 134.2 M 667.8 136.4 Q 668.7 136.4, 669.1 135.9 Q 669.6 135.3, 669.6 134.2 Q 669.6 133.1, 669.1 132.6 Q 668.7 132.0, 667.8 132.0 Q 667.0 132.0, 666.5 132.5 Q 666.1 133.1, 666.1 134.2 Q 666.1 135.3, 666.5 135.9 Q 667.0 136.4, 667.8 136.4 " fill="#FF0000"/>
<path class="atom-5" d="M 653.3 94.6 L 655.2 97.5 Q 655.3 97.8, 655.6 98.3 Q 655.9 98.8, 655.9 98.9 L 655.9 94.6 L 656.7 94.6 L 656.7 100.1 L 655.9 100.1 L 654.0 96.9 Q 653.7 96.5, 653.5 96.1 Q 653.3 95.7, 653.2 95.5 L 653.2 100.1 L 652.5 100.1 L 652.5 94.6 L 653.3 94.6 " fill="#0000FF"/>
<path class="atom-6" d="M 640.7 109.5 L 642.5 112.5 Q 642.7 112.7, 643.0 113.3 Q 643.3 113.8, 643.3 113.8 L 643.3 109.5 L 644.0 109.5 L 644.0 115.1 L 643.3 115.1 L 641.3 111.8 Q 641.1 111.5, 640.9 111.0 Q 640.6 110.6, 640.5 110.5 L 640.5 115.1 L 639.8 115.1 L 639.8 109.5 L 640.7 109.5 " fill="#0000FF"/>
<path class="atom-11" d="M 572.4 118.9 L 574.3 121.8 Q 574.4 122.1, 574.7 122.6 Q 575.0 123.1, 575.0 123.2 L 575.0 118.9 L 575.8 118.9 L 575.8 124.4 L 575.0 124.4 L 573.1 121.2 Q 572.8 120.8, 572.6 120.4 Q 572.4 120.0, 572.3 119.8 L 572.3 124.4 L 571.6 124.4 L 571.6 118.9 L 572.4 118.9 " fill="#0000FF"/>
<path class="atom-11" d="M 576.2 119.9 L 577.2 119.9 L 577.2 118.8 L 577.6 118.8 L 577.6 119.9 L 578.6 119.9 L 578.6 120.2 L 577.6 120.2 L 577.6 121.3 L 577.2 121.3 L 577.2 120.2 L 576.2 120.2 L 576.2 119.9 " fill="#0000FF"/>
<path class="atom-12" d="M 555.9 112.5 Q 556.0 112.6, 556.2 112.7 Q 556.5 112.8, 556.8 112.8 Q 557.1 112.9, 557.3 112.9 Q 557.9 112.9, 558.2 112.7 Q 558.5 112.4, 558.5 112.0 Q 558.5 111.7, 558.3 111.5 Q 558.2 111.3, 557.9 111.2 Q 557.7 111.1, 557.3 111.0 Q 556.8 110.8, 556.5 110.7 Q 556.2 110.5, 556.0 110.2 Q 555.8 109.9, 555.8 109.4 Q 555.8 108.7, 556.3 108.3 Q 556.8 107.9, 557.7 107.9 Q 558.3 107.9, 559.1 108.2 L 558.9 108.8 Q 558.2 108.5, 557.7 108.5 Q 557.2 108.5, 556.9 108.7 Q 556.6 109.0, 556.6 109.3 Q 556.6 109.6, 556.7 109.8 Q 556.9 110.0, 557.1 110.1 Q 557.3 110.2, 557.7 110.3 Q 558.2 110.5, 558.5 110.6 Q 558.8 110.8, 559.0 111.1 Q 559.3 111.4, 559.3 112.0 Q 559.3 112.7, 558.7 113.1 Q 558.2 113.5, 557.4 113.5 Q 556.9 113.5, 556.5 113.4 Q 556.1 113.3, 555.7 113.2 L 555.9 112.5 " fill="#CCCC00"/>
<path class="atom-15" d="M 610.0 139.0 L 611.8 141.9 Q 612.0 142.2, 612.3 142.7 Q 612.5 143.3, 612.6 143.3 L 612.6 139.0 L 613.3 139.0 L 613.3 144.5 L 612.5 144.5 L 610.6 141.3 Q 610.4 140.9, 610.1 140.5 Q 609.9 140.1, 609.8 140.0 L 609.8 144.5 L 609.1 144.5 L 609.1 139.0 L 610.0 139.0 " fill="#0000FF"/>
<path class="atom-15" d="M 614.0 139.0 L 614.7 139.0 L 614.7 141.3 L 617.5 141.3 L 617.5 139.0 L 618.3 139.0 L 618.3 144.5 L 617.5 144.5 L 617.5 142.0 L 614.7 142.0 L 614.7 144.5 L 614.0 144.5 L 614.0 139.0 " fill="#0000FF"/>
<path d="M 574.8,125.0 L 574.8,125.0 L 574.8,124.9 L 574.8,124.9 L 574.8,124.9 L 574.8,124.8 L 574.8,124.8 L 574.8,124.8 L 574.7,124.7 L 574.7,124.7 L 574.7,124.7 L 574.7,124.7 L 574.6,124.7 L 574.6,124.6 L 574.6,124.6 L 574.6,124.6 L 574.5,124.6 L 574.5,124.6 L 574.5,124.6 L 574.4,124.6 L 574.4,124.6 L 574.4,124.6 L 574.3,124.6 L 574.3,124.6 L 574.3,124.7 L 574.2,124.7 L 574.2,124.7 L 574.2,124.7 L 574.2,124.7 L 574.1,124.8 L 574.1,124.8 L 574.1,124.8 L 574.1,124.8 L 574.1,124.9 L 574.1,124.9 L 574.1,124.9 L 574.1,125.0 L 574.1,125.0 L 574.1,125.0 L 574.1,125.1 L 574.1,125.1 L 574.1,125.1 L 574.1,125.2 L 574.1,125.2 L 574.1,125.2 L 574.2,125.3 L 574.2,125.3 L 574.2,125.3 L 574.2,125.3 L 574.3,125.3 L 574.3,125.4 L 574.3,125.4 L 574.4,125.4 L 574.4,125.4 L 574.4,125.4 L 574.5,125.4 L 574.5,125.4 L 574.5,125.4 L 574.6,125.4 L 574.6,125.4 L 574.6,125.3 L 574.6,125.3 L 574.7,125.3 L 574.7,125.3 L 574.7,125.3 L 574.7,125.2 L 574.8,125.2 L 574.8,125.2 L 574.8,125.2 L 574.8,125.1 L 574.8,125.1 L 574.8,125.1 L 574.8,125.0 L 574.8,125.0 L 574.4,125.0 Z" style="fill:#000000;fill-rule:evenodd;fill-opacity:1;stroke:#000000;stroke-width:0.0px;stroke-linecap:butt;stroke-linejoin:miter;stroke-opacity:1;"/>
<path d="M 573.3,125.0 L 573.3,125.0 L 573.3,124.9 L 573.3,124.9 L 573.2,124.9 L 573.2,124.8 L 573.2,124.8 L 573.2,124.8 L 573.2,124.7 L 573.2,124.7 L 573.1,124.7 L 573.1,124.7 L 573.1,124.7 L 573.1,124.6 L 573.0,124.6 L 573.0,124.6 L 573.0,124.6 L 572.9,124.6 L 572.9,124.6 L 572.9,124.6 L 572.8,124.6 L 572.8,124.6 L 572.8,124.6 L 572.7,124.6 L 572.7,124.7 L 572.7,124.7 L 572.6,124.7 L 572.6,124.7 L 572.6,124.7 L 572.6,124.8 L 572.5,124.8 L 572.5,124.8 L 572.5,124.8 L 572.5,124.9 L 572.5,124.9 L 572.5,124.9 L 572.5,125.0 L 572.5,125.0 L 572.5,125.0 L 572.5,125.1 L 572.5,125.1 L 572.5,125.1 L 572.5,125.2 L 572.5,125.2 L 572.6,125.2 L 572.6,125.3 L 572.6,125.3 L 572.6,125.3 L 572.7,125.3 L 572.7,125.3 L 572.7,125.4 L 572.8,125.4 L 572.8,125.4 L 572.8,125.4 L 572.9,125.4 L 572.9,125.4 L 572.9,125.4 L 573.0,125.4 L 573.0,125.4 L 573.0,125.4 L 573.1,125.3 L 573.1,125.3 L 573.1,125.3 L 573.1,125.3 L 573.2,125.3 L 573.2,125.2 L 573.2,125.2 L 573.2,125.2 L 573.2,125.2 L 573.2,125.1 L 573.3,125.1 L 573.3,125.1 L 573.3,125.0 L 573.3,125.0 L 572.9,125.0 Z" style="fill:#000000;fill-rule:evenodd;fill-opacity:1;stroke:#000000;stroke-width:0.0px;stroke-linecap:butt;stroke-linejoin:miter;stroke-opacity:1;"/>
<path class="bond-0 atom-0 atom-1" d="M 191.2,361.9 L 186.7,365.9" style="fill:none;fill-rule:evenodd;stroke:#000000;stroke-width:2.0px;stroke-linecap:butt;stroke-linejoin:miter;stroke-opacity:1"/>
<path class="bond-0 atom-0 atom-1" d="M 186.7,365.9 L 182.2,370.0" style="fill:none;fill-rule:evenodd;stroke:#FF0000;stroke-width:2.0px;stroke-linecap:butt;stroke-linejoin:miter;stroke-opacity:1"/>
<path class="bond-1 atom-1 atom-2" d="M 176.2,371.6 L 168.4,369.1" style="fill:none;fill-rule:evenodd;stroke:#FF0000;stroke-width:2.0px;stroke-linecap:butt;stroke-linejoin:miter;stroke-opacity:1"/>
<path class="bond-1 atom-1 atom-2" d="M 168.4,369.1 L 160.6,366.5" style="fill:none;fill-rule:evenodd;stroke:#000000;stroke-width:2.0px;stroke-linecap:butt;stroke-linejoin:miter;stroke-opacity:1"/>
<path class="bond-2 atom-2 atom-3" d="M 160.6,366.5 L 146.1,379.6" style="fill:none;fill-rule:evenodd;stroke:#000000;stroke-width:2.0px;stroke-linecap:butt;stroke-linejoin:miter;stroke-opacity:1"/>
<path class="bond-2 atom-2 atom-3" d="M 161.1,371.4 L 150.9,380.6" style="fill:none;fill-rule:evenodd;stroke:#000000;stroke-width:2.0px;stroke-linecap:butt;stroke-linejoin:miter;stroke-opacity:1"/>
<path class="bond-3 atom-3 atom-4" d="M 146.1,379.6 L 127.5,373.6" style="fill:none;fill-rule:evenodd;stroke:#000000;stroke-width:2.0px;stroke-linecap:butt;stroke-linejoin:miter;stroke-opacity:1"/>
<path class="bond-4 atom-4 atom-5" d="M 127.5,373.6 L 112.9,386.6" style="fill:none;fill-rule:evenodd;stroke:#000000;stroke-width:2.0px;stroke-linecap:butt;stroke-linejoin:miter;stroke-opacity:1"/>
<path class="bond-4 atom-4 atom-5" d="M 127.9,378.4 L 117.7,387.6" style="fill:none;fill-rule:evenodd;stroke:#000000;stroke-width:2.0px;stroke-linecap:butt;stroke-linejoin:miter;stroke-opacity:1"/>
<path class="bond-5 atom-5 atom-6" d="M 112.9,386.6 L 114.6,394.6" style="fill:none;fill-rule:evenodd;stroke:#000000;stroke-width:2.0px;stroke-linecap:butt;stroke-linejoin:miter;stroke-opacity:1"/>
<path class="bond-5 atom-5 atom-6" d="M 114.6,394.6 L 116.3,402.5" style="fill:none;fill-rule:evenodd;stroke:#33CCCC;stroke-width:2.0px;stroke-linecap:butt;stroke-linejoin:miter;stroke-opacity:1"/>
<path class="bond-6 atom-5 atom-7" d="M 112.9,386.6 L 94.3,380.6" style="fill:none;fill-rule:evenodd;stroke:#000000;stroke-width:2.0px;stroke-linecap:butt;stroke-linejoin:miter;stroke-opacity:1"/>
<path class="bond-7 atom-7 atom-8" d="M 94.3,380.6 L 79.7,393.7" style="fill:none;fill-rule:evenodd;stroke:#000000;stroke-width:2.0px;stroke-linecap:butt;stroke-linejoin:miter;stroke-opacity:1"/>
<path class="bond-8 atom-7 atom-9" d="M 96.2,380.2 L 92.9,364.4" style="fill:none;fill-rule:evenodd;stroke:#000000;stroke-width:2.0px;stroke-linecap:butt;stroke-linejoin:miter;stroke-opacity:1"/>
<path class="bond-8 atom-7 atom-9" d="M 92.4,381.0 L 89.0,365.2" style="fill:none;fill-rule:evenodd;stroke:#000000;stroke-width:2.0px;stroke-linecap:butt;stroke-linejoin:miter;stroke-opacity:1"/>
<path class="bond-9 atom-9 atom-10" d="M 91.5,357.7 L 90.1,351.4" style="fill:none;fill-rule:evenodd;stroke:#000000;stroke-width:2.0px;stroke-linecap:butt;stroke-linejoin:miter;stroke-opacity:1"/>
<path class="bond-9 atom-9 atom-10" d="M 90.1,351.4 L 88.8,345.0" style="fill:none;fill-rule:evenodd;stroke:#FF7F00;stroke-width:2.0px;stroke-linecap:butt;stroke-linejoin:miter;stroke-opacity:1"/>
<path class="bond-9 atom-9 atom-10" d="M 87.6,358.5 L 86.3,352.2" style="fill:none;fill-rule:evenodd;stroke:#000000;stroke-width:2.0px;stroke-linecap:butt;stroke-linejoin:miter;stroke-opacity:1"/>
<path class="bond-9 atom-9 atom-10" d="M 86.3,352.2 L 84.9,345.8" style="fill:none;fill-rule:evenodd;stroke:#FF7F00;stroke-width:2.0px;stroke-linecap:butt;stroke-linejoin:miter;stroke-opacity:1"/>
<path class="bond-10 atom-10 atom-11" d="M 88.4,340.2 L 93.1,336.0" style="fill:none;fill-rule:evenodd;stroke:#FF7F00;stroke-width:2.0px;stroke-linecap:butt;stroke-linejoin:miter;stroke-opacity:1"/>
<path class="bond-10 atom-10 atom-11" d="M 93.1,336.0 L 97.8,331.8" style="fill:none;fill-rule:evenodd;stroke:#FF0000;stroke-width:2.0px;stroke-linecap:butt;stroke-linejoin:miter;stroke-opacity:1"/>
<path class="atom-0" d="M 191.7 359.6 Q 191.7 358.2, 192.3 357.5 Q 193.0 356.7, 194.2 356.7 Q 195.3 356.7, 195.9 357.5 L 195.4 358.0 Q 195.0 357.4, 194.2 357.4 Q 193.3 357.4, 192.9 357.9 Q 192.5 358.5, 192.5 359.6 Q 192.5 360.6, 192.9 361.2 Q 193.4 361.8, 194.3 361.8 Q 194.9 361.8, 195.6 361.4 L 195.8 362.0 Q 195.5 362.2, 195.1 362.3 Q 194.6 362.4, 194.2 362.4 Q 193.0 362.4, 192.3 361.7 Q 191.7 360.9, 191.7 359.6 " fill="#000000"/>
<path class="atom-0" d="M 196.2 357.6 L 198.1 357.6 L 198.1 358.1 L 196.2 358.1 L 196.2 357.6 " fill="#000000"/>
<path class="atom-1" d="M 176.7 372.6 Q 176.7 371.3, 177.4 370.6 Q 178.0 369.8, 179.2 369.8 Q 180.5 369.8, 181.1 370.6 Q 181.8 371.3, 181.8 372.6 Q 181.8 374.0, 181.1 374.7 Q 180.5 375.5, 179.2 375.5 Q 178.0 375.5, 177.4 374.7 Q 176.7 374.0, 176.7 372.6 M 179.2 374.9 Q 180.1 374.9, 180.5 374.3 Q 181.0 373.7, 181.0 372.6 Q 181.0 371.5, 180.5 371.0 Q 180.1 370.4, 179.2 370.4 Q 178.4 370.4, 177.9 371.0 Q 177.5 371.5, 177.5 372.6 Q 177.5 373.7, 177.9 374.3 Q 178.4 374.9, 179.2 374.9 " fill="#FF0000"/>
<path class="atom-6" d="M 115.3 403.0 L 118.6 403.0 L 118.6 403.7 L 116.0 403.7 L 116.0 405.3 L 118.3 405.3 L 118.3 406.0 L 116.0 406.0 L 116.0 408.6 L 115.3 408.6 L 115.3 403.0 " fill="#33CCCC"/>
<path class="atom-9" d="M 88.1 361.4 Q 88.1 360.1, 88.7 359.3 Q 89.4 358.6, 90.6 358.6 Q 91.8 358.6, 92.4 359.4 L 91.9 359.8 Q 91.4 359.3, 90.6 359.3 Q 89.8 359.3, 89.3 359.8 Q 88.9 360.4, 88.9 361.4 Q 88.9 362.5, 89.4 363.1 Q 89.8 363.7, 90.7 363.7 Q 91.3 363.7, 92.0 363.3 L 92.3 363.9 Q 92.0 364.1, 91.5 364.2 Q 91.1 364.3, 90.6 364.3 Q 89.4 364.3, 88.7 363.6 Q 88.1 362.8, 88.1 361.4 " fill="#000000"/>
<path class="atom-10" d="M 76.7 339.5 L 77.4 339.5 L 77.4 341.9 L 80.3 341.9 L 80.3 339.5 L 81.0 339.5 L 81.0 345.0 L 80.3 345.0 L 80.3 342.5 L 77.4 342.5 L 77.4 345.0 L 76.7 345.0 L 76.7 339.5 " fill="#FF7F00"/>
<path class="atom-10" d="M 81.3 344.8 Q 81.4 344.5, 81.8 344.3 Q 82.1 344.1, 82.5 344.1 Q 83.1 344.1, 83.4 344.4 Q 83.7 344.7, 83.7 345.2 Q 83.7 345.8, 83.3 346.3 Q 82.9 346.8, 82.1 347.4 L 83.8 347.4 L 83.8 347.8 L 81.3 347.8 L 81.3 347.5 Q 82.0 347.0, 82.4 346.6 Q 82.8 346.3, 83.0 345.9 Q 83.2 345.6, 83.2 345.3 Q 83.2 344.9, 83.0 344.7 Q 82.8 344.5, 82.5 344.5 Q 82.2 344.5, 82.0 344.6 Q 81.8 344.8, 81.7 345.0 L 81.3 344.8 " fill="#FF7F00"/>
<path class="atom-10" d="M 86.1 339.5 Q 87.0 339.5, 87.5 339.9 Q 88.0 340.3, 88.0 341.1 Q 88.0 341.9, 87.5 342.3 Q 87.0 342.8, 86.1 342.8 L 85.2 342.8 L 85.2 345.0 L 84.4 345.0 L 84.4 339.5 L 86.1 339.5 M 86.1 342.1 Q 86.6 342.1, 86.9 341.9 Q 87.2 341.6, 87.2 341.1 Q 87.2 340.6, 86.9 340.4 Q 86.6 340.1, 86.1 340.1 L 85.2 340.1 L 85.2 342.1 L 86.1 342.1 " fill="#FF7F00"/>
<path class="atom-11" d="M 98.2 329.2 Q 98.2 327.9, 98.9 327.1 Q 99.5 326.4, 100.8 326.4 Q 102.0 326.4, 102.6 327.1 Q 103.3 327.9, 103.3 329.2 Q 103.3 330.5, 102.6 331.3 Q 102.0 332.1, 100.8 332.1 Q 99.5 332.1, 98.9 331.3 Q 98.2 330.6, 98.2 329.2 M 100.8 331.4 Q 101.6 331.4, 102.1 330.9 Q 102.5 330.3, 102.5 329.2 Q 102.5 328.1, 102.1 327.6 Q 101.6 327.0, 100.8 327.0 Q 99.9 327.0, 99.4 327.6 Q 99.0 328.1, 99.0 329.2 Q 99.0 330.3, 99.4 330.9 Q 99.9 331.4, 100.8 331.4 " fill="#FF0000"/>
<path class="atom-11" d="M 103.6 327.3 L 105.5 327.3 L 105.5 327.7 L 103.6 327.7 L 103.6 327.3 " fill="#FF0000"/>
<path class="bond-0 atom-0 atom-1" d="M 360.4,372.9 L 366.0,372.9" style="fill:none;fill-rule:evenodd;stroke:#FF0000;stroke-width:2.0px;stroke-linecap:butt;stroke-linejoin:miter;stroke-opacity:1"/>
<path class="bond-0 atom-0 atom-1" d="M 366.0,372.9 L 371.5,372.9" style="fill:none;fill-rule:evenodd;stroke:#000000;stroke-width:2.0px;stroke-linecap:butt;stroke-linejoin:miter;stroke-opacity:1"/>
<path class="bond-0 atom-0 atom-1" d="M 360.4,369.0 L 366.0,369.0" style="fill:none;fill-rule:evenodd;stroke:#FF0000;stroke-width:2.0px;stroke-linecap:butt;stroke-linejoin:miter;stroke-opacity:1"/>
<path class="bond-0 atom-0 atom-1" d="M 366.0,369.0 L 371.5,369.0" style="fill:none;fill-rule:evenodd;stroke:#000000;stroke-width:2.0px;stroke-linecap:butt;stroke-linejoin:miter;stroke-opacity:1"/>
<path class="bond-1 atom-1 atom-2" d="M 376.6,372.9 L 383.6,372.9" style="fill:none;fill-rule:evenodd;stroke:#000000;stroke-width:2.0px;stroke-linecap:butt;stroke-linejoin:miter;stroke-opacity:1"/>
<path class="bond-1 atom-1 atom-2" d="M 383.6,372.9 L 390.6,372.9" style="fill:none;fill-rule:evenodd;stroke:#FF0000;stroke-width:2.0px;stroke-linecap:butt;stroke-linejoin:miter;stroke-opacity:1"/>
<path class="bond-1 atom-1 atom-2" d="M 376.6,369.0 L 383.6,369.0" style="fill:none;fill-rule:evenodd;stroke:#000000;stroke-width:2.0px;stroke-linecap:butt;stroke-linejoin:miter;stroke-opacity:1"/>
<path class="bond-1 atom-1 atom-2" d="M 383.6,369.0 L 390.6,369.0" style="fill:none;fill-rule:evenodd;stroke:#FF0000;stroke-width:2.0px;stroke-linecap:butt;stroke-linejoin:miter;stroke-opacity:1"/>
<path class="atom-0" d="M 347.2 368.2 L 347.9 368.2 L 347.9 370.6 L 350.8 370.6 L 350.8 368.2 L 351.5 368.2 L 351.5 373.8 L 350.8 373.8 L 350.8 371.2 L 347.9 371.2 L 347.9 373.8 L 347.2 373.8 L 347.2 368.2 " fill="#FF0000"/>
<path class="atom-0" d="M 351.9 371.0 Q 351.9 369.6, 352.6 368.9 Q 353.2 368.1, 354.4 368.1 Q 355.7 368.1, 356.3 368.9 Q 357.0 369.6, 357.0 371.0 Q 357.0 372.3, 356.3 373.1 Q 355.7 373.8, 354.4 373.8 Q 353.2 373.8, 352.6 373.1 Q 351.9 372.3, 351.9 371.0 M 354.4 373.2 Q 355.3 373.2, 355.7 372.6 Q 356.2 372.1, 356.2 371.0 Q 356.2 369.9, 355.7 369.3 Q 355.3 368.8, 354.4 368.8 Q 353.6 368.8, 353.1 369.3 Q 352.7 369.9, 352.7 371.0 Q 352.7 372.1, 353.1 372.6 Q 353.6 373.2, 354.4 373.2 " fill="#FF0000"/>
<path class="atom-0" d="M 357.5 369.1 L 358.4 369.1 L 358.4 368.1 L 358.9 368.1 L 358.9 369.1 L 359.9 369.1 L 359.9 369.5 L 358.9 369.5 L 358.9 370.5 L 358.4 370.5 L 358.4 369.5 L 357.5 369.5 L 357.5 369.1 " fill="#FF0000"/>
<path class="atom-1" d="M 371.9 371.0 Q 371.9 369.6, 372.5 368.9 Q 373.2 368.1, 374.4 368.1 Q 375.5 368.1, 376.2 369.0 L 375.6 369.4 Q 375.2 368.8, 374.4 368.8 Q 373.6 368.8, 373.1 369.4 Q 372.7 369.9, 372.7 371.0 Q 372.7 372.1, 373.1 372.6 Q 373.6 373.2, 374.5 373.2 Q 375.1 373.2, 375.8 372.8 L 376.0 373.4 Q 375.7 373.6, 375.3 373.7 Q 374.9 373.8, 374.4 373.8 Q 373.2 373.8, 372.5 373.1 Q 371.9 372.3, 371.9 371.0 " fill="#000000"/>
<path class="atom-2" d="M 391.1 371.0 Q 391.1 369.6, 391.7 368.9 Q 392.4 368.1, 393.6 368.1 Q 394.8 368.1, 395.5 368.9 Q 396.1 369.6, 396.1 371.0 Q 396.1 372.3, 395.5 373.1 Q 394.8 373.8, 393.6 373.8 Q 392.4 373.8, 391.7 373.1 Q 391.1 372.3, 391.1 371.0 M 393.6 373.2 Q 394.4 373.2, 394.9 372.6 Q 395.4 372.1, 395.4 371.0 Q 395.4 369.9, 394.9 369.3 Q 394.4 368.8, 393.6 368.8 Q 392.8 368.8, 392.3 369.3 Q 391.8 369.9, 391.8 371.0 Q 391.8 372.1, 392.3 372.6 Q 392.8 373.2, 393.6 373.2 " fill="#FF0000"/>
<path class="bond-0 atom-0 atom-1" d="M 647.5,371.7 L 639.7,368.4" style="fill:none;fill-rule:evenodd;stroke:#7F4C19;stroke-width:2.0px;stroke-linecap:butt;stroke-linejoin:miter;stroke-opacity:1"/>
<path class="bond-0 atom-0 atom-1" d="M 639.7,368.4 L 631.8,365.1" style="fill:none;fill-rule:evenodd;stroke:#000000;stroke-width:2.0px;stroke-linecap:butt;stroke-linejoin:miter;stroke-opacity:1"/>
<path class="bond-1 atom-1 atom-2" d="M 631.8,365.1 L 616.2,376.8" style="fill:none;fill-rule:evenodd;stroke:#000000;stroke-width:2.0px;stroke-linecap:butt;stroke-linejoin:miter;stroke-opacity:1"/>
<path class="bond-2 atom-2 atom-3" d="M 617.0,375.0 L 609.5,371.8" style="fill:none;fill-rule:evenodd;stroke:#000000;stroke-width:2.0px;stroke-linecap:butt;stroke-linejoin:miter;stroke-opacity:1"/>
<path class="bond-2 atom-2 atom-3" d="M 609.5,371.8 L 602.0,368.7" style="fill:none;fill-rule:evenodd;stroke:#FF0000;stroke-width:2.0px;stroke-linecap:butt;stroke-linejoin:miter;stroke-opacity:1"/>
<path class="bond-2 atom-2 atom-3" d="M 615.4,378.6 L 607.9,375.4" style="fill:none;fill-rule:evenodd;stroke:#000000;stroke-width:2.0px;stroke-linecap:butt;stroke-linejoin:miter;stroke-opacity:1"/>
<path class="bond-2 atom-2 atom-3" d="M 607.9,375.4 L 600.5,372.3" style="fill:none;fill-rule:evenodd;stroke:#FF0000;stroke-width:2.0px;stroke-linecap:butt;stroke-linejoin:miter;stroke-opacity:1"/>
<path class="atom-0" d="M 650.7 372.6 Q 651.2 372.7, 651.5 373.1 Q 651.7 373.4, 651.7 373.9 Q 651.7 374.6, 651.2 375.1 Q 650.8 375.5, 649.8 375.5 L 648.0 375.5 L 648.0 370.0 L 649.6 370.0 Q 650.6 370.0, 651.0 370.3 Q 651.5 370.7, 651.5 371.4 Q 651.5 372.3, 650.7 372.6 M 648.7 370.6 L 648.7 372.3 L 649.6 372.3 Q 650.2 372.3, 650.4 372.1 Q 650.7 371.9, 650.7 371.4 Q 650.7 370.6, 649.6 370.6 L 648.7 370.6 M 649.8 374.9 Q 650.4 374.9, 650.7 374.6 Q 651.0 374.4, 651.0 373.9 Q 651.0 373.4, 650.6 373.2 Q 650.3 372.9, 649.7 372.9 L 648.7 372.9 L 648.7 374.9 L 649.8 374.9 " fill="#7F4C19"/>
<path class="atom-0" d="M 653.0 371.5 L 653.1 372.0 Q 653.5 371.4, 654.2 371.4 Q 654.4 371.4, 654.7 371.5 L 654.6 372.1 Q 654.3 372.1, 654.1 372.1 Q 653.7 372.1, 653.5 372.2 Q 653.3 372.3, 653.1 372.6 L 653.1 375.5 L 652.4 375.5 L 652.4 371.5 L 653.0 371.5 " fill="#7F4C19"/>
<path class="atom-3" d="M 595.6 369.2 Q 595.6 367.9, 596.3 367.1 Q 597.0 366.4, 598.2 366.4 Q 599.4 366.4, 600.1 367.1 Q 600.7 367.9, 600.7 369.2 Q 600.7 370.5, 600.1 371.3 Q 599.4 372.1, 598.2 372.1 Q 597.0 372.1, 596.3 371.3 Q 595.6 370.5, 595.6 369.2 M 598.2 371.4 Q 599.0 371.4, 599.5 370.9 Q 599.9 370.3, 599.9 369.2 Q 599.9 368.1, 599.5 367.5 Q 599.0 367.0, 598.2 367.0 Q 597.3 367.0, 596.9 367.5 Q 596.4 368.1, 596.4 369.2 Q 596.4 370.3, 596.9 370.9 Q 597.3 371.4, 598.2 371.4 " fill="#FF0000"/>
<path class="bond-0 atom-0 atom-1" d="M 116.9,620.9 L 124.1,620.9" style="fill:none;fill-rule:evenodd;stroke:#000000;stroke-width:2.0px;stroke-linecap:butt;stroke-linejoin:miter;stroke-opacity:1"/>
<path class="bond-0 atom-0 atom-1" d="M 124.1,620.9 L 131.2,620.9" style="fill:none;fill-rule:evenodd;stroke:#00CC00;stroke-width:2.0px;stroke-linecap:butt;stroke-linejoin:miter;stroke-opacity:1"/>
<path class="atom-0" d="M 112.1 621.0 Q 112.1 619.6, 112.7 618.9 Q 113.4 618.1, 114.6 618.1 Q 115.8 618.1, 116.4 619.0 L 115.9 619.4 Q 115.4 618.8, 114.6 618.8 Q 113.8 618.8, 113.3 619.4 Q 112.9 619.9, 112.9 621.0 Q 112.9 622.1, 113.3 622.6 Q 113.8 623.2, 114.7 623.2 Q 115.3 623.2, 116.0 622.8 L 116.2 623.4 Q 116.0 623.6, 115.5 623.7 Q 115.1 623.8, 114.6 623.8 Q 113.4 623.8, 112.7 623.1 Q 112.1 622.3, 112.1 621.0 " fill="#000000"/>
<path class="atom-0" d="M 116.6 619.1 L 118.5 619.1 L 118.5 619.5 L 116.6 619.5 L 116.6 619.1 " fill="#000000"/>
<path class="atom-1" d="M 131.7 621.1 Q 131.7 619.8, 132.3 619.0 Q 133.0 618.3, 134.2 618.3 Q 135.3 618.3, 135.9 619.1 L 135.4 619.5 Q 135.0 619.0, 134.2 619.0 Q 133.4 619.0, 132.9 619.5 Q 132.5 620.1, 132.5 621.1 Q 132.5 622.2, 132.9 622.8 Q 133.4 623.4, 134.3 623.4 Q 134.9 623.4, 135.6 623.0 L 135.8 623.6 Q 135.5 623.8, 135.1 623.9 Q 134.7 624.0, 134.2 624.0 Q 133.0 624.0, 132.3 623.3 Q 131.7 622.5, 131.7 621.1 " fill="#00CC00"/>
<path class="atom-1" d="M 136.6 618.0 L 137.3 618.0 L 137.3 623.9 L 136.6 623.9 L 136.6 618.0 " fill="#00CC00"/>
<path d="M 111.3,620.9 L 111.3,620.9 L 111.3,620.9 L 111.3,620.8 L 111.3,620.8 L 111.3,620.8 L 111.3,620.8 L 111.2,620.7 L 111.2,620.7 L 111.2,620.7 L 111.2,620.7 L 111.2,620.6 L 111.1,620.6 L 111.1,620.6 L 111.1,620.6 L 111.0,620.6 L 111.0,620.6 L 111.0,620.6 L 110.9,620.6 L 110.9,620.6 L 110.9,620.6 L 110.8,620.6 L 110.8,620.6 L 110.8,620.6 L 110.7,620.6 L 110.7,620.6 L 110.7,620.6 L 110.7,620.7 L 110.6,620.7 L 110.6,620.7 L 110.6,620.7 L 110.6,620.8 L 110.6,620.8 L 110.5,620.8 L 110.5,620.9 L 110.5,620.9 L 110.5,620.9 L 110.5,621.0 L 110.5,621.0 L 110.5,621.0 L 110.5,621.1 L 110.6,621.1 L 110.6,621.1 L 110.6,621.2 L 110.6,621.2 L 110.6,621.2 L 110.7,621.2 L 110.7,621.3 L 110.7,621.3 L 110.7,621.3 L 110.8,621.3 L 110.8,621.3 L 110.8,621.3 L 110.9,621.3 L 110.9,621.3 L 110.9,621.3 L 111.0,621.3 L 111.0,621.3 L 111.0,621.3 L 111.1,621.3 L 111.1,621.3 L 111.1,621.3 L 111.2,621.3 L 111.2,621.2 L 111.2,621.2 L 111.2,621.2 L 111.2,621.2 L 111.3,621.1 L 111.3,621.1 L 111.3,621.1 L 111.3,621.0 L 111.3,621.0 L 111.3,621.0 L 111.3,620.9 L 110.9,620.9 Z" style="fill:#000000;fill-rule:evenodd;fill-opacity:1;stroke:#000000;stroke-width:0.0px;stroke-linecap:butt;stroke-linejoin:miter;stroke-opacity:1;"/>
<path class="bond-0 atom-0 atom-1" d="M 324.9,633.2 L 331.1,628.4" style="fill:none;fill-rule:evenodd;stroke:#0000FF;stroke-width:2.0px;stroke-linecap:butt;stroke-linejoin:miter;stroke-opacity:1"/>
<path class="bond-0 atom-0 atom-1" d="M 331.1,628.4 L 337.3,623.5" style="fill:none;fill-rule:evenodd;stroke:#000000;stroke-width:2.0px;stroke-linecap:butt;stroke-linejoin:miter;stroke-opacity:1"/>
<path class="bond-0 atom-0 atom-1" d="M 322.5,630.1 L 328.7,625.3" style="fill:none;fill-rule:evenodd;stroke:#0000FF;stroke-width:2.0px;stroke-linecap:butt;stroke-linejoin:miter;stroke-opacity:1"/>
<path class="bond-0 atom-0 atom-1" d="M 328.7,625.3 L 334.9,620.4" style="fill:none;fill-rule:evenodd;stroke:#000000;stroke-width:2.0px;stroke-linecap:butt;stroke-linejoin:miter;stroke-opacity:1"/>
<path class="bond-1 atom-1 atom-2" d="M 336.1,622.0 L 354.3,629.3" style="fill:none;fill-rule:evenodd;stroke:#000000;stroke-width:2.0px;stroke-linecap:butt;stroke-linejoin:miter;stroke-opacity:1"/>
<path class="bond-7 atom-1 atom-8" d="M 336.1,622.0 L 335.0,614.0" style="fill:none;fill-rule:evenodd;stroke:#000000;stroke-width:2.0px;stroke-linecap:butt;stroke-linejoin:miter;stroke-opacity:1"/>
<path class="bond-7 atom-1 atom-8" d="M 335.0,614.0 L 333.9,606.1" style="fill:none;fill-rule:evenodd;stroke:#00CC00;stroke-width:2.0px;stroke-linecap:butt;stroke-linejoin:miter;stroke-opacity:1"/>
<path class="bond-2 atom-2 atom-3" d="M 354.3,629.3 L 369.7,617.2" style="fill:none;fill-rule:evenodd;stroke:#000000;stroke-width:2.0px;stroke-linecap:butt;stroke-linejoin:miter;stroke-opacity:1"/>
<path class="bond-2 atom-2 atom-3" d="M 354.2,624.4 L 365.0,615.9" style="fill:none;fill-rule:evenodd;stroke:#000000;stroke-width:2.0px;stroke-linecap:butt;stroke-linejoin:miter;stroke-opacity:1"/>
<path class="bond-3 atom-3 atom-4" d="M 369.7,617.2 L 387.8,624.5" style="fill:none;fill-rule:evenodd;stroke:#000000;stroke-width:2.0px;stroke-linecap:butt;stroke-linejoin:miter;stroke-opacity:1"/>
<path class="bond-4 atom-4 atom-5" d="M 387.8,624.5 L 394.2,619.4" style="fill:none;fill-rule:evenodd;stroke:#000000;stroke-width:2.0px;stroke-linecap:butt;stroke-linejoin:miter;stroke-opacity:1"/>
<path class="bond-4 atom-4 atom-5" d="M 394.2,619.4 L 400.7,614.4" style="fill:none;fill-rule:evenodd;stroke:#0000FF;stroke-width:2.0px;stroke-linecap:butt;stroke-linejoin:miter;stroke-opacity:1"/>
<path class="bond-4 atom-4 atom-5" d="M 387.3,619.9 L 391.8,616.4" style="fill:none;fill-rule:evenodd;stroke:#000000;stroke-width:2.0px;stroke-linecap:butt;stroke-linejoin:miter;stroke-opacity:1"/>
<path class="bond-4 atom-4 atom-5" d="M 391.8,616.4 L 396.3,612.9" style="fill:none;fill-rule:evenodd;stroke:#0000FF;stroke-width:2.0px;stroke-linecap:butt;stroke-linejoin:miter;stroke-opacity:1"/>
<path class="bond-5 atom-5 atom-6" d="M 405.8,613.4 L 413.6,616.6" style="fill:none;fill-rule:evenodd;stroke:#0000FF;stroke-width:2.0px;stroke-linecap:butt;stroke-linejoin:miter;stroke-opacity:1"/>
<path class="bond-5 atom-5 atom-6" d="M 413.6,616.6 L 421.4,619.7" style="fill:none;fill-rule:evenodd;stroke:#000000;stroke-width:2.0px;stroke-linecap:butt;stroke-linejoin:miter;stroke-opacity:1"/>
<path class="bond-6 atom-6 atom-7" d="M 421.4,619.7 L 439.6,627.0" style="fill:none;fill-rule:evenodd;stroke:#000000;stroke-width:2.0px;stroke-linecap:butt;stroke-linejoin:miter;stroke-opacity:1"/>
<path class="bond-6 atom-6 atom-7" d="M 422.7,624.4 L 438.1,630.6" style="fill:none;fill-rule:evenodd;stroke:#000000;stroke-width:2.0px;stroke-linecap:butt;stroke-linejoin:miter;stroke-opacity:1"/>
<path class="bond-6 atom-6 atom-7" d="M 425.6,617.2 L 441.0,623.4" style="fill:none;fill-rule:evenodd;stroke:#000000;stroke-width:2.0px;stroke-linecap:butt;stroke-linejoin:miter;stroke-opacity:1"/>
<path class="atom-0" d="M 319.5 631.3 L 321.3 634.2 Q 321.5 634.5, 321.8 635.0 Q 322.1 635.5, 322.1 635.6 L 322.1 631.3 L 322.8 631.3 L 322.8 636.8 L 322.1 636.8 L 320.1 633.6 Q 319.9 633.2, 319.6 632.8 Q 319.4 632.4, 319.3 632.2 L 319.3 636.8 L 318.6 636.8 L 318.6 631.3 L 319.5 631.3 " fill="#0000FF"/>
<path class="atom-0" d="M 323.1 632.2 L 325.0 632.2 L 325.0 632.6 L 323.1 632.6 L 323.1 632.2 " fill="#0000FF"/>
<path class="atom-5" d="M 402.0 609.6 L 403.8 612.6 Q 404.0 612.8, 404.3 613.4 Q 404.6 613.9, 404.6 613.9 L 404.6 609.6 L 405.3 609.6 L 405.3 615.2 L 404.6 615.2 L 402.6 612.0 Q 402.4 611.6, 402.2 611.1 Q 401.9 610.7, 401.9 610.6 L 401.9 615.2 L 401.1 615.2 L 401.1 609.6 L 402.0 609.6 " fill="#0000FF"/>
<path class="atom-8" d="M 331.2 602.8 Q 331.2 601.4, 331.9 600.7 Q 332.5 599.9, 333.7 599.9 Q 334.9 599.9, 335.5 600.7 L 335.0 601.2 Q 334.5 600.6, 333.7 600.6 Q 332.9 600.6, 332.5 601.1 Q 332.0 601.7, 332.0 602.8 Q 332.0 603.9, 332.5 604.4 Q 332.9 605.0, 333.8 605.0 Q 334.4 605.0, 335.1 604.6 L 335.4 605.2 Q 335.1 605.4, 334.6 605.5 Q 334.2 605.6, 333.7 605.6 Q 332.5 605.6, 331.9 604.9 Q 331.2 604.1, 331.2 602.8 " fill="#00CC00"/>
<path class="atom-8" d="M 336.2 599.6 L 336.9 599.6 L 336.9 605.5 L 336.2 605.5 L 336.2 599.6 " fill="#00CC00"/>
<path class="bond-0 atom-0 atom-1" d="M 663.0,617.5 L 655.2,613.9" style="fill:none;fill-rule:evenodd;stroke:#33CCCC;stroke-width:2.0px;stroke-linecap:butt;stroke-linejoin:miter;stroke-opacity:1"/>
<path class="bond-0 atom-0 atom-1" d="M 655.2,613.9 L 647.3,610.3" style="fill:none;fill-rule:evenodd;stroke:#000000;stroke-width:2.0px;stroke-linecap:butt;stroke-linejoin:miter;stroke-opacity:1"/>
<path class="bond-1 atom-1 atom-2" d="M 647.3,610.3 L 631.4,621.7" style="fill:none;fill-rule:evenodd;stroke:#000000;stroke-width:2.0px;stroke-linecap:butt;stroke-linejoin:miter;stroke-opacity:1"/>
<path class="bond-2 atom-2 atom-3" d="M 631.4,621.7 L 613.6,613.5" style="fill:none;fill-rule:evenodd;stroke:#000000;stroke-width:2.0px;stroke-linecap:butt;stroke-linejoin:miter;stroke-opacity:1"/>
<path class="bond-5 atom-2 atom-6" d="M 631.4,621.7 L 632.2,629.8" style="fill:none;fill-rule:evenodd;stroke:#000000;stroke-width:2.0px;stroke-linecap:butt;stroke-linejoin:miter;stroke-opacity:1"/>
<path class="bond-5 atom-2 atom-6" d="M 632.2,629.8 L 632.9,637.9" style="fill:none;fill-rule:evenodd;stroke:#33CCCC;stroke-width:2.0px;stroke-linecap:butt;stroke-linejoin:miter;stroke-opacity:1"/>
<path class="bond-3 atom-3 atom-4" d="M 613.6,613.5 L 597.6,624.9" style="fill:none;fill-rule:evenodd;stroke:#000000;stroke-width:2.0px;stroke-linecap:butt;stroke-linejoin:miter;stroke-opacity:1"/>
<path class="bond-4 atom-4 atom-5" d="M 597.6,624.9 L 589.8,621.3" style="fill:none;fill-rule:evenodd;stroke:#000000;stroke-width:2.0px;stroke-linecap:butt;stroke-linejoin:miter;stroke-opacity:1"/>
<path class="bond-4 atom-4 atom-5" d="M 589.8,621.3 L 582.0,617.7" style="fill:none;fill-rule:evenodd;stroke:#33CCCC;stroke-width:2.0px;stroke-linecap:butt;stroke-linejoin:miter;stroke-opacity:1"/>
<path class="atom-0" d="M 663.5 615.7 L 666.8 615.7 L 666.8 616.3 L 664.2 616.3 L 664.2 618.0 L 666.5 618.0 L 666.5 618.6 L 664.2 618.6 L 664.2 621.2 L 663.5 621.2 L 663.5 615.7 " fill="#33CCCC"/>
<path class="atom-5" d="M 578.2 614.0 L 581.5 614.0 L 581.5 614.6 L 578.9 614.6 L 578.9 616.3 L 581.2 616.3 L 581.2 616.9 L 578.9 616.9 L 578.9 619.5 L 578.2 619.5 L 578.2 614.0 " fill="#33CCCC"/>
<path class="atom-6" d="M 631.6 638.4 L 634.9 638.4 L 634.9 639.0 L 632.3 639.0 L 632.3 640.7 L 634.6 640.7 L 634.6 641.3 L 632.3 641.3 L 632.3 643.9 L 631.6 643.9 L 631.6 638.4 " fill="#33CCCC"/>
</svg>