<svg xmlns="http://www.w3.org/2000/svg" xmlns:rdkit="http://www.rdkit.org/xml" xmlns:xlink="http://www.w3.org/1999/xlink" version="1.1" baseProfile="full" xml:space="preserve" width="750px" height="750px" viewBox="0 0 750 750">
<!-- END OF HEADER -->
<rect style="opacity:1.0;fill:#FFFFFF;stroke:none" width="750.0" height="750.0" x="0.0" y="0.0"> </rect>
<rect style="opacity:1.0;fill:#FFFFFF;stroke:none" width="750.0" height="750.0" x="0.0" y="0.0"> </rect>
<rect style="opacity:1.0;fill:#FFFFFF;stroke:none" width="750.0" height="750.0" x="0.0" y="0.0"> </rect>
<rect style="opacity:1.0;fill:#FFFFFF;stroke:none" width="750.0" height="750.0" x="0.0" y="0.0"> </rect>
<rect style="opacity:1.0;fill:#FFFFFF;stroke:none" width="750.0" height="750.0" x="0.0" y="0.0"> </rect>
<rect style="opacity:1.0;fill:#FFFFFF;stroke:none" width="750.0" height="750.0" x="0.0" y="0.0"> </rect>
<rect style="opacity:1.0;fill:#FFFFFF;stroke:none" width="750.0" height="750.0" x="0.0" y="0.0"> </rect>
<rect style="opacity:1.0;fill:#FFFFFF;stroke:none" width="750.0" height="750.0" x="0.0" y="0.0"> </rect>
<rect style="opacity:1.0;fill:#FFFFFF;stroke:none" width="750.0" height="750.0" x="0.0" y="0.0"> </rect>
<rect style="opacity:1.0;fill:#FFFFFF;stroke:none" width="750.0" height="750.0" x="0.0" y="0.0"> </rect>
<path class="bond-0 atom-0 atom-1" d="M 148.4,125.8 L 143.4,122.9" style="fill:none;fill-rule:evenodd;stroke:#33CCCC;stroke-width:2.0px;stroke-linecap:butt;stroke-linejoin:miter;stroke-opacity:1"/>
<path class="bond-0 atom-0 atom-1" d="M 143.4,122.9 L 138.5,120.1" style="fill:none;fill-rule:evenodd;stroke:#CCCC00;stroke-width:2.0px;stroke-linecap:butt;stroke-linejoin:miter;stroke-opacity:1"/>
<path class="bond-1 atom-1 atom-2" d="M 134.2,118.8 L 129.6,121.4" style="fill:none;fill-rule:evenodd;stroke:#CCCC00;stroke-width:2.0px;stroke-linecap:butt;stroke-linejoin:miter;stroke-opacity:1"/>
<path class="bond-1 atom-1 atom-2" d="M 129.6,121.4 L 125.0,124.1" style="fill:none;fill-rule:evenodd;stroke:#FF0000;stroke-width:2.0px;stroke-linecap:butt;stroke-linejoin:miter;stroke-opacity:1"/>
<path class="bond-1 atom-1 atom-2" d="M 135.7,121.4 L 131.1,124.1" style="fill:none;fill-rule:evenodd;stroke:#CCCC00;stroke-width:2.0px;stroke-linecap:butt;stroke-linejoin:miter;stroke-opacity:1"/>
<path class="bond-1 atom-1 atom-2" d="M 131.1,124.1 L 126.5,126.8" style="fill:none;fill-rule:evenodd;stroke:#FF0000;stroke-width:2.0px;stroke-linecap:butt;stroke-linejoin:miter;stroke-opacity:1"/>
<path class="atom-0" d="M 148.8 124.6 L 151.4 124.6 L 151.4 125.1 L 149.4 125.1 L 149.4 126.4 L 151.2 126.4 L 151.2 126.9 L 149.4 126.9 L 149.4 128.9 L 148.8 128.9 L 148.8 124.6 " fill="#33CCCC"/>
<path class="atom-1" d="M 135.5 120.6 Q 135.6 120.6, 135.8 120.7 Q 136.0 120.8, 136.2 120.8 Q 136.4 120.9, 136.6 120.9 Q 137.1 120.9, 137.3 120.7 Q 137.5 120.5, 137.5 120.1 Q 137.5 119.9, 137.4 119.7 Q 137.3 119.6, 137.1 119.5 Q 136.9 119.4, 136.6 119.3 Q 136.2 119.2, 136.0 119.1 Q 135.8 119.0, 135.6 118.7 Q 135.4 118.5, 135.4 118.1 Q 135.4 117.6, 135.8 117.2 Q 136.2 116.9, 136.9 116.9 Q 137.4 116.9, 138.0 117.1 L 137.9 117.6 Q 137.3 117.4, 136.9 117.4 Q 136.5 117.4, 136.3 117.6 Q 136.1 117.7, 136.1 118.0 Q 136.1 118.3, 136.2 118.4 Q 136.3 118.6, 136.5 118.6 Q 136.7 118.7, 136.9 118.8 Q 137.3 118.9, 137.6 119.1 Q 137.8 119.2, 138.0 119.4 Q 138.2 119.7, 138.2 120.1 Q 138.2 120.7, 137.7 121.0 Q 137.3 121.4, 136.7 121.4 Q 136.3 121.4, 136.0 121.3 Q 135.7 121.2, 135.4 121.0 L 135.5 120.6 " fill="#CCCC00"/>
<path class="atom-1" d="M 138.5 117.6 L 139.3 117.6 L 139.3 116.8 L 139.6 116.8 L 139.6 117.6 L 140.4 117.6 L 140.4 117.9 L 139.6 117.9 L 139.6 118.7 L 139.3 118.7 L 139.3 117.9 L 138.5 117.9 L 138.5 117.6 " fill="#CCCC00"/>
<path class="atom-2" d="M 121.4 126.8 Q 121.4 125.7, 121.9 125.1 Q 122.4 124.6, 123.4 124.6 Q 124.4 124.6, 124.9 125.1 Q 125.4 125.7, 125.4 126.8 Q 125.4 127.8, 124.9 128.4 Q 124.4 129.0, 123.4 129.0 Q 122.5 129.0, 121.9 128.4 Q 121.4 127.8, 121.4 126.8 M 123.4 128.5 Q 124.1 128.5, 124.4 128.1 Q 124.8 127.7, 124.8 126.8 Q 124.8 125.9, 124.4 125.5 Q 124.1 125.1, 123.4 125.1 Q 122.7 125.1, 122.4 125.5 Q 122.0 125.9, 122.0 126.8 Q 122.0 127.7, 122.4 128.1 Q 122.7 128.5, 123.4 128.5 " fill="#FF0000"/>
<path class="bond-0 atom-0 atom-1" d="M 376.6,124.9 L 384.8,120.2" style="fill:none;fill-rule:evenodd;stroke:#0000FF;stroke-width:2.0px;stroke-linecap:butt;stroke-linejoin:miter;stroke-opacity:1"/>
<path class="bond-1 atom-1 atom-2" d="M 388.8,120.2 L 394.1,123.3" style="fill:none;fill-rule:evenodd;stroke:#0000FF;stroke-width:2.0px;stroke-linecap:butt;stroke-linejoin:miter;stroke-opacity:1"/>
<path class="bond-1 atom-1 atom-2" d="M 394.1,123.3 L 399.5,126.4" style="fill:none;fill-rule:evenodd;stroke:#A01EEF;stroke-width:2.0px;stroke-linecap:butt;stroke-linejoin:miter;stroke-opacity:1"/>
<path class="atom-0" d="M 367.8 124.6 L 368.4 124.6 L 368.4 126.4 L 370.7 126.4 L 370.7 124.6 L 371.2 124.6 L 371.2 128.9 L 370.7 128.9 L 370.7 126.9 L 368.4 126.9 L 368.4 128.9 L 367.8 128.9 L 367.8 124.6 " fill="#0000FF"/>
<path class="atom-0" d="M 372.4 124.6 L 373.9 126.9 Q 374.0 127.1, 374.2 127.5 Q 374.5 127.9, 374.5 128.0 L 374.5 124.6 L 375.1 124.6 L 375.1 128.9 L 374.5 128.9 L 372.9 126.4 Q 372.8 126.1, 372.6 125.8 Q 372.4 125.4, 372.3 125.3 L 372.3 128.9 L 371.8 128.9 L 371.8 124.6 L 372.4 124.6 " fill="#0000FF"/>
<path class="atom-0" d="M 375.3 125.3 L 376.8 125.3 L 376.8 125.6 L 375.3 125.6 L 375.3 125.3 " fill="#0000FF"/>
<path class="atom-1" d="M 385.8 116.9 L 387.2 119.2 Q 387.4 119.4, 387.6 119.8 Q 387.8 120.2, 387.8 120.3 L 387.8 116.9 L 388.4 116.9 L 388.4 121.2 L 387.8 121.2 L 386.3 118.7 Q 386.1 118.4, 385.9 118.1 Q 385.7 117.7, 385.7 117.6 L 385.7 121.2 L 385.1 121.2 L 385.1 116.9 L 385.8 116.9 " fill="#0000FF"/>
<path class="atom-1" d="M 385.0 112.1 L 385.6 112.1 L 385.6 113.9 L 387.9 113.9 L 387.9 112.1 L 388.5 112.1 L 388.5 116.4 L 387.9 116.4 L 387.9 114.4 L 385.6 114.4 L 385.6 116.4 L 385.0 116.4 L 385.0 112.1 " fill="#0000FF"/>
<path class="atom-1" d="M 388.8 112.9 L 389.6 112.9 L 389.6 112.1 L 389.9 112.1 L 389.9 112.9 L 390.7 112.9 L 390.7 113.2 L 389.9 113.2 L 389.9 114.0 L 389.6 114.0 L 389.6 113.2 L 388.8 113.2 L 388.8 112.9 " fill="#0000FF"/>
<path class="atom-2" d="M 399.8 124.6 L 400.4 124.6 L 400.4 129.0 L 399.8 129.0 L 399.8 124.6 " fill="#A01EEF"/>
<path d="M 387.1,111.6 L 387.1,111.6 L 387.1,111.5 L 387.0,111.5 L 387.0,111.5 L 387.0,111.5 L 387.0,111.4 L 387.0,111.4 L 387.0,111.4 L 387.0,111.4 L 387.0,111.4 L 386.9,111.4 L 386.9,111.3 L 386.9,111.3 L 386.9,111.3 L 386.8,111.3 L 386.8,111.3 L 386.8,111.3 L 386.8,111.3 L 386.7,111.3 L 386.7,111.3 L 386.7,111.3 L 386.7,111.3 L 386.6,111.3 L 386.6,111.3 L 386.6,111.3 L 386.6,111.4 L 386.5,111.4 L 386.5,111.4 L 386.5,111.4 L 386.5,111.4 L 386.5,111.5 L 386.5,111.5 L 386.5,111.5 L 386.5,111.5 L 386.4,111.6 L 386.4,111.6 L 386.4,111.6 L 386.4,111.6 L 386.5,111.7 L 386.5,111.7 L 386.5,111.7 L 386.5,111.7 L 386.5,111.8 L 386.5,111.8 L 386.5,111.8 L 386.5,111.8 L 386.6,111.8 L 386.6,111.9 L 386.6,111.9 L 386.6,111.9 L 386.7,111.9 L 386.7,111.9 L 386.7,111.9 L 386.7,111.9 L 386.8,111.9 L 386.8,111.9 L 386.8,111.9 L 386.8,111.9 L 386.9,111.9 L 386.9,111.9 L 386.9,111.9 L 386.9,111.9 L 387.0,111.8 L 387.0,111.8 L 387.0,111.8 L 387.0,111.8 L 387.0,111.8 L 387.0,111.7 L 387.0,111.7 L 387.0,111.7 L 387.1,111.7 L 387.1,111.6 L 387.1,111.6 L 386.8,111.6 Z" style="fill:#000000;fill-rule:evenodd;fill-opacity:1;stroke:#000000;stroke-width:0.0px;stroke-linecap:butt;stroke-linejoin:miter;stroke-opacity:1;"/>
<path class="bond-0 atom-0 atom-1" d="M 642.7,122.7 L 638.2,122.7" style="fill:none;fill-rule:evenodd;stroke:#CCCC00;stroke-width:2.0px;stroke-linecap:butt;stroke-linejoin:miter;stroke-opacity:1"/>
<path class="bond-0 atom-0 atom-1" d="M 638.2,122.7 L 633.7,122.7" style="fill:none;fill-rule:evenodd;stroke:#FF0000;stroke-width:2.0px;stroke-linecap:butt;stroke-linejoin:miter;stroke-opacity:1"/>
<path class="bond-0 atom-0 atom-1" d="M 642.7,125.7 L 638.2,125.7" style="fill:none;fill-rule:evenodd;stroke:#CCCC00;stroke-width:2.0px;stroke-linecap:butt;stroke-linejoin:miter;stroke-opacity:1"/>
<path class="bond-0 atom-0 atom-1" d="M 638.2,125.7 L 633.7,125.7" style="fill:none;fill-rule:evenodd;stroke:#FF0000;stroke-width:2.0px;stroke-linecap:butt;stroke-linejoin:miter;stroke-opacity:1"/>
<path class="atom-0" d="M 643.2 125.7 Q 643.3 125.7, 643.5 125.8 Q 643.7 125.9, 643.9 125.9 Q 644.1 126.0, 644.3 126.0 Q 644.8 126.0, 645.0 125.8 Q 645.2 125.6, 645.2 125.2 Q 645.2 125.0, 645.1 124.9 Q 645.0 124.7, 644.8 124.6 Q 644.6 124.5, 644.3 124.5 Q 643.9 124.3, 643.7 124.2 Q 643.5 124.1, 643.3 123.9 Q 643.1 123.6, 643.1 123.3 Q 643.1 122.7, 643.5 122.4 Q 643.9 122.0, 644.6 122.0 Q 645.1 122.0, 645.7 122.3 L 645.6 122.7 Q 645.0 122.5, 644.6 122.5 Q 644.2 122.5, 644.0 122.7 Q 643.8 122.9, 643.8 123.2 Q 643.8 123.4, 643.9 123.6 Q 644.0 123.7, 644.2 123.8 Q 644.4 123.9, 644.6 123.9 Q 645.0 124.1, 645.3 124.2 Q 645.5 124.3, 645.7 124.6 Q 645.9 124.8, 645.9 125.2 Q 645.9 125.8, 645.4 126.2 Q 645.0 126.5, 644.4 126.5 Q 644.0 126.5, 643.7 126.4 Q 643.4 126.3, 643.1 126.2 L 643.2 125.7 " fill="#CCCC00"/>
<path class="atom-1" d="M 623.3 122.0 L 623.9 122.0 L 623.9 123.9 L 626.1 123.9 L 626.1 122.0 L 626.7 122.0 L 626.7 126.4 L 626.1 126.4 L 626.1 124.4 L 623.9 124.4 L 623.9 126.4 L 623.3 126.4 L 623.3 122.0 " fill="#FF0000"/>
<path class="atom-1" d="M 627.0 124.2 Q 627.0 123.2, 627.6 122.6 Q 628.1 122.0, 629.1 122.0 Q 630.0 122.0, 630.5 122.6 Q 631.1 123.2, 631.1 124.2 Q 631.1 125.3, 630.5 125.9 Q 630.0 126.5, 629.1 126.5 Q 628.1 126.5, 627.6 125.9 Q 627.0 125.3, 627.0 124.2 M 629.1 126.0 Q 629.7 126.0, 630.1 125.5 Q 630.4 125.1, 630.4 124.2 Q 630.4 123.4, 630.1 122.9 Q 629.7 122.5, 629.1 122.5 Q 628.4 122.5, 628.0 122.9 Q 627.7 123.3, 627.7 124.2 Q 627.7 125.1, 628.0 125.5 Q 628.4 126.0, 629.1 126.0 " fill="#FF0000"/>
<path class="atom-1" d="M 631.4 122.8 L 632.2 122.8 L 632.2 122.0 L 632.5 122.0 L 632.5 122.8 L 633.3 122.8 L 633.3 123.1 L 632.5 123.1 L 632.5 123.9 L 632.2 123.9 L 632.2 123.1 L 631.4 123.1 L 631.4 122.8 " fill="#FF0000"/>
<path class="bond-0 atom-0 atom-1" d="M 36.5,372.2 L 46.3,377.9" style="fill:none;fill-rule:evenodd;stroke:#FF7F00;stroke-width:2.0px;stroke-linecap:butt;stroke-linejoin:miter;stroke-opacity:1"/>
<path class="bond-1 atom-1 atom-2" d="M 52.1,376.6 L 55.8,374.5" style="fill:none;fill-rule:evenodd;stroke:#FF7F00;stroke-width:2.0px;stroke-linecap:butt;stroke-linejoin:miter;stroke-opacity:1"/>
<path class="bond-1 atom-1 atom-2" d="M 55.8,374.5 L 59.5,372.3" style="fill:none;fill-rule:evenodd;stroke:#0000FF;stroke-width:2.0px;stroke-linecap:butt;stroke-linejoin:miter;stroke-opacity:1"/>
<path class="bond-2 atom-2 atom-3" d="M 63.5,372.4 L 72.8,377.8" style="fill:none;fill-rule:evenodd;stroke:#0000FF;stroke-width:2.0px;stroke-linecap:butt;stroke-linejoin:miter;stroke-opacity:1"/>
<path class="bond-3 atom-3 atom-4" d="M 76.8,377.8 L 81.6,375.1" style="fill:none;fill-rule:evenodd;stroke:#0000FF;stroke-width:2.0px;stroke-linecap:butt;stroke-linejoin:miter;stroke-opacity:1"/>
<path class="bond-3 atom-3 atom-4" d="M 81.6,375.1 L 86.4,372.3" style="fill:none;fill-rule:evenodd;stroke:#CCCC00;stroke-width:2.0px;stroke-linecap:butt;stroke-linejoin:miter;stroke-opacity:1"/>
<path class="bond-4 atom-4 atom-5" d="M 89.9,372.4 L 95.7,375.7" style="fill:none;fill-rule:evenodd;stroke:#CCCC00;stroke-width:2.0px;stroke-linecap:butt;stroke-linejoin:miter;stroke-opacity:1"/>
<path class="bond-4 atom-4 atom-5" d="M 95.7,375.7 L 101.4,379.1" style="fill:none;fill-rule:evenodd;stroke:#000000;stroke-width:2.0px;stroke-linecap:butt;stroke-linejoin:miter;stroke-opacity:1"/>
<path class="bond-5 atom-5 atom-6" d="M 101.4,379.1 L 107.1,375.8" style="fill:none;fill-rule:evenodd;stroke:#000000;stroke-width:2.0px;stroke-linecap:butt;stroke-linejoin:miter;stroke-opacity:1"/>
<path class="bond-5 atom-5 atom-6" d="M 107.1,375.8 L 112.8,372.6" style="fill:none;fill-rule:evenodd;stroke:#0000FF;stroke-width:2.0px;stroke-linecap:butt;stroke-linejoin:miter;stroke-opacity:1"/>
<path class="bond-5 atom-5 atom-6" d="M 101.6,375.4 L 105.6,373.2" style="fill:none;fill-rule:evenodd;stroke:#000000;stroke-width:2.0px;stroke-linecap:butt;stroke-linejoin:miter;stroke-opacity:1"/>
<path class="bond-5 atom-5 atom-6" d="M 105.6,373.2 L 109.5,370.9" style="fill:none;fill-rule:evenodd;stroke:#0000FF;stroke-width:2.0px;stroke-linecap:butt;stroke-linejoin:miter;stroke-opacity:1"/>
<path class="bond-6 atom-6 atom-7" d="M 116.8,372.6 L 122.5,375.9" style="fill:none;fill-rule:evenodd;stroke:#0000FF;stroke-width:2.0px;stroke-linecap:butt;stroke-linejoin:miter;stroke-opacity:1"/>
<path class="bond-6 atom-6 atom-7" d="M 122.5,375.9 L 128.1,379.2" style="fill:none;fill-rule:evenodd;stroke:#000000;stroke-width:2.0px;stroke-linecap:butt;stroke-linejoin:miter;stroke-opacity:1"/>
<path class="bond-7 atom-7 atom-8" d="M 128.1,379.2 L 133.9,375.8" style="fill:none;fill-rule:evenodd;stroke:#000000;stroke-width:2.0px;stroke-linecap:butt;stroke-linejoin:miter;stroke-opacity:1"/>
<path class="bond-7 atom-7 atom-8" d="M 133.9,375.8 L 139.7,372.5" style="fill:none;fill-rule:evenodd;stroke:#CCCC00;stroke-width:2.0px;stroke-linecap:butt;stroke-linejoin:miter;stroke-opacity:1"/>
<path class="bond-8 atom-8 atom-9" d="M 143.3,372.5 L 153.1,378.2" style="fill:none;fill-rule:evenodd;stroke:#CCCC00;stroke-width:2.0px;stroke-linecap:butt;stroke-linejoin:miter;stroke-opacity:1"/>
<path class="bond-9 atom-9 atom-10" d="M 156.6,378.2 L 161.4,375.5" style="fill:none;fill-rule:evenodd;stroke:#CCCC00;stroke-width:2.0px;stroke-linecap:butt;stroke-linejoin:miter;stroke-opacity:1"/>
<path class="bond-9 atom-9 atom-10" d="M 161.4,375.5 L 166.2,372.7" style="fill:none;fill-rule:evenodd;stroke:#0000FF;stroke-width:2.0px;stroke-linecap:butt;stroke-linejoin:miter;stroke-opacity:1"/>
<path class="bond-10 atom-10 atom-11" d="M 168.2,369.0 L 168.2,363.9" style="fill:none;fill-rule:evenodd;stroke:#0000FF;stroke-width:2.0px;stroke-linecap:butt;stroke-linejoin:miter;stroke-opacity:1"/>
<path class="bond-10 atom-10 atom-11" d="M 168.2,363.9 L 168.2,358.8" style="fill:none;fill-rule:evenodd;stroke:#FF0000;stroke-width:2.0px;stroke-linecap:butt;stroke-linejoin:miter;stroke-opacity:1"/>
<path class="bond-11 atom-10 atom-12" d="M 170.2,372.8 L 179.5,378.2" style="fill:none;fill-rule:evenodd;stroke:#0000FF;stroke-width:2.0px;stroke-linecap:butt;stroke-linejoin:miter;stroke-opacity:1"/>
<path class="bond-12 atom-12 atom-13" d="M 183.5,378.2 L 188.3,375.4" style="fill:none;fill-rule:evenodd;stroke:#0000FF;stroke-width:2.0px;stroke-linecap:butt;stroke-linejoin:miter;stroke-opacity:1"/>
<path class="bond-12 atom-12 atom-13" d="M 188.3,375.4 L 193.1,372.7" style="fill:none;fill-rule:evenodd;stroke:#FF7F00;stroke-width:2.0px;stroke-linecap:butt;stroke-linejoin:miter;stroke-opacity:1"/>
<path class="bond-12 atom-12 atom-13" d="M 183.4,374.7 L 186.8,372.7" style="fill:none;fill-rule:evenodd;stroke:#0000FF;stroke-width:2.0px;stroke-linecap:butt;stroke-linejoin:miter;stroke-opacity:1"/>
<path class="bond-12 atom-12 atom-13" d="M 186.8,372.7 L 190.1,370.8" style="fill:none;fill-rule:evenodd;stroke:#FF7F00;stroke-width:2.0px;stroke-linecap:butt;stroke-linejoin:miter;stroke-opacity:1"/>
<path class="bond-13 atom-13 atom-14" d="M 196.6,372.7 L 201.4,375.5" style="fill:none;fill-rule:evenodd;stroke:#FF7F00;stroke-width:2.0px;stroke-linecap:butt;stroke-linejoin:miter;stroke-opacity:1"/>
<path class="bond-13 atom-13 atom-14" d="M 201.4,375.5 L 206.1,378.3" style="fill:none;fill-rule:evenodd;stroke:#0000FF;stroke-width:2.0px;stroke-linecap:butt;stroke-linejoin:miter;stroke-opacity:1"/>
<path class="bond-14 atom-14 atom-15" d="M 212.4,376.9 L 216.1,374.8" style="fill:none;fill-rule:evenodd;stroke:#0000FF;stroke-width:2.0px;stroke-linecap:butt;stroke-linejoin:miter;stroke-opacity:1"/>
<path class="bond-14 atom-14 atom-15" d="M 216.1,374.8 L 219.8,372.7" style="fill:none;fill-rule:evenodd;stroke:#CCCC00;stroke-width:2.0px;stroke-linecap:butt;stroke-linejoin:miter;stroke-opacity:1"/>
<path class="bond-15 atom-15 atom-16" d="M 223.3,372.8 L 228.1,375.6" style="fill:none;fill-rule:evenodd;stroke:#CCCC00;stroke-width:2.0px;stroke-linecap:butt;stroke-linejoin:miter;stroke-opacity:1"/>
<path class="bond-15 atom-15 atom-16" d="M 228.1,375.6 L 233.0,378.4" style="fill:none;fill-rule:evenodd;stroke:#7F4C19;stroke-width:2.0px;stroke-linecap:butt;stroke-linejoin:miter;stroke-opacity:1"/>
<path class="atom-0" d="M 34.7 369.0 Q 35.4 369.0, 35.8 369.3 Q 36.2 369.6, 36.2 370.3 Q 36.2 370.9, 35.8 371.2 Q 35.4 371.5, 34.7 371.5 L 34.0 371.5 L 34.0 373.3 L 33.4 373.3 L 33.4 369.0 L 34.7 369.0 M 34.7 371.1 Q 35.1 371.1, 35.3 370.8 Q 35.5 370.6, 35.5 370.3 Q 35.5 369.9, 35.3 369.7 Q 35.1 369.5, 34.7 369.5 L 34.0 369.5 L 34.0 371.1 L 34.7 371.1 " fill="#FF7F00"/>
<path class="atom-1" d="M 48.0 376.7 Q 48.7 376.7, 49.1 377.1 Q 49.5 377.4, 49.5 378.0 Q 49.5 378.6, 49.1 379.0 Q 48.7 379.3, 48.0 379.3 L 47.3 379.3 L 47.3 381.1 L 46.7 381.1 L 46.7 376.7 L 48.0 376.7 M 48.0 378.8 Q 48.4 378.8, 48.6 378.6 Q 48.8 378.4, 48.8 378.0 Q 48.8 377.6, 48.6 377.4 Q 48.4 377.2, 48.0 377.2 L 47.3 377.2 L 47.3 378.8 L 48.0 378.8 " fill="#FF7F00"/>
<path class="atom-1" d="M 49.8 377.5 L 50.6 377.5 L 50.6 376.7 L 50.9 376.7 L 50.9 377.5 L 51.7 377.5 L 51.7 377.8 L 50.9 377.8 L 50.9 378.6 L 50.6 378.6 L 50.6 377.8 L 49.8 377.8 L 49.8 377.5 " fill="#FF7F00"/>
<path class="atom-2" d="M 60.5 369.1 L 61.9 371.4 Q 62.0 371.6, 62.3 372.0 Q 62.5 372.4, 62.5 372.4 L 62.5 369.1 L 63.1 369.1 L 63.1 373.4 L 62.5 373.4 L 61.0 370.9 Q 60.8 370.6, 60.6 370.3 Q 60.4 369.9, 60.3 369.8 L 60.3 373.4 L 59.8 373.4 L 59.8 369.1 L 60.5 369.1 " fill="#0000FF"/>
<path class="atom-2" d="M 59.7 364.3 L 60.3 364.3 L 60.3 366.1 L 62.6 366.1 L 62.6 364.3 L 63.1 364.3 L 63.1 368.6 L 62.6 368.6 L 62.6 366.6 L 60.3 366.6 L 60.3 368.6 L 59.7 368.6 L 59.7 364.3 " fill="#0000FF"/>
<path class="atom-2" d="M 63.4 368.5 Q 63.5 368.2, 63.7 368.0 Q 64.0 367.9, 64.3 367.9 Q 64.7 367.9, 65.0 368.1 Q 65.2 368.4, 65.2 368.8 Q 65.2 369.2, 64.9 369.6 Q 64.6 370.0, 64.0 370.5 L 65.3 370.5 L 65.3 370.8 L 63.3 370.8 L 63.3 370.5 Q 63.9 370.2, 64.2 369.9 Q 64.5 369.6, 64.7 369.3 Q 64.8 369.1, 64.8 368.8 Q 64.8 368.5, 64.7 368.4 Q 64.6 368.2, 64.3 368.2 Q 64.1 368.2, 63.9 368.3 Q 63.8 368.4, 63.7 368.6 L 63.4 368.5 " fill="#0000FF"/>
<path class="atom-2" d="M 63.5 365.0 L 64.3 365.0 L 64.3 364.2 L 64.6 364.2 L 64.6 365.0 L 65.4 365.0 L 65.4 365.3 L 64.6 365.3 L 64.6 366.2 L 64.3 366.2 L 64.3 365.3 L 63.5 365.3 L 63.5 365.0 " fill="#0000FF"/>
<path class="atom-3" d="M 73.8 376.8 L 75.2 379.1 Q 75.4 379.3, 75.6 379.8 Q 75.8 380.2, 75.8 380.2 L 75.8 376.8 L 76.4 376.8 L 76.4 381.2 L 75.8 381.2 L 74.3 378.6 Q 74.1 378.3, 73.9 378.0 Q 73.7 377.7, 73.7 377.6 L 73.7 381.2 L 73.1 381.2 L 73.1 376.8 L 73.8 376.8 " fill="#0000FF"/>
<path class="atom-3" d="M 73.0 381.6 L 73.6 381.6 L 73.6 383.5 L 75.9 383.5 L 75.9 381.6 L 76.5 381.6 L 76.5 386.0 L 75.9 386.0 L 75.9 383.9 L 73.6 383.9 L 73.6 386.0 L 73.0 386.0 L 73.0 381.6 " fill="#0000FF"/>
<path class="atom-4" d="M 86.9 372.8 Q 86.9 372.8, 87.1 372.9 Q 87.3 373.0, 87.6 373.1 Q 87.8 373.1, 88.0 373.1 Q 88.4 373.1, 88.7 372.9 Q 88.9 372.7, 88.9 372.4 Q 88.9 372.1, 88.8 372.0 Q 88.7 371.8, 88.5 371.8 Q 88.3 371.7, 88.0 371.6 Q 87.6 371.5, 87.4 371.4 Q 87.1 371.2, 87.0 371.0 Q 86.8 370.8, 86.8 370.4 Q 86.8 369.8, 87.2 369.5 Q 87.6 369.2, 88.3 369.2 Q 88.8 369.2, 89.4 369.4 L 89.2 369.9 Q 88.7 369.7, 88.3 369.7 Q 87.9 369.7, 87.7 369.8 Q 87.4 370.0, 87.4 370.3 Q 87.4 370.5, 87.5 370.7 Q 87.7 370.8, 87.8 370.9 Q 88.0 371.0, 88.3 371.1 Q 88.7 371.2, 88.9 371.3 Q 89.2 371.4, 89.3 371.7 Q 89.5 371.9, 89.5 372.4 Q 89.5 373.0, 89.1 373.3 Q 88.7 373.6, 88.0 373.6 Q 87.6 373.6, 87.3 373.5 Q 87.1 373.5, 86.7 373.3 L 86.9 372.8 " fill="#CCCC00"/>
<path class="atom-6" d="M 113.8 369.2 L 115.3 371.5 Q 115.4 371.8, 115.6 372.2 Q 115.9 372.6, 115.9 372.6 L 115.9 369.2 L 116.4 369.2 L 116.4 373.6 L 115.8 373.6 L 114.3 371.1 Q 114.1 370.8, 113.9 370.4 Q 113.8 370.1, 113.7 370.0 L 113.7 373.6 L 113.1 373.6 L 113.1 369.2 L 113.8 369.2 " fill="#0000FF"/>
<path class="atom-8" d="M 140.2 373.0 Q 140.3 373.0, 140.5 373.1 Q 140.7 373.2, 140.9 373.2 Q 141.1 373.3, 141.4 373.3 Q 141.8 373.3, 142.0 373.1 Q 142.3 372.9, 142.3 372.5 Q 142.3 372.3, 142.1 372.1 Q 142.0 372.0, 141.8 371.9 Q 141.6 371.8, 141.3 371.7 Q 141.0 371.6, 140.7 371.5 Q 140.5 371.4, 140.3 371.2 Q 140.2 370.9, 140.2 370.5 Q 140.2 370.0, 140.5 369.7 Q 140.9 369.3, 141.6 369.3 Q 142.2 369.3, 142.7 369.6 L 142.6 370.0 Q 142.1 369.8, 141.7 369.8 Q 141.2 369.8, 141.0 370.0 Q 140.8 370.2, 140.8 370.5 Q 140.8 370.7, 140.9 370.8 Q 141.0 371.0, 141.2 371.1 Q 141.4 371.2, 141.7 371.2 Q 142.1 371.4, 142.3 371.5 Q 142.5 371.6, 142.7 371.9 Q 142.9 372.1, 142.9 372.5 Q 142.9 373.1, 142.5 373.5 Q 142.1 373.8, 141.4 373.8 Q 141.0 373.8, 140.7 373.7 Q 140.4 373.6, 140.1 373.5 L 140.2 373.0 " fill="#CCCC00"/>
<path class="atom-9" d="M 153.5 380.7 Q 153.6 380.8, 153.8 380.8 Q 154.0 380.9, 154.2 381.0 Q 154.5 381.0, 154.7 381.0 Q 155.1 381.0, 155.3 380.8 Q 155.6 380.6, 155.6 380.3 Q 155.6 380.0, 155.4 379.9 Q 155.3 379.7, 155.1 379.7 Q 155.0 379.6, 154.7 379.5 Q 154.3 379.4, 154.0 379.3 Q 153.8 379.2, 153.6 378.9 Q 153.5 378.7, 153.5 378.3 Q 153.5 377.7, 153.8 377.4 Q 154.2 377.1, 155.0 377.1 Q 155.5 377.1, 156.0 377.3 L 155.9 377.8 Q 155.4 377.6, 155.0 377.6 Q 154.6 377.6, 154.3 377.7 Q 154.1 377.9, 154.1 378.2 Q 154.1 378.5, 154.2 378.6 Q 154.3 378.7, 154.5 378.8 Q 154.7 378.9, 155.0 379.0 Q 155.4 379.1, 155.6 379.2 Q 155.8 379.4, 156.0 379.6 Q 156.2 379.9, 156.2 380.3 Q 156.2 380.9, 155.8 381.2 Q 155.4 381.5, 154.7 381.5 Q 154.3 381.5, 154.0 381.4 Q 153.7 381.4, 153.4 381.2 L 153.5 380.7 " fill="#CCCC00"/>
<path class="atom-10" d="M 167.2 369.4 L 168.6 371.7 Q 168.8 371.9, 169.0 372.4 Q 169.2 372.8, 169.2 372.8 L 169.2 369.4 L 169.8 369.4 L 169.8 373.8 L 169.2 373.8 L 167.7 371.2 Q 167.5 370.9, 167.3 370.6 Q 167.1 370.3, 167.1 370.2 L 167.1 373.8 L 166.5 373.8 L 166.5 369.4 L 167.2 369.4 " fill="#0000FF"/>
<path class="atom-10" d="M 170.2 370.2 L 170.9 370.2 L 170.9 369.4 L 171.3 369.4 L 171.3 370.2 L 172.1 370.2 L 172.1 370.5 L 171.3 370.5 L 171.3 371.3 L 170.9 371.3 L 170.9 370.5 L 170.2 370.5 L 170.2 370.2 " fill="#0000FF"/>
<path class="atom-10" d="M 166.4 374.2 L 167.0 374.2 L 167.0 376.1 L 169.3 376.1 L 169.3 374.2 L 169.9 374.2 L 169.9 378.6 L 169.3 378.6 L 169.3 376.5 L 167.0 376.5 L 167.0 378.6 L 166.4 378.6 L 166.4 374.2 " fill="#0000FF"/>
<path class="atom-11" d="M 166.2 356.2 Q 166.2 355.1, 166.7 354.6 Q 167.2 354.0, 168.2 354.0 Q 169.2 354.0, 169.7 354.6 Q 170.2 355.1, 170.2 356.2 Q 170.2 357.3, 169.7 357.9 Q 169.1 358.5, 168.2 358.5 Q 167.2 358.5, 166.7 357.9 Q 166.2 357.3, 166.2 356.2 M 168.2 358.0 Q 168.9 358.0, 169.2 357.5 Q 169.6 357.1, 169.6 356.2 Q 169.6 355.3, 169.2 354.9 Q 168.9 354.5, 168.2 354.5 Q 167.5 354.5, 167.2 354.9 Q 166.8 355.3, 166.8 356.2 Q 166.8 357.1, 167.2 357.5 Q 167.5 358.0, 168.2 358.0 " fill="#FF0000"/>
<path class="atom-11" d="M 170.4 354.7 L 171.9 354.7 L 171.9 355.0 L 170.4 355.0 L 170.4 354.7 " fill="#FF0000"/>
<path class="atom-12" d="M 180.5 377.1 L 181.9 379.5 Q 182.1 379.7, 182.3 380.1 Q 182.5 380.5, 182.5 380.5 L 182.5 377.1 L 183.1 377.1 L 183.1 381.5 L 182.5 381.5 L 181.0 379.0 Q 180.8 378.7, 180.6 378.3 Q 180.4 378.0, 180.4 377.9 L 180.4 381.5 L 179.8 381.5 L 179.8 377.1 L 180.5 377.1 " fill="#0000FF"/>
<path class="atom-13" d="M 194.7 369.5 Q 195.5 369.5, 195.8 369.8 Q 196.2 370.2, 196.2 370.8 Q 196.2 371.4, 195.8 371.7 Q 195.4 372.1, 194.7 372.1 L 194.0 372.1 L 194.0 373.8 L 193.4 373.8 L 193.4 369.5 L 194.7 369.5 M 194.7 371.6 Q 195.1 371.6, 195.4 371.4 Q 195.6 371.2, 195.6 370.8 Q 195.6 370.4, 195.4 370.2 Q 195.1 370.0, 194.7 370.0 L 194.0 370.0 L 194.0 371.6 L 194.7 371.6 " fill="#FF7F00"/>
<path class="atom-14" d="M 207.2 377.2 L 208.6 379.5 Q 208.7 379.8, 209.0 380.2 Q 209.2 380.6, 209.2 380.6 L 209.2 377.2 L 209.8 377.2 L 209.8 381.6 L 209.2 381.6 L 207.7 379.1 Q 207.5 378.8, 207.3 378.4 Q 207.1 378.1, 207.0 378.0 L 207.0 381.6 L 206.5 381.6 L 206.5 377.2 L 207.2 377.2 " fill="#0000FF"/>
<path class="atom-14" d="M 210.2 378.0 L 210.9 378.0 L 210.9 377.2 L 211.3 377.2 L 211.3 378.0 L 212.1 378.0 L 212.1 378.3 L 211.3 378.3 L 211.3 379.1 L 210.9 379.1 L 210.9 378.3 L 210.2 378.3 L 210.2 378.0 " fill="#0000FF"/>
<path class="atom-14" d="M 206.4 382.0 L 207.0 382.0 L 207.0 383.9 L 209.3 383.9 L 209.3 382.0 L 209.8 382.0 L 209.8 386.4 L 209.3 386.4 L 209.3 384.4 L 207.0 384.4 L 207.0 386.4 L 206.4 386.4 L 206.4 382.0 " fill="#0000FF"/>
<path class="atom-14" d="M 210.1 386.2 Q 210.2 386.0, 210.4 385.8 Q 210.7 385.7, 211.0 385.7 Q 211.4 385.7, 211.7 385.9 Q 211.9 386.1, 211.9 386.5 Q 211.9 387.0, 211.6 387.4 Q 211.3 387.8, 210.7 388.2 L 212.0 388.2 L 212.0 388.6 L 210.0 388.6 L 210.0 388.3 Q 210.6 387.9, 210.9 387.6 Q 211.2 387.3, 211.4 387.1 Q 211.5 386.8, 211.5 386.6 Q 211.5 386.3, 211.4 386.1 Q 211.3 386.0, 211.0 386.0 Q 210.8 386.0, 210.6 386.1 Q 210.5 386.2, 210.4 386.4 L 210.1 386.2 " fill="#0000FF"/>
<path class="atom-15" d="M 220.3 373.2 Q 220.3 373.3, 220.5 373.4 Q 220.7 373.4, 220.9 373.5 Q 221.2 373.5, 221.4 373.5 Q 221.8 373.5, 222.0 373.3 Q 222.3 373.1, 222.3 372.8 Q 222.3 372.6, 222.2 372.4 Q 222.0 372.3, 221.9 372.2 Q 221.7 372.1, 221.4 372.0 Q 221.0 371.9, 220.7 371.8 Q 220.5 371.7, 220.4 371.4 Q 220.2 371.2, 220.2 370.8 Q 220.2 370.3, 220.6 369.9 Q 220.9 369.6, 221.7 369.6 Q 222.2 369.6, 222.8 369.8 L 222.6 370.3 Q 222.1 370.1, 221.7 370.1 Q 221.3 370.1, 221.0 370.3 Q 220.8 370.4, 220.8 370.7 Q 220.8 371.0, 220.9 371.1 Q 221.0 371.2, 221.2 371.3 Q 221.4 371.4, 221.7 371.5 Q 222.1 371.6, 222.3 371.7 Q 222.6 371.9, 222.7 372.1 Q 222.9 372.4, 222.9 372.8 Q 222.9 373.4, 222.5 373.7 Q 222.1 374.0, 221.4 374.0 Q 221.0 374.0, 220.7 374.0 Q 220.4 373.9, 220.1 373.7 L 220.3 373.2 " fill="#CCCC00"/>
<path class="atom-15" d="M 223.1 370.2 L 224.6 370.2 L 224.6 370.6 L 223.1 370.6 L 223.1 370.2 " fill="#CCCC00"/>
<path class="atom-16" d="M 235.5 379.4 Q 235.9 379.5, 236.1 379.8 Q 236.3 380.0, 236.3 380.4 Q 236.3 381.0, 235.9 381.3 Q 235.5 381.7, 234.8 381.7 L 233.3 381.7 L 233.3 377.3 L 234.6 377.3 Q 235.4 377.3, 235.7 377.6 Q 236.1 377.9, 236.1 378.5 Q 236.1 379.1, 235.5 379.4 M 233.9 377.8 L 233.9 379.2 L 234.6 379.2 Q 235.1 379.2, 235.3 379.0 Q 235.5 378.8, 235.5 378.5 Q 235.5 377.8, 234.6 377.8 L 233.9 377.8 M 234.8 381.2 Q 235.2 381.2, 235.5 381.0 Q 235.7 380.8, 235.7 380.4 Q 235.7 380.0, 235.4 379.9 Q 235.2 379.7, 234.7 379.7 L 233.9 379.7 L 233.9 381.2 L 234.8 381.2 " fill="#7F4C19"/>
<path class="atom-16" d="M 237.3 378.5 L 237.4 378.9 Q 237.7 378.5, 238.2 378.5 Q 238.4 378.5, 238.6 378.5 L 238.5 379.0 Q 238.3 379.0, 238.1 379.0 Q 237.9 379.0, 237.7 379.1 Q 237.5 379.2, 237.4 379.4 L 237.4 381.7 L 236.8 381.7 L 236.8 378.5 L 237.3 378.5 " fill="#7F4C19"/>
<path d="M 32.8,370.5 L 32.7,370.5 L 32.7,370.5 L 32.7,370.5 L 32.7,370.4 L 32.7,370.4 L 32.7,370.4 L 32.7,370.4 L 32.7,370.3 L 32.7,370.3 L 32.6,370.3 L 32.6,370.3 L 32.6,370.3 L 32.6,370.3 L 32.6,370.3 L 32.5,370.2 L 32.5,370.2 L 32.5,370.2 L 32.4,370.2 L 32.4,370.2 L 32.4,370.2 L 32.4,370.2 L 32.3,370.2 L 32.3,370.3 L 32.3,370.3 L 32.3,370.3 L 32.3,370.3 L 32.2,370.3 L 32.2,370.3 L 32.2,370.4 L 32.2,370.4 L 32.2,370.4 L 32.2,370.4 L 32.1,370.4 L 32.1,370.5 L 32.1,370.5 L 32.1,370.5 L 32.1,370.6 L 32.1,370.6 L 32.1,370.6 L 32.1,370.6 L 32.2,370.7 L 32.2,370.7 L 32.2,370.7 L 32.2,370.7 L 32.2,370.7 L 32.2,370.8 L 32.3,370.8 L 32.3,370.8 L 32.3,370.8 L 32.3,370.8 L 32.3,370.8 L 32.4,370.8 L 32.4,370.8 L 32.4,370.8 L 32.4,370.8 L 32.5,370.8 L 32.5,370.8 L 32.5,370.8 L 32.6,370.8 L 32.6,370.8 L 32.6,370.8 L 32.6,370.8 L 32.6,370.8 L 32.7,370.8 L 32.7,370.7 L 32.7,370.7 L 32.7,370.7 L 32.7,370.7 L 32.7,370.6 L 32.7,370.6 L 32.7,370.6 L 32.7,370.6 L 32.8,370.5 L 32.4,370.5 Z" style="fill:#000000;fill-rule:evenodd;fill-opacity:1;stroke:#000000;stroke-width:0.0px;stroke-linecap:butt;stroke-linejoin:miter;stroke-opacity:1;"/>
<path d="M 32.8,371.8 L 32.7,371.7 L 32.7,371.7 L 32.7,371.7 L 32.7,371.7 L 32.7,371.6 L 32.7,371.6 L 32.7,371.6 L 32.7,371.6 L 32.7,371.6 L 32.6,371.5 L 32.6,371.5 L 32.6,371.5 L 32.6,371.5 L 32.6,371.5 L 32.5,371.5 L 32.5,371.5 L 32.5,371.5 L 32.4,371.5 L 32.4,371.5 L 32.4,371.5 L 32.4,371.5 L 32.3,371.5 L 32.3,371.5 L 32.3,371.5 L 32.3,371.5 L 32.3,371.5 L 32.2,371.5 L 32.2,371.6 L 32.2,371.6 L 32.2,371.6 L 32.2,371.6 L 32.2,371.7 L 32.1,371.7 L 32.1,371.7 L 32.1,371.7 L 32.1,371.8 L 32.1,371.8 L 32.1,371.8 L 32.1,371.8 L 32.1,371.9 L 32.2,371.9 L 32.2,371.9 L 32.2,371.9 L 32.2,372.0 L 32.2,372.0 L 32.2,372.0 L 32.3,372.0 L 32.3,372.0 L 32.3,372.0 L 32.3,372.1 L 32.3,372.1 L 32.4,372.1 L 32.4,372.1 L 32.4,372.1 L 32.4,372.1 L 32.5,372.1 L 32.5,372.1 L 32.5,372.1 L 32.6,372.1 L 32.6,372.1 L 32.6,372.0 L 32.6,372.0 L 32.6,372.0 L 32.7,372.0 L 32.7,372.0 L 32.7,371.9 L 32.7,371.9 L 32.7,371.9 L 32.7,371.9 L 32.7,371.9 L 32.7,371.8 L 32.7,371.8 L 32.8,371.8 L 32.4,371.8 Z" style="fill:#000000;fill-rule:evenodd;fill-opacity:1;stroke:#000000;stroke-width:0.0px;stroke-linecap:butt;stroke-linejoin:miter;stroke-opacity:1;"/>
<path d="M 49.0,381.5 L 49.0,381.5 L 49.0,381.5 L 49.0,381.5 L 49.0,381.4 L 49.0,381.4 L 49.0,381.4 L 48.9,381.4 L 48.9,381.3 L 48.9,381.3 L 48.9,381.3 L 48.9,381.3 L 48.8,381.3 L 48.8,381.3 L 48.8,381.3 L 48.8,381.2 L 48.7,381.2 L 48.7,381.2 L 48.7,381.2 L 48.7,381.2 L 48.6,381.2 L 48.6,381.2 L 48.6,381.3 L 48.6,381.3 L 48.5,381.3 L 48.5,381.3 L 48.5,381.3 L 48.5,381.3 L 48.5,381.3 L 48.4,381.4 L 48.4,381.4 L 48.4,381.4 L 48.4,381.4 L 48.4,381.5 L 48.4,381.5 L 48.4,381.5 L 48.4,381.5 L 48.4,381.6 L 48.4,381.6 L 48.4,381.6 L 48.4,381.6 L 48.4,381.7 L 48.4,381.7 L 48.4,381.7 L 48.4,381.7 L 48.5,381.7 L 48.5,381.8 L 48.5,381.8 L 48.5,381.8 L 48.5,381.8 L 48.6,381.8 L 48.6,381.8 L 48.6,381.8 L 48.6,381.8 L 48.7,381.9 L 48.7,381.9 L 48.7,381.9 L 48.7,381.8 L 48.8,381.8 L 48.8,381.8 L 48.8,381.8 L 48.8,381.8 L 48.9,381.8 L 48.9,381.8 L 48.9,381.8 L 48.9,381.7 L 48.9,381.7 L 49.0,381.7 L 49.0,381.7 L 49.0,381.6 L 49.0,381.6 L 49.0,381.6 L 49.0,381.6 L 49.0,381.5 L 48.7,381.5 Z" style="fill:#000000;fill-rule:evenodd;fill-opacity:1;stroke:#000000;stroke-width:0.0px;stroke-linecap:butt;stroke-linejoin:miter;stroke-opacity:1;"/>
<path d="M 47.8,381.5 L 47.8,381.5 L 47.8,381.5 L 47.8,381.5 L 47.7,381.4 L 47.7,381.4 L 47.7,381.4 L 47.7,381.4 L 47.7,381.3 L 47.7,381.3 L 47.7,381.3 L 47.6,381.3 L 47.6,381.3 L 47.6,381.3 L 47.6,381.3 L 47.5,381.2 L 47.5,381.2 L 47.5,381.2 L 47.5,381.2 L 47.4,381.2 L 47.4,381.2 L 47.4,381.2 L 47.4,381.3 L 47.3,381.3 L 47.3,381.3 L 47.3,381.3 L 47.3,381.3 L 47.2,381.3 L 47.2,381.3 L 47.2,381.4 L 47.2,381.4 L 47.2,381.4 L 47.2,381.4 L 47.2,381.5 L 47.2,381.5 L 47.2,381.5 L 47.1,381.5 L 47.1,381.6 L 47.2,381.6 L 47.2,381.6 L 47.2,381.6 L 47.2,381.7 L 47.2,381.7 L 47.2,381.7 L 47.2,381.7 L 47.2,381.7 L 47.2,381.8 L 47.3,381.8 L 47.3,381.8 L 47.3,381.8 L 47.3,381.8 L 47.4,381.8 L 47.4,381.8 L 47.4,381.8 L 47.4,381.9 L 47.5,381.9 L 47.5,381.9 L 47.5,381.8 L 47.5,381.8 L 47.6,381.8 L 47.6,381.8 L 47.6,381.8 L 47.6,381.8 L 47.7,381.8 L 47.7,381.8 L 47.7,381.7 L 47.7,381.7 L 47.7,381.7 L 47.7,381.7 L 47.7,381.6 L 47.8,381.6 L 47.8,381.6 L 47.8,381.6 L 47.8,381.5 L 47.5,381.5 Z" style="fill:#000000;fill-rule:evenodd;fill-opacity:1;stroke:#000000;stroke-width:0.0px;stroke-linecap:butt;stroke-linejoin:miter;stroke-opacity:1;"/>
<path d="M 128.4,380.5 L 128.4,380.5 L 128.4,380.5 L 128.4,380.5 L 128.4,380.4 L 128.4,380.4 L 128.4,380.4 L 128.4,380.4 L 128.3,380.3 L 128.3,380.3 L 128.3,380.3 L 128.3,380.3 L 128.3,380.3 L 128.2,380.3 L 128.2,380.3 L 128.2,380.2 L 128.2,380.2 L 128.1,380.2 L 128.1,380.2 L 128.1,380.2 L 128.1,380.2 L 128.0,380.2 L 128.0,380.2 L 128.0,380.3 L 128.0,380.3 L 127.9,380.3 L 127.9,380.3 L 127.9,380.3 L 127.9,380.3 L 127.9,380.4 L 127.8,380.4 L 127.8,380.4 L 127.8,380.4 L 127.8,380.4 L 127.8,380.5 L 127.8,380.5 L 127.8,380.5 L 127.8,380.6 L 127.8,380.6 L 127.8,380.6 L 127.8,380.6 L 127.8,380.7 L 127.8,380.7 L 127.8,380.7 L 127.9,380.7 L 127.9,380.7 L 127.9,380.8 L 127.9,380.8 L 127.9,380.8 L 128.0,380.8 L 128.0,380.8 L 128.0,380.8 L 128.0,380.8 L 128.1,380.8 L 128.1,380.8 L 128.1,380.8 L 128.1,380.8 L 128.2,380.8 L 128.2,380.8 L 128.2,380.8 L 128.2,380.8 L 128.3,380.8 L 128.3,380.8 L 128.3,380.8 L 128.3,380.8 L 128.3,380.7 L 128.4,380.7 L 128.4,380.7 L 128.4,380.7 L 128.4,380.6 L 128.4,380.6 L 128.4,380.6 L 128.4,380.6 L 128.4,380.5 L 128.1,380.5 Z" style="fill:#000000;fill-rule:evenodd;fill-opacity:1;stroke:#000000;stroke-width:0.0px;stroke-linecap:butt;stroke-linejoin:miter;stroke-opacity:1;"/>
<path d="M 221.8,369.1 L 221.8,369.1 L 221.8,369.1 L 221.8,369.0 L 221.8,369.0 L 221.8,369.0 L 221.8,369.0 L 221.8,368.9 L 221.7,368.9 L 221.7,368.9 L 221.7,368.9 L 221.7,368.9 L 221.7,368.8 L 221.6,368.8 L 221.6,368.8 L 221.6,368.8 L 221.6,368.8 L 221.5,368.8 L 221.5,368.8 L 221.5,368.8 L 221.5,368.8 L 221.4,368.8 L 221.4,368.8 L 221.4,368.8 L 221.4,368.8 L 221.3,368.9 L 221.3,368.9 L 221.3,368.9 L 221.3,368.9 L 221.3,368.9 L 221.2,368.9 L 221.2,369.0 L 221.2,369.0 L 221.2,369.0 L 221.2,369.0 L 221.2,369.1 L 221.2,369.1 L 221.2,369.1 L 221.2,369.2 L 221.2,369.2 L 221.2,369.2 L 221.2,369.2 L 221.2,369.3 L 221.2,369.3 L 221.3,369.3 L 221.3,369.3 L 221.3,369.3 L 221.3,369.4 L 221.3,369.4 L 221.4,369.4 L 221.4,369.4 L 221.4,369.4 L 221.4,369.4 L 221.5,369.4 L 221.5,369.4 L 221.5,369.4 L 221.5,369.4 L 221.6,369.4 L 221.6,369.4 L 221.6,369.4 L 221.6,369.4 L 221.7,369.4 L 221.7,369.4 L 221.7,369.3 L 221.7,369.3 L 221.7,369.3 L 221.8,369.3 L 221.8,369.3 L 221.8,369.2 L 221.8,369.2 L 221.8,369.2 L 221.8,369.2 L 221.8,369.1 L 221.8,369.1 L 221.5,369.1 Z" style="fill:#000000;fill-rule:evenodd;fill-opacity:1;stroke:#000000;stroke-width:0.0px;stroke-linecap:butt;stroke-linejoin:miter;stroke-opacity:1;"/>
<path class="bond-0 atom-0 atom-1" d="M 379.1,374.2 L 385.6,374.2" style="fill:none;fill-rule:evenodd;stroke:#000000;stroke-width:2.0px;stroke-linecap:butt;stroke-linejoin:miter;stroke-opacity:1"/>
<path class="bond-0 atom-0 atom-1" d="M 385.6,374.2 L 392.1,374.2" style="fill:none;fill-rule:evenodd;stroke:#FF0000;stroke-width:2.0px;stroke-linecap:butt;stroke-linejoin:miter;stroke-opacity:1"/>
<path class="atom-1" d="M 392.5 374.2 Q 392.5 373.2, 393.0 372.6 Q 393.5 372.0, 394.5 372.0 Q 395.4 372.0, 395.9 372.6 Q 396.5 373.2, 396.5 374.2 Q 396.5 375.3, 395.9 375.9 Q 395.4 376.5, 394.5 376.5 Q 393.5 376.5, 393.0 375.9 Q 392.5 375.3, 392.5 374.2 M 394.5 376.0 Q 395.1 376.0, 395.5 375.5 Q 395.8 375.1, 395.8 374.2 Q 395.8 373.4, 395.5 372.9 Q 395.1 372.5, 394.5 372.5 Q 393.8 372.5, 393.4 372.9 Q 393.1 373.3, 393.1 374.2 Q 393.1 375.1, 393.4 375.5 Q 393.8 376.0, 394.5 376.0 " fill="#FF0000"/>
<path class="atom-1" d="M 396.7 372.7 L 398.2 372.7 L 398.2 373.0 L 396.7 373.0 L 396.7 372.7 " fill="#FF0000"/>
<path d="M 377.5,373.6 L 377.5,373.6 L 377.5,373.5 L 377.5,373.5 L 377.5,373.5 L 377.5,373.5 L 377.5,373.4 L 377.5,373.4 L 377.4,373.4 L 377.4,373.4 L 377.4,373.3 L 377.4,373.3 L 377.4,373.3 L 377.3,373.3 L 377.3,373.3 L 377.3,373.3 L 377.3,373.3 L 377.2,373.3 L 377.2,373.3 L 377.2,373.3 L 377.2,373.3 L 377.1,373.3 L 377.1,373.3 L 377.1,373.3 L 377.1,373.3 L 377.0,373.3 L 377.0,373.3 L 377.0,373.4 L 377.0,373.4 L 377.0,373.4 L 376.9,373.4 L 376.9,373.4 L 376.9,373.5 L 376.9,373.5 L 376.9,373.5 L 376.9,373.5 L 376.9,373.6 L 376.9,373.6 L 376.9,373.6 L 376.9,373.6 L 376.9,373.7 L 376.9,373.7 L 376.9,373.7 L 376.9,373.7 L 377.0,373.8 L 377.0,373.8 L 377.0,373.8 L 377.0,373.8 L 377.0,373.8 L 377.1,373.9 L 377.1,373.9 L 377.1,373.9 L 377.1,373.9 L 377.2,373.9 L 377.2,373.9 L 377.2,373.9 L 377.2,373.9 L 377.3,373.9 L 377.3,373.9 L 377.3,373.9 L 377.3,373.9 L 377.4,373.8 L 377.4,373.8 L 377.4,373.8 L 377.4,373.8 L 377.4,373.8 L 377.5,373.8 L 377.5,373.7 L 377.5,373.7 L 377.5,373.7 L 377.5,373.7 L 377.5,373.6 L 377.5,373.6 L 377.5,373.6 L 377.2,373.6 Z" style="fill:#000000;fill-rule:evenodd;fill-opacity:1;stroke:#000000;stroke-width:0.0px;stroke-linecap:butt;stroke-linejoin:miter;stroke-opacity:1;"/>
<path d="M 377.5,374.8 L 377.5,374.8 L 377.5,374.8 L 377.5,374.7 L 377.5,374.7 L 377.5,374.7 L 377.5,374.7 L 377.5,374.6 L 377.4,374.6 L 377.4,374.6 L 377.4,374.6 L 377.4,374.6 L 377.4,374.6 L 377.3,374.5 L 377.3,374.5 L 377.3,374.5 L 377.3,374.5 L 377.2,374.5 L 377.2,374.5 L 377.2,374.5 L 377.2,374.5 L 377.1,374.5 L 377.1,374.5 L 377.1,374.5 L 377.1,374.5 L 377.0,374.6 L 377.0,374.6 L 377.0,374.6 L 377.0,374.6 L 377.0,374.6 L 376.9,374.7 L 376.9,374.7 L 376.9,374.7 L 376.9,374.7 L 376.9,374.7 L 376.9,374.8 L 376.9,374.8 L 376.9,374.8 L 376.9,374.9 L 376.9,374.9 L 376.9,374.9 L 376.9,374.9 L 376.9,375.0 L 376.9,375.0 L 377.0,375.0 L 377.0,375.0 L 377.0,375.0 L 377.0,375.1 L 377.0,375.1 L 377.1,375.1 L 377.1,375.1 L 377.1,375.1 L 377.1,375.1 L 377.2,375.1 L 377.2,375.1 L 377.2,375.1 L 377.2,375.1 L 377.3,375.1 L 377.3,375.1 L 377.3,375.1 L 377.3,375.1 L 377.4,375.1 L 377.4,375.1 L 377.4,375.0 L 377.4,375.0 L 377.4,375.0 L 377.5,375.0 L 377.5,375.0 L 377.5,374.9 L 377.5,374.9 L 377.5,374.9 L 377.5,374.9 L 377.5,374.8 L 377.5,374.8 L 377.2,374.8 Z" style="fill:#000000;fill-rule:evenodd;fill-opacity:1;stroke:#000000;stroke-width:0.0px;stroke-linecap:butt;stroke-linejoin:miter;stroke-opacity:1;"/>
<path class="atom-0" d="M 635.8 372.0 L 637.2 374.3 Q 637.4 374.6, 637.6 375.0 Q 637.8 375.4, 637.8 375.4 L 637.8 372.0 L 638.4 372.0 L 638.4 376.4 L 637.8 376.4 L 636.3 373.9 Q 636.1 373.6, 635.9 373.2 Q 635.7 372.9, 635.7 372.8 L 635.7 376.4 L 635.1 376.4 L 635.1 372.0 L 635.8 372.0 " fill="#0000FF"/>
<path class="atom-0" d="M 638.9 372.0 L 639.5 372.0 L 639.5 373.9 L 641.8 373.9 L 641.8 372.0 L 642.3 372.0 L 642.3 376.4 L 641.8 376.4 L 641.8 374.4 L 639.5 374.4 L 639.5 376.4 L 638.9 376.4 L 638.9 372.0 " fill="#0000FF"/>
<path class="atom-0" d="M 642.7 372.8 L 643.5 372.8 L 643.5 372.0 L 643.8 372.0 L 643.8 372.8 L 644.6 372.8 L 644.6 373.1 L 643.8 373.1 L 643.8 373.9 L 643.5 373.9 L 643.5 373.1 L 642.7 373.1 L 642.7 372.8 " fill="#0000FF"/>
<path d="M 645.8,374.2 L 645.8,374.2 L 645.8,374.1 L 645.8,374.1 L 645.8,374.1 L 645.8,374.1 L 645.8,374.0 L 645.8,374.0 L 645.8,374.0 L 645.8,374.0 L 645.7,374.0 L 645.7,373.9 L 645.7,373.9 L 645.7,373.9 L 645.6,373.9 L 645.6,373.9 L 645.6,373.9 L 645.6,373.9 L 645.5,373.9 L 645.5,373.9 L 645.5,373.9 L 645.5,373.9 L 645.4,373.9 L 645.4,373.9 L 645.4,373.9 L 645.4,373.9 L 645.3,374.0 L 645.3,374.0 L 645.3,374.0 L 645.3,374.0 L 645.3,374.0 L 645.3,374.1 L 645.2,374.1 L 645.2,374.1 L 645.2,374.1 L 645.2,374.2 L 645.2,374.2 L 645.2,374.2 L 645.2,374.2 L 645.2,374.3 L 645.2,374.3 L 645.2,374.3 L 645.3,374.3 L 645.3,374.4 L 645.3,374.4 L 645.3,374.4 L 645.3,374.4 L 645.3,374.4 L 645.4,374.5 L 645.4,374.5 L 645.4,374.5 L 645.4,374.5 L 645.5,374.5 L 645.5,374.5 L 645.5,374.5 L 645.5,374.5 L 645.6,374.5 L 645.6,374.5 L 645.6,374.5 L 645.6,374.5 L 645.7,374.5 L 645.7,374.5 L 645.7,374.4 L 645.7,374.4 L 645.8,374.4 L 645.8,374.4 L 645.8,374.4 L 645.8,374.4 L 645.8,374.3 L 645.8,374.3 L 645.8,374.3 L 645.8,374.3 L 645.8,374.2 L 645.8,374.2 L 645.5,374.2 Z" style="fill:#000000;fill-rule:evenodd;fill-opacity:1;stroke:#000000;stroke-width:0.0px;stroke-linecap:butt;stroke-linejoin:miter;stroke-opacity:1;"/>
<path d="M 645.8,375.4 L 645.8,375.4 L 645.8,375.4 L 645.8,375.4 L 645.8,375.3 L 645.8,375.3 L 645.8,375.3 L 645.8,375.3 L 645.8,375.2 L 645.8,375.2 L 645.7,375.2 L 645.7,375.2 L 645.7,375.2 L 645.7,375.2 L 645.6,375.1 L 645.6,375.1 L 645.6,375.1 L 645.6,375.1 L 645.5,375.1 L 645.5,375.1 L 645.5,375.1 L 645.5,375.1 L 645.4,375.1 L 645.4,375.1 L 645.4,375.2 L 645.4,375.2 L 645.3,375.2 L 645.3,375.2 L 645.3,375.2 L 645.3,375.2 L 645.3,375.3 L 645.3,375.3 L 645.2,375.3 L 645.2,375.3 L 645.2,375.4 L 645.2,375.4 L 645.2,375.4 L 645.2,375.4 L 645.2,375.5 L 645.2,375.5 L 645.2,375.5 L 645.2,375.5 L 645.3,375.6 L 645.3,375.6 L 645.3,375.6 L 645.3,375.6 L 645.3,375.7 L 645.3,375.7 L 645.4,375.7 L 645.4,375.7 L 645.4,375.7 L 645.4,375.7 L 645.5,375.7 L 645.5,375.7 L 645.5,375.7 L 645.5,375.7 L 645.6,375.7 L 645.6,375.7 L 645.6,375.7 L 645.6,375.7 L 645.7,375.7 L 645.7,375.7 L 645.7,375.7 L 645.7,375.7 L 645.8,375.6 L 645.8,375.6 L 645.8,375.6 L 645.8,375.6 L 645.8,375.6 L 645.8,375.5 L 645.8,375.5 L 645.8,375.5 L 645.8,375.5 L 645.8,375.4 L 645.5,375.4 Z" style="fill:#000000;fill-rule:evenodd;fill-opacity:1;stroke:#000000;stroke-width:0.0px;stroke-linecap:butt;stroke-linejoin:miter;stroke-opacity:1;"/>
<path d="M 645.8,373.0 L 645.8,372.9 L 645.8,372.9 L 645.8,372.9 L 645.8,372.9 L 645.8,372.8 L 645.8,372.8 L 645.8,372.8 L 645.8,372.8 L 645.8,372.8 L 645.7,372.7 L 645.7,372.7 L 645.7,372.7 L 645.7,372.7 L 645.6,372.7 L 645.6,372.7 L 645.6,372.7 L 645.6,372.7 L 645.5,372.7 L 645.5,372.7 L 645.5,372.7 L 645.5,372.7 L 645.4,372.7 L 645.4,372.7 L 645.4,372.7 L 645.4,372.7 L 645.3,372.7 L 645.3,372.7 L 645.3,372.8 L 645.3,372.8 L 645.3,372.8 L 645.3,372.8 L 645.2,372.9 L 645.2,372.9 L 645.2,372.9 L 645.2,372.9 L 645.2,373.0 L 645.2,373.0 L 645.2,373.0 L 645.2,373.0 L 645.2,373.1 L 645.2,373.1 L 645.3,373.1 L 645.3,373.1 L 645.3,373.2 L 645.3,373.2 L 645.3,373.2 L 645.3,373.2 L 645.4,373.2 L 645.4,373.2 L 645.4,373.2 L 645.4,373.3 L 645.5,373.3 L 645.5,373.3 L 645.5,373.3 L 645.5,373.3 L 645.6,373.3 L 645.6,373.3 L 645.6,373.3 L 645.6,373.3 L 645.7,373.2 L 645.7,373.2 L 645.7,373.2 L 645.7,373.2 L 645.8,373.2 L 645.8,373.2 L 645.8,373.1 L 645.8,373.1 L 645.8,373.1 L 645.8,373.1 L 645.8,373.0 L 645.8,373.0 L 645.8,373.0 L 645.8,373.0 L 645.5,373.0 Z" style="fill:#000000;fill-rule:evenodd;fill-opacity:1;stroke:#000000;stroke-width:0.0px;stroke-linecap:butt;stroke-linejoin:miter;stroke-opacity:1;"/>
<path d="M 645.8,374.2 L 645.8,374.2 L 645.8,374.1 L 645.8,374.1 L 645.8,374.1 L 645.8,374.1 L 645.8,374.0 L 645.8,374.0 L 645.8,374.0 L 645.8,374.0 L 645.7,374.0 L 645.7,373.9 L 645.7,373.9 L 645.7,373.9 L 645.6,373.9 L 645.6,373.9 L 645.6,373.9 L 645.6,373.9 L 645.5,373.9 L 645.5,373.9 L 645.5,373.9 L 645.5,373.9 L 645.4,373.9 L 645.4,373.9 L 645.4,373.9 L 645.4,373.9 L 645.3,374.0 L 645.3,374.0 L 645.3,374.0 L 645.3,374.0 L 645.3,374.0 L 645.3,374.1 L 645.2,374.1 L 645.2,374.1 L 645.2,374.1 L 645.2,374.2 L 645.2,374.2 L 645.2,374.2 L 645.2,374.2 L 645.2,374.3 L 645.2,374.3 L 645.2,374.3 L 645.3,374.3 L 645.3,374.4 L 645.3,374.4 L 645.3,374.4 L 645.3,374.4 L 645.3,374.4 L 645.4,374.5 L 645.4,374.5 L 645.4,374.5 L 645.4,374.5 L 645.5,374.5 L 645.5,374.5 L 645.5,374.5 L 645.5,374.5 L 645.6,374.5 L 645.6,374.5 L 645.6,374.5 L 645.6,374.5 L 645.7,374.5 L 645.7,374.5 L 645.7,374.4 L 645.7,374.4 L 645.8,374.4 L 645.8,374.4 L 645.8,374.4 L 645.8,374.4 L 645.8,374.3 L 645.8,374.3 L 645.8,374.3 L 645.8,374.3 L 645.8,374.2 L 645.8,374.2 L 645.5,374.2 Z" style="fill:#000000;fill-rule:evenodd;fill-opacity:1;stroke:#000000;stroke-width:0.0px;stroke-linecap:butt;stroke-linejoin:miter;stroke-opacity:1;"/>
<path class="bond-0 atom-0 atom-1" d="M 92.3,629.2 L 100.5,622.2" style="fill:none;fill-rule:evenodd;stroke:#CCCC00;stroke-width:2.0px;stroke-linecap:butt;stroke-linejoin:miter;stroke-opacity:1"/>
<path class="bond-1 atom-1 atom-2" d="M 104.0,621.4 L 109.4,623.3" style="fill:none;fill-rule:evenodd;stroke:#CCCC00;stroke-width:2.0px;stroke-linecap:butt;stroke-linejoin:miter;stroke-opacity:1"/>
<path class="bond-1 atom-1 atom-2" d="M 109.4,623.3 L 114.7,625.2" style="fill:none;fill-rule:evenodd;stroke:#0000FF;stroke-width:2.0px;stroke-linecap:butt;stroke-linejoin:miter;stroke-opacity:1"/>
<path class="bond-2 atom-2 atom-3" d="M 118.8,624.2 L 123.6,620.1" style="fill:none;fill-rule:evenodd;stroke:#0000FF;stroke-width:2.0px;stroke-linecap:butt;stroke-linejoin:miter;stroke-opacity:1"/>
<path class="bond-2 atom-2 atom-3" d="M 123.6,620.1 L 128.5,615.9" style="fill:none;fill-rule:evenodd;stroke:#000000;stroke-width:2.0px;stroke-linecap:butt;stroke-linejoin:miter;stroke-opacity:1"/>
<path class="bond-3 atom-3 atom-4" d="M 128.5,615.9 L 134.8,618.2" style="fill:none;fill-rule:evenodd;stroke:#000000;stroke-width:2.0px;stroke-linecap:butt;stroke-linejoin:miter;stroke-opacity:1"/>
<path class="bond-3 atom-3 atom-4" d="M 134.8,618.2 L 141.2,620.5" style="fill:none;fill-rule:evenodd;stroke:#CCCC00;stroke-width:2.0px;stroke-linecap:butt;stroke-linejoin:miter;stroke-opacity:1"/>
<path class="bond-3 atom-3 atom-4" d="M 129.3,619.5 L 133.8,621.1" style="fill:none;fill-rule:evenodd;stroke:#000000;stroke-width:2.0px;stroke-linecap:butt;stroke-linejoin:miter;stroke-opacity:1"/>
<path class="bond-3 atom-3 atom-4" d="M 133.8,621.1 L 138.2,622.7" style="fill:none;fill-rule:evenodd;stroke:#CCCC00;stroke-width:2.0px;stroke-linecap:butt;stroke-linejoin:miter;stroke-opacity:1"/>
<path class="bond-4 atom-4 atom-5" d="M 144.7,621.7 L 150.1,623.6" style="fill:none;fill-rule:evenodd;stroke:#CCCC00;stroke-width:2.0px;stroke-linecap:butt;stroke-linejoin:miter;stroke-opacity:1"/>
<path class="bond-4 atom-4 atom-5" d="M 150.1,623.6 L 155.5,625.6" style="fill:none;fill-rule:evenodd;stroke:#0000FF;stroke-width:2.0px;stroke-linecap:butt;stroke-linejoin:miter;stroke-opacity:1"/>
<path class="bond-4 atom-4 atom-5" d="M 145.3,625.2 L 149.1,626.5" style="fill:none;fill-rule:evenodd;stroke:#CCCC00;stroke-width:2.0px;stroke-linecap:butt;stroke-linejoin:miter;stroke-opacity:1"/>
<path class="bond-4 atom-4 atom-5" d="M 149.1,626.5 L 152.8,627.9" style="fill:none;fill-rule:evenodd;stroke:#0000FF;stroke-width:2.0px;stroke-linecap:butt;stroke-linejoin:miter;stroke-opacity:1"/>
<path class="bond-4 atom-4 atom-5" d="M 147.4,619.4 L 151.1,620.7" style="fill:none;fill-rule:evenodd;stroke:#CCCC00;stroke-width:2.0px;stroke-linecap:butt;stroke-linejoin:miter;stroke-opacity:1"/>
<path class="bond-4 atom-4 atom-5" d="M 151.1,620.7 L 154.9,622.1" style="fill:none;fill-rule:evenodd;stroke:#0000FF;stroke-width:2.0px;stroke-linecap:butt;stroke-linejoin:miter;stroke-opacity:1"/>
<path class="bond-5 atom-5 atom-6" d="M 159.5,627.0 L 170.0,630.7" style="fill:none;fill-rule:evenodd;stroke:#0000FF;stroke-width:2.0px;stroke-linecap:butt;stroke-linejoin:miter;stroke-opacity:1"/>
<path class="bond-6 atom-6 atom-7" d="M 174.0,629.7 L 177.9,626.4" style="fill:none;fill-rule:evenodd;stroke:#0000FF;stroke-width:2.0px;stroke-linecap:butt;stroke-linejoin:miter;stroke-opacity:1"/>
<path class="bond-6 atom-6 atom-7" d="M 177.9,626.4 L 181.7,623.2" style="fill:none;fill-rule:evenodd;stroke:#00CC00;stroke-width:2.0px;stroke-linecap:butt;stroke-linejoin:miter;stroke-opacity:1"/>
<path class="atom-0" d="M 89.3 632.2 Q 89.3 632.3, 89.5 632.3 Q 89.7 632.4, 89.9 632.5 Q 90.2 632.5, 90.4 632.5 Q 90.8 632.5, 91.0 632.3 Q 91.3 632.1, 91.3 631.8 Q 91.3 631.5, 91.2 631.4 Q 91.0 631.2, 90.8 631.2 Q 90.7 631.1, 90.4 631.0 Q 90.0 630.9, 89.7 630.8 Q 89.5 630.6, 89.3 630.4 Q 89.2 630.2, 89.2 629.8 Q 89.2 629.2, 89.5 628.9 Q 89.9 628.6, 90.7 628.6 Q 91.2 628.6, 91.7 628.8 L 91.6 629.3 Q 91.1 629.1, 90.7 629.1 Q 90.3 629.1, 90.0 629.2 Q 89.8 629.4, 89.8 629.7 Q 89.8 629.9, 89.9 630.1 Q 90.0 630.2, 90.2 630.3 Q 90.4 630.4, 90.7 630.5 Q 91.1 630.6, 91.3 630.7 Q 91.5 630.9, 91.7 631.1 Q 91.9 631.4, 91.9 631.8 Q 91.9 632.4, 91.5 632.7 Q 91.1 633.0, 90.4 633.0 Q 90.0 633.0, 89.7 632.9 Q 89.4 632.9, 89.1 632.7 L 89.3 632.2 " fill="#CCCC00"/>
<path class="atom-1" d="M 101.0 622.3 Q 101.0 622.3, 101.2 622.4 Q 101.4 622.4, 101.7 622.5 Q 101.9 622.5, 102.1 622.5 Q 102.5 622.5, 102.8 622.3 Q 103.0 622.1, 103.0 621.8 Q 103.0 621.6, 102.9 621.4 Q 102.8 621.3, 102.6 621.2 Q 102.4 621.1, 102.1 621.0 Q 101.7 620.9, 101.5 620.8 Q 101.2 620.7, 101.1 620.4 Q 100.9 620.2, 100.9 619.8 Q 100.9 619.3, 101.3 618.9 Q 101.7 618.6, 102.4 618.6 Q 102.9 618.6, 103.5 618.8 L 103.3 619.3 Q 102.8 619.1, 102.4 619.1 Q 102.0 619.1, 101.8 619.3 Q 101.5 619.4, 101.5 619.7 Q 101.5 620.0, 101.6 620.1 Q 101.8 620.2, 101.9 620.3 Q 102.1 620.4, 102.4 620.5 Q 102.8 620.6, 103.0 620.7 Q 103.3 620.9, 103.4 621.1 Q 103.6 621.4, 103.6 621.8 Q 103.6 622.4, 103.2 622.7 Q 102.8 623.0, 102.1 623.0 Q 101.7 623.0, 101.5 623.0 Q 101.2 622.9, 100.8 622.7 L 101.0 622.3 " fill="#CCCC00"/>
<path class="atom-1" d="M 103.8 619.2 L 105.3 619.2 L 105.3 619.6 L 103.8 619.6 L 103.8 619.2 " fill="#CCCC00"/>
<path class="atom-2" d="M 115.8 623.7 L 117.2 626.0 Q 117.3 626.3, 117.6 626.7 Q 117.8 627.1, 117.8 627.1 L 117.8 623.7 L 118.4 623.7 L 118.4 628.1 L 117.8 628.1 L 116.2 625.6 Q 116.1 625.3, 115.9 624.9 Q 115.7 624.6, 115.6 624.5 L 115.6 628.1 L 115.1 628.1 L 115.1 623.7 L 115.8 623.7 " fill="#0000FF"/>
<path class="atom-2" d="M 115.0 628.5 L 115.6 628.5 L 115.6 630.4 L 117.8 630.4 L 117.8 628.5 L 118.4 628.5 L 118.4 632.9 L 117.8 632.9 L 117.8 630.9 L 115.6 630.9 L 115.6 632.9 L 115.0 632.9 L 115.0 628.5 " fill="#0000FF"/>
<path class="atom-4" d="M 141.7 622.6 Q 141.8 622.6, 142.0 622.7 Q 142.2 622.8, 142.4 622.8 Q 142.6 622.9, 142.9 622.9 Q 143.3 622.9, 143.5 622.7 Q 143.8 622.5, 143.8 622.1 Q 143.8 621.9, 143.6 621.8 Q 143.5 621.6, 143.3 621.5 Q 143.1 621.4, 142.8 621.4 Q 142.4 621.2, 142.2 621.1 Q 142.0 621.0, 141.8 620.8 Q 141.7 620.5, 141.7 620.2 Q 141.7 619.6, 142.0 619.3 Q 142.4 618.9, 143.1 618.9 Q 143.6 618.9, 144.2 619.2 L 144.1 619.6 Q 143.6 619.4, 143.2 619.4 Q 142.7 619.4, 142.5 619.6 Q 142.3 619.8, 142.3 620.1 Q 142.3 620.3, 142.4 620.5 Q 142.5 620.6, 142.7 620.7 Q 142.9 620.8, 143.2 620.8 Q 143.6 621.0, 143.8 621.1 Q 144.0 621.2, 144.2 621.5 Q 144.4 621.7, 144.4 622.1 Q 144.4 622.7, 144.0 623.1 Q 143.6 623.4, 142.9 623.4 Q 142.5 623.4, 142.2 623.3 Q 141.9 623.2, 141.6 623.1 L 141.7 622.6 " fill="#CCCC00"/>
<path class="atom-5" d="M 156.5 624.1 L 157.9 626.4 Q 158.1 626.6, 158.3 627.0 Q 158.5 627.4, 158.5 627.5 L 158.5 624.1 L 159.1 624.1 L 159.1 628.4 L 158.5 628.4 L 157.0 625.9 Q 156.8 625.6, 156.6 625.3 Q 156.4 624.9, 156.4 624.8 L 156.4 628.4 L 155.8 628.4 L 155.8 624.1 L 156.5 624.1 " fill="#0000FF"/>
<path class="atom-5" d="M 159.5 624.9 L 160.3 624.9 L 160.3 624.1 L 160.6 624.1 L 160.6 624.9 L 161.4 624.9 L 161.4 625.2 L 160.6 625.2 L 160.6 626.0 L 160.3 626.0 L 160.3 625.2 L 159.5 625.2 L 159.5 624.9 " fill="#0000FF"/>
<path class="atom-6" d="M 171.0 629.3 L 172.4 631.6 Q 172.6 631.8, 172.8 632.2 Q 173.0 632.6, 173.1 632.6 L 173.1 629.3 L 173.6 629.3 L 173.6 633.6 L 173.0 633.6 L 171.5 631.1 Q 171.3 630.8, 171.1 630.5 Q 171.0 630.1, 170.9 630.0 L 170.9 633.6 L 170.3 633.6 L 170.3 629.3 L 171.0 629.3 " fill="#0000FF"/>
<path class="atom-6" d="M 170.3 634.0 L 170.9 634.0 L 170.9 635.9 L 173.1 635.9 L 173.1 634.0 L 173.7 634.0 L 173.7 638.4 L 173.1 638.4 L 173.1 636.4 L 170.9 636.4 L 170.9 638.4 L 170.3 638.4 L 170.3 634.0 " fill="#0000FF"/>
<path class="atom-7" d="M 182.0 621.6 Q 182.0 620.5, 182.5 619.9 Q 183.0 619.4, 184.0 619.4 Q 184.9 619.4, 185.4 620.0 L 185.0 620.3 Q 184.6 619.9, 184.0 619.9 Q 183.4 619.9, 183.0 620.3 Q 182.7 620.8, 182.7 621.6 Q 182.7 622.5, 183.0 622.9 Q 183.4 623.3, 184.1 623.3 Q 184.6 623.3, 185.1 623.1 L 185.3 623.5 Q 185.1 623.7, 184.7 623.8 Q 184.4 623.8, 184.0 623.8 Q 183.0 623.8, 182.5 623.3 Q 182.0 622.7, 182.0 621.6 " fill="#00CC00"/>
<path class="atom-7" d="M 185.9 619.1 L 186.5 619.1 L 186.5 623.8 L 185.9 623.8 L 185.9 619.1 " fill="#00CC00"/>
<path d="M 88.5,630.7 L 88.5,630.7 L 88.5,630.7 L 88.5,630.7 L 88.5,630.6 L 88.4,630.6 L 88.4,630.6 L 88.4,630.6 L 88.4,630.5 L 88.4,630.5 L 88.4,630.5 L 88.3,630.5 L 88.3,630.5 L 88.3,630.5 L 88.3,630.4 L 88.2,630.4 L 88.2,630.4 L 88.2,630.4 L 88.2,630.4 L 88.1,630.4 L 88.1,630.4 L 88.1,630.4 L 88.1,630.4 L 88.0,630.5 L 88.0,630.5 L 88.0,630.5 L 88.0,630.5 L 88.0,630.5 L 87.9,630.5 L 87.9,630.6 L 87.9,630.6 L 87.9,630.6 L 87.9,630.6 L 87.9,630.6 L 87.9,630.7 L 87.9,630.7 L 87.9,630.7 L 87.9,630.7 L 87.9,630.8 L 87.9,630.8 L 87.9,630.8 L 87.9,630.9 L 87.9,630.9 L 87.9,630.9 L 87.9,630.9 L 87.9,630.9 L 88.0,631.0 L 88.0,631.0 L 88.0,631.0 L 88.0,631.0 L 88.0,631.0 L 88.1,631.0 L 88.1,631.0 L 88.1,631.0 L 88.1,631.0 L 88.2,631.0 L 88.2,631.0 L 88.2,631.0 L 88.2,631.0 L 88.3,631.0 L 88.3,631.0 L 88.3,631.0 L 88.3,631.0 L 88.4,631.0 L 88.4,631.0 L 88.4,630.9 L 88.4,630.9 L 88.4,630.9 L 88.4,630.9 L 88.5,630.8 L 88.5,630.8 L 88.5,630.8 L 88.5,630.8 L 88.5,630.7 L 88.2,630.7 Z" style="fill:#000000;fill-rule:evenodd;fill-opacity:1;stroke:#000000;stroke-width:0.0px;stroke-linecap:butt;stroke-linejoin:miter;stroke-opacity:1;"/>
<path d="M 102.5,618.1 L 102.5,618.1 L 102.5,618.1 L 102.5,618.0 L 102.5,618.0 L 102.5,618.0 L 102.5,618.0 L 102.5,617.9 L 102.5,617.9 L 102.4,617.9 L 102.4,617.9 L 102.4,617.9 L 102.4,617.9 L 102.3,617.8 L 102.3,617.8 L 102.3,617.8 L 102.3,617.8 L 102.2,617.8 L 102.2,617.8 L 102.2,617.8 L 102.2,617.8 L 102.1,617.8 L 102.1,617.8 L 102.1,617.8 L 102.1,617.8 L 102.0,617.9 L 102.0,617.9 L 102.0,617.9 L 102.0,617.9 L 102.0,617.9 L 102.0,618.0 L 101.9,618.0 L 101.9,618.0 L 101.9,618.0 L 101.9,618.1 L 101.9,618.1 L 101.9,618.1 L 101.9,618.1 L 101.9,618.2 L 101.9,618.2 L 101.9,618.2 L 101.9,618.2 L 101.9,618.3 L 102.0,618.3 L 102.0,618.3 L 102.0,618.3 L 102.0,618.3 L 102.0,618.4 L 102.0,618.4 L 102.1,618.4 L 102.1,618.4 L 102.1,618.4 L 102.1,618.4 L 102.2,618.4 L 102.2,618.4 L 102.2,618.4 L 102.2,618.4 L 102.3,618.4 L 102.3,618.4 L 102.3,618.4 L 102.3,618.4 L 102.4,618.4 L 102.4,618.4 L 102.4,618.3 L 102.4,618.3 L 102.5,618.3 L 102.5,618.3 L 102.5,618.3 L 102.5,618.2 L 102.5,618.2 L 102.5,618.2 L 102.5,618.2 L 102.5,618.1 L 102.5,618.1 L 102.2,618.1 Z" style="fill:#000000;fill-rule:evenodd;fill-opacity:1;stroke:#000000;stroke-width:0.0px;stroke-linecap:butt;stroke-linejoin:miter;stroke-opacity:1;"/>
<path d="M 143.3,623.9 L 143.3,623.8 L 143.3,623.8 L 143.3,623.8 L 143.3,623.8 L 143.2,623.7 L 143.2,623.7 L 143.2,623.7 L 143.2,623.7 L 143.2,623.6 L 143.2,623.6 L 143.1,623.6 L 143.1,623.6 L 143.1,623.6 L 143.1,623.6 L 143.0,623.6 L 143.0,623.6 L 143.0,623.5 L 143.0,623.5 L 142.9,623.5 L 142.9,623.6 L 142.9,623.6 L 142.9,623.6 L 142.8,623.6 L 142.8,623.6 L 142.8,623.6 L 142.8,623.6 L 142.8,623.6 L 142.7,623.6 L 142.7,623.7 L 142.7,623.7 L 142.7,623.7 L 142.7,623.7 L 142.7,623.8 L 142.7,623.8 L 142.7,623.8 L 142.7,623.8 L 142.7,623.9 L 142.7,623.9 L 142.7,623.9 L 142.7,623.9 L 142.7,624.0 L 142.7,624.0 L 142.7,624.0 L 142.7,624.0 L 142.7,624.1 L 142.8,624.1 L 142.8,624.1 L 142.8,624.1 L 142.8,624.1 L 142.8,624.1 L 142.9,624.1 L 142.9,624.2 L 142.9,624.2 L 142.9,624.2 L 143.0,624.2 L 143.0,624.2 L 143.0,624.2 L 143.0,624.2 L 143.1,624.1 L 143.1,624.1 L 143.1,624.1 L 143.1,624.1 L 143.2,624.1 L 143.2,624.1 L 143.2,624.1 L 143.2,624.0 L 143.2,624.0 L 143.2,624.0 L 143.3,624.0 L 143.3,623.9 L 143.3,623.9 L 143.3,623.9 L 143.3,623.9 L 143.0,623.9 Z" style="fill:#000000;fill-rule:evenodd;fill-opacity:1;stroke:#000000;stroke-width:0.0px;stroke-linecap:butt;stroke-linejoin:miter;stroke-opacity:1;"/>
<path class="bond-0 atom-1 atom-0" d="M 371.3,619.9 L 370.7,620.7" style="fill:none;fill-rule:evenodd;stroke:#CCCC00;stroke-width:1.0px;stroke-linecap:butt;stroke-linejoin:miter;stroke-opacity:1"/>
<path class="bond-0 atom-1 atom-0" d="M 368.9,617.3 L 367.6,618.9" style="fill:none;fill-rule:evenodd;stroke:#0000FF;stroke-width:1.0px;stroke-linecap:butt;stroke-linejoin:miter;stroke-opacity:1"/>
<path class="bond-0 atom-1 atom-0" d="M 366.4,614.7 L 364.5,617.1" style="fill:none;fill-rule:evenodd;stroke:#0000FF;stroke-width:1.0px;stroke-linecap:butt;stroke-linejoin:miter;stroke-opacity:1"/>
<path class="bond-1 atom-1 atom-2" d="M 375.2,626.6 L 374.5,631.6" style="fill:none;fill-rule:evenodd;stroke:#CCCC00;stroke-width:2.0px;stroke-linecap:butt;stroke-linejoin:miter;stroke-opacity:1"/>
<path class="bond-1 atom-1 atom-2" d="M 374.5,631.6 L 373.7,636.6" style="fill:none;fill-rule:evenodd;stroke:#0000FF;stroke-width:2.0px;stroke-linecap:butt;stroke-linejoin:miter;stroke-opacity:1"/>
<path class="bond-2 atom-1 atom-3" d="M 377.4,623.2 L 382.7,621.0" style="fill:none;fill-rule:evenodd;stroke:#CCCC00;stroke-width:2.0px;stroke-linecap:butt;stroke-linejoin:miter;stroke-opacity:1"/>
<path class="bond-2 atom-1 atom-3" d="M 382.7,621.0 L 388.1,618.9" style="fill:none;fill-rule:evenodd;stroke:#FF7F00;stroke-width:2.0px;stroke-linecap:butt;stroke-linejoin:miter;stroke-opacity:1"/>
<path class="bond-2 atom-1 atom-3" d="M 377.8,619.7 L 381.6,618.2" style="fill:none;fill-rule:evenodd;stroke:#CCCC00;stroke-width:2.0px;stroke-linecap:butt;stroke-linejoin:miter;stroke-opacity:1"/>
<path class="bond-2 atom-1 atom-3" d="M 381.6,618.2 L 385.4,616.6" style="fill:none;fill-rule:evenodd;stroke:#FF7F00;stroke-width:2.0px;stroke-linecap:butt;stroke-linejoin:miter;stroke-opacity:1"/>
<path class="bond-3 atom-3 atom-4" d="M 391.6,619.6 L 395.8,622.8" style="fill:none;fill-rule:evenodd;stroke:#FF7F00;stroke-width:2.0px;stroke-linecap:butt;stroke-linejoin:miter;stroke-opacity:1"/>
<path class="bond-3 atom-3 atom-4" d="M 395.8,622.8 L 400.0,626.1" style="fill:none;fill-rule:evenodd;stroke:#0000FF;stroke-width:2.0px;stroke-linecap:butt;stroke-linejoin:miter;stroke-opacity:1"/>
<path class="bond-4 atom-4 atom-5" d="M 406.3,625.9 L 414.3,622.7" style="fill:none;fill-rule:evenodd;stroke:#0000FF;stroke-width:2.0px;stroke-linecap:butt;stroke-linejoin:miter;stroke-opacity:1"/>
<path class="atom-0" d="M 357.9 612.2 L 358.5 612.2 L 358.5 614.1 L 360.7 614.1 L 360.7 612.2 L 361.3 612.2 L 361.3 616.6 L 360.7 616.6 L 360.7 614.5 L 358.5 614.5 L 358.5 616.6 L 357.9 616.6 L 357.9 612.2 " fill="#0000FF"/>
<path class="atom-0" d="M 362.5 612.2 L 363.9 614.5 Q 364.1 614.7, 364.3 615.1 Q 364.5 615.6, 364.5 615.6 L 364.5 612.2 L 365.1 612.2 L 365.1 616.6 L 364.5 616.6 L 363.0 614.0 Q 362.8 613.7, 362.6 613.4 Q 362.4 613.1, 362.4 613.0 L 362.4 616.6 L 361.8 616.6 L 361.8 612.2 L 362.5 612.2 " fill="#0000FF"/>
<path class="atom-0" d="M 365.5 613.0 L 366.2 613.0 L 366.2 612.2 L 366.6 612.2 L 366.6 613.0 L 367.4 613.0 L 367.4 613.3 L 366.6 613.3 L 366.6 614.1 L 366.2 614.1 L 366.2 613.3 L 365.5 613.3 L 365.5 613.0 " fill="#0000FF"/>
<path class="atom-1" d="M 374.3 625.4 Q 374.4 625.4, 374.6 625.5 Q 374.8 625.6, 375.0 625.6 Q 375.2 625.7, 375.5 625.7 Q 375.9 625.7, 376.1 625.5 Q 376.4 625.3, 376.4 624.9 Q 376.4 624.7, 376.2 624.5 Q 376.1 624.4, 375.9 624.3 Q 375.7 624.2, 375.4 624.1 Q 375.0 624.0, 374.8 623.9 Q 374.6 623.8, 374.4 623.6 Q 374.3 623.3, 374.3 622.9 Q 374.3 622.4, 374.6 622.1 Q 375.0 621.7, 375.7 621.7 Q 376.3 621.7, 376.8 622.0 L 376.7 622.4 Q 376.2 622.2, 375.8 622.2 Q 375.3 622.2, 375.1 622.4 Q 374.9 622.6, 374.9 622.9 Q 374.9 623.1, 375.0 623.2 Q 375.1 623.4, 375.3 623.5 Q 375.5 623.5, 375.8 623.6 Q 376.2 623.8, 376.4 623.9 Q 376.6 624.0, 376.8 624.3 Q 377.0 624.5, 377.0 624.9 Q 377.0 625.5, 376.6 625.9 Q 376.2 626.2, 375.5 626.2 Q 375.1 626.2, 374.8 626.1 Q 374.5 626.0, 374.2 625.9 L 374.3 625.4 " fill="#CCCC00"/>
<path class="atom-2" d="M 372.4 637.0 L 373.8 639.3 Q 374.0 639.5, 374.2 639.9 Q 374.4 640.3, 374.5 640.3 L 374.5 637.0 L 375.0 637.0 L 375.0 641.3 L 374.4 641.3 L 372.9 638.8 Q 372.7 638.5, 372.5 638.2 Q 372.4 637.8, 372.3 637.7 L 372.3 641.3 L 371.7 641.3 L 371.7 637.0 L 372.4 637.0 " fill="#0000FF"/>
<path class="atom-2" d="M 375.6 637.0 L 376.2 637.0 L 376.2 638.8 L 378.4 638.8 L 378.4 637.0 L 379.0 637.0 L 379.0 641.3 L 378.4 641.3 L 378.4 639.3 L 376.2 639.3 L 376.2 641.3 L 375.6 641.3 L 375.6 637.0 " fill="#0000FF"/>
<path class="atom-2" d="M 379.2 641.2 Q 379.3 640.9, 379.5 640.7 Q 379.8 640.6, 380.1 640.6 Q 380.6 640.6, 380.8 640.8 Q 381.1 641.1, 381.1 641.5 Q 381.1 641.9, 380.8 642.3 Q 380.4 642.7, 379.8 643.2 L 381.1 643.2 L 381.1 643.5 L 379.2 643.5 L 379.2 643.2 Q 379.7 642.8, 380.0 642.6 Q 380.4 642.3, 380.5 642.0 Q 380.7 641.8, 380.7 641.5 Q 380.7 641.2, 380.5 641.1 Q 380.4 640.9, 380.1 640.9 Q 379.9 640.9, 379.8 641.0 Q 379.6 641.1, 379.5 641.3 L 379.2 641.2 " fill="#0000FF"/>
<path class="atom-3" d="M 389.8 616.0 Q 390.5 616.0, 390.9 616.3 Q 391.3 616.7, 391.3 617.3 Q 391.3 617.9, 390.9 618.2 Q 390.5 618.5, 389.8 618.5 L 389.1 618.5 L 389.1 620.3 L 388.5 620.3 L 388.5 616.0 L 389.8 616.0 M 389.8 618.1 Q 390.2 618.1, 390.4 617.9 Q 390.6 617.7, 390.6 617.3 Q 390.6 616.9, 390.4 616.7 Q 390.2 616.5, 389.8 616.5 L 389.1 616.5 L 389.1 618.1 L 389.8 618.1 " fill="#FF7F00"/>
<path class="atom-4" d="M 401.0 625.5 L 402.4 627.8 Q 402.6 628.0, 402.8 628.4 Q 403.0 628.9, 403.0 628.9 L 403.0 625.5 L 403.6 625.5 L 403.6 629.9 L 403.0 629.9 L 401.5 627.3 Q 401.3 627.0, 401.1 626.7 Q 400.9 626.4, 400.9 626.3 L 400.9 629.9 L 400.3 629.9 L 400.3 625.5 L 401.0 625.5 " fill="#0000FF"/>
<path class="atom-4" d="M 404.0 626.3 L 404.8 626.3 L 404.8 625.5 L 405.1 625.5 L 405.1 626.3 L 405.9 626.3 L 405.9 626.6 L 405.1 626.6 L 405.1 627.4 L 404.8 627.4 L 404.8 626.6 L 404.0 626.6 L 404.0 626.3 " fill="#0000FF"/>
<path class="atom-5" d="M 415.3 619.8 L 416.7 622.1 Q 416.9 622.3, 417.1 622.7 Q 417.3 623.1, 417.3 623.2 L 417.3 619.8 L 417.9 619.8 L 417.9 624.1 L 417.3 624.1 L 415.8 621.6 Q 415.6 621.3, 415.4 621.0 Q 415.2 620.6, 415.2 620.5 L 415.2 624.1 L 414.6 624.1 L 414.6 619.8 L 415.3 619.8 " fill="#0000FF"/>
<path class="atom-5" d="M 418.4 619.8 L 419.0 619.8 L 419.0 621.6 L 421.3 621.6 L 421.3 619.8 L 421.9 619.8 L 421.9 624.1 L 421.3 624.1 L 421.3 622.1 L 419.0 622.1 L 419.0 624.1 L 418.4 624.1 L 418.4 619.8 " fill="#0000FF"/>
<path class="atom-5" d="M 422.1 620.5 L 423.6 620.5 L 423.6 620.8 L 422.1 620.8 L 422.1 620.5 " fill="#0000FF"/>
<path d="M 357.3,613.8 L 357.3,613.7 L 357.3,613.7 L 357.2,613.7 L 357.2,613.7 L 357.2,613.6 L 357.2,613.6 L 357.2,613.6 L 357.2,613.6 L 357.2,613.5 L 357.2,613.5 L 357.1,613.5 L 357.1,613.5 L 357.1,613.5 L 357.1,613.5 L 357.0,613.5 L 357.0,613.5 L 357.0,613.5 L 357.0,613.5 L 356.9,613.5 L 356.9,613.5 L 356.9,613.5 L 356.9,613.5 L 356.8,613.5 L 356.8,613.5 L 356.8,613.5 L 356.8,613.5 L 356.7,613.5 L 356.7,613.6 L 356.7,613.6 L 356.7,613.6 L 356.7,613.6 L 356.7,613.6 L 356.7,613.7 L 356.7,613.7 L 356.6,613.7 L 356.6,613.8 L 356.6,613.8 L 356.6,613.8 L 356.7,613.8 L 356.7,613.9 L 356.7,613.9 L 356.7,613.9 L 356.7,613.9 L 356.7,613.9 L 356.7,614.0 L 356.7,614.0 L 356.8,614.0 L 356.8,614.0 L 356.8,614.0 L 356.8,614.0 L 356.9,614.1 L 356.9,614.1 L 356.9,614.1 L 356.9,614.1 L 357.0,614.1 L 357.0,614.1 L 357.0,614.1 L 357.0,614.1 L 357.1,614.1 L 357.1,614.0 L 357.1,614.0 L 357.1,614.0 L 357.2,614.0 L 357.2,614.0 L 357.2,614.0 L 357.2,613.9 L 357.2,613.9 L 357.2,613.9 L 357.2,613.9 L 357.2,613.8 L 357.3,613.8 L 357.3,613.8 L 357.3,613.8 L 357.0,613.8 Z" style="fill:#000000;fill-rule:evenodd;fill-opacity:1;stroke:#000000;stroke-width:0.0px;stroke-linecap:butt;stroke-linejoin:miter;stroke-opacity:1;"/>
<path d="M 357.3,615.0 L 357.3,615.0 L 357.3,614.9 L 357.2,614.9 L 357.2,614.9 L 357.2,614.9 L 357.2,614.8 L 357.2,614.8 L 357.2,614.8 L 357.2,614.8 L 357.2,614.8 L 357.1,614.7 L 357.1,614.7 L 357.1,614.7 L 357.1,614.7 L 357.0,614.7 L 357.0,614.7 L 357.0,614.7 L 357.0,614.7 L 356.9,614.7 L 356.9,614.7 L 356.9,614.7 L 356.9,614.7 L 356.8,614.7 L 356.8,614.7 L 356.8,614.7 L 356.8,614.8 L 356.7,614.8 L 356.7,614.8 L 356.7,614.8 L 356.7,614.8 L 356.7,614.9 L 356.7,614.9 L 356.7,614.9 L 356.7,614.9 L 356.6,615.0 L 356.6,615.0 L 356.6,615.0 L 356.6,615.0 L 356.7,615.1 L 356.7,615.1 L 356.7,615.1 L 356.7,615.1 L 356.7,615.2 L 356.7,615.2 L 356.7,615.2 L 356.7,615.2 L 356.8,615.2 L 356.8,615.3 L 356.8,615.3 L 356.8,615.3 L 356.9,615.3 L 356.9,615.3 L 356.9,615.3 L 356.9,615.3 L 357.0,615.3 L 357.0,615.3 L 357.0,615.3 L 357.0,615.3 L 357.1,615.3 L 357.1,615.3 L 357.1,615.3 L 357.1,615.2 L 357.2,615.2 L 357.2,615.2 L 357.2,615.2 L 357.2,615.2 L 357.2,615.1 L 357.2,615.1 L 357.2,615.1 L 357.2,615.1 L 357.3,615.0 L 357.3,615.0 L 357.3,615.0 L 357.0,615.0 Z" style="fill:#000000;fill-rule:evenodd;fill-opacity:1;stroke:#000000;stroke-width:0.0px;stroke-linecap:butt;stroke-linejoin:miter;stroke-opacity:1;"/>
<path d="M 402.9,630.3 L 402.9,630.3 L 402.9,630.3 L 402.9,630.2 L 402.9,630.2 L 402.9,630.2 L 402.9,630.2 L 402.8,630.1 L 402.8,630.1 L 402.8,630.1 L 402.8,630.1 L 402.8,630.1 L 402.7,630.1 L 402.7,630.0 L 402.7,630.0 L 402.7,630.0 L 402.6,630.0 L 402.6,630.0 L 402.6,630.0 L 402.6,630.0 L 402.5,630.0 L 402.5,630.0 L 402.5,630.0 L 402.5,630.0 L 402.4,630.0 L 402.4,630.1 L 402.4,630.1 L 402.4,630.1 L 402.4,630.1 L 402.3,630.1 L 402.3,630.2 L 402.3,630.2 L 402.3,630.2 L 402.3,630.2 L 402.3,630.3 L 402.3,630.3 L 402.3,630.3 L 402.3,630.3 L 402.3,630.4 L 402.3,630.4 L 402.3,630.4 L 402.3,630.4 L 402.3,630.5 L 402.3,630.5 L 402.3,630.5 L 402.4,630.5 L 402.4,630.5 L 402.4,630.6 L 402.4,630.6 L 402.4,630.6 L 402.5,630.6 L 402.5,630.6 L 402.5,630.6 L 402.5,630.6 L 402.6,630.6 L 402.6,630.6 L 402.6,630.6 L 402.6,630.6 L 402.7,630.6 L 402.7,630.6 L 402.7,630.6 L 402.7,630.6 L 402.8,630.6 L 402.8,630.6 L 402.8,630.5 L 402.8,630.5 L 402.8,630.5 L 402.9,630.5 L 402.9,630.4 L 402.9,630.4 L 402.9,630.4 L 402.9,630.4 L 402.9,630.3 L 402.9,630.3 L 402.6,630.3 Z" style="fill:#000000;fill-rule:evenodd;fill-opacity:1;stroke:#000000;stroke-width:0.0px;stroke-linecap:butt;stroke-linejoin:miter;stroke-opacity:1;"/>
<path d="M 401.7,630.3 L 401.7,630.3 L 401.7,630.3 L 401.7,630.2 L 401.6,630.2 L 401.6,630.2 L 401.6,630.2 L 401.6,630.1 L 401.6,630.1 L 401.6,630.1 L 401.6,630.1 L 401.5,630.1 L 401.5,630.1 L 401.5,630.0 L 401.5,630.0 L 401.4,630.0 L 401.4,630.0 L 401.4,630.0 L 401.4,630.0 L 401.3,630.0 L 401.3,630.0 L 401.3,630.0 L 401.3,630.0 L 401.2,630.0 L 401.2,630.0 L 401.2,630.1 L 401.2,630.1 L 401.1,630.1 L 401.1,630.1 L 401.1,630.1 L 401.1,630.2 L 401.1,630.2 L 401.1,630.2 L 401.1,630.2 L 401.1,630.3 L 401.1,630.3 L 401.1,630.3 L 401.1,630.3 L 401.1,630.4 L 401.1,630.4 L 401.1,630.4 L 401.1,630.4 L 401.1,630.5 L 401.1,630.5 L 401.1,630.5 L 401.1,630.5 L 401.1,630.5 L 401.2,630.6 L 401.2,630.6 L 401.2,630.6 L 401.2,630.6 L 401.3,630.6 L 401.3,630.6 L 401.3,630.6 L 401.3,630.6 L 401.4,630.6 L 401.4,630.6 L 401.4,630.6 L 401.4,630.6 L 401.5,630.6 L 401.5,630.6 L 401.5,630.6 L 401.5,630.6 L 401.6,630.6 L 401.6,630.5 L 401.6,630.5 L 401.6,630.5 L 401.6,630.5 L 401.6,630.4 L 401.6,630.4 L 401.7,630.4 L 401.7,630.4 L 401.7,630.3 L 401.7,630.3 L 401.4,630.3 Z" style="fill:#000000;fill-rule:evenodd;fill-opacity:1;stroke:#000000;stroke-width:0.0px;stroke-linecap:butt;stroke-linejoin:miter;stroke-opacity:1;"/>
<path class="bond-0 atom-0 atom-1" d="M 642.7,624.2 L 637.0,624.2" style="fill:none;fill-rule:evenodd;stroke:#FF7F00;stroke-width:2.0px;stroke-linecap:butt;stroke-linejoin:miter;stroke-opacity:1"/>
<path class="bond-0 atom-0 atom-1" d="M 637.0,624.2 L 631.4,624.2" style="fill:none;fill-rule:evenodd;stroke:#FF0000;stroke-width:2.0px;stroke-linecap:butt;stroke-linejoin:miter;stroke-opacity:1"/>
<path class="atom-0" d="M 644.3 622.0 Q 645.1 622.0, 645.5 622.4 Q 645.8 622.7, 645.8 623.3 Q 645.8 623.9, 645.5 624.2 Q 645.1 624.6, 644.3 624.6 L 643.7 624.6 L 643.7 626.4 L 643.1 626.4 L 643.1 622.0 L 644.3 622.0 M 644.3 624.1 Q 644.8 624.1, 645.0 623.9 Q 645.2 623.7, 645.2 623.3 Q 645.2 622.9, 645.0 622.7 Q 644.8 622.5, 644.3 622.5 L 643.7 622.5 L 643.7 624.1 L 644.3 624.1 " fill="#FF7F00"/>
<path class="atom-1" d="M 627.0 624.2 Q 627.0 623.2, 627.6 622.6 Q 628.1 622.0, 629.1 622.0 Q 630.0 622.0, 630.5 622.6 Q 631.1 623.2, 631.1 624.2 Q 631.1 625.3, 630.5 625.9 Q 630.0 626.5, 629.1 626.5 Q 628.1 626.5, 627.6 625.9 Q 627.0 625.3, 627.0 624.2 M 629.1 626.0 Q 629.7 626.0, 630.1 625.5 Q 630.4 625.1, 630.4 624.2 Q 630.4 623.4, 630.1 622.9 Q 629.7 622.5, 629.1 622.5 Q 628.4 622.5, 628.0 622.9 Q 627.7 623.3, 627.7 624.2 Q 627.7 625.1, 628.0 625.5 Q 628.4 626.0, 629.1 626.0 " fill="#FF0000"/>
<path class="atom-1" d="M 631.3 622.7 L 632.7 622.7 L 632.7 623.0 L 631.3 623.0 L 631.3 622.7 " fill="#FF0000"/>
<path d="M 647.1,623.6 L 647.1,623.6 L 647.1,623.5 L 647.1,623.5 L 647.1,623.5 L 647.0,623.5 L 647.0,623.4 L 647.0,623.4 L 647.0,623.4 L 647.0,623.4 L 647.0,623.3 L 646.9,623.3 L 646.9,623.3 L 646.9,623.3 L 646.9,623.3 L 646.9,623.3 L 646.8,623.3 L 646.8,623.3 L 646.8,623.3 L 646.7,623.3 L 646.7,623.3 L 646.7,623.3 L 646.7,623.3 L 646.6,623.3 L 646.6,623.3 L 646.6,623.3 L 646.6,623.3 L 646.6,623.4 L 646.5,623.4 L 646.5,623.4 L 646.5,623.4 L 646.5,623.4 L 646.5,623.5 L 646.5,623.5 L 646.5,623.5 L 646.5,623.5 L 646.5,623.6 L 646.5,623.6 L 646.5,623.6 L 646.5,623.6 L 646.5,623.7 L 646.5,623.7 L 646.5,623.7 L 646.5,623.7 L 646.5,623.8 L 646.5,623.8 L 646.6,623.8 L 646.6,623.8 L 646.6,623.8 L 646.6,623.9 L 646.6,623.9 L 646.7,623.9 L 646.7,623.9 L 646.7,623.9 L 646.7,623.9 L 646.8,623.9 L 646.8,623.9 L 646.8,623.9 L 646.9,623.9 L 646.9,623.9 L 646.9,623.9 L 646.9,623.8 L 646.9,623.8 L 647.0,623.8 L 647.0,623.8 L 647.0,623.8 L 647.0,623.8 L 647.0,623.7 L 647.0,623.7 L 647.1,623.7 L 647.1,623.7 L 647.1,623.6 L 647.1,623.6 L 647.1,623.6 L 646.8,623.6 Z" style="fill:#000000;fill-rule:evenodd;fill-opacity:1;stroke:#000000;stroke-width:0.0px;stroke-linecap:butt;stroke-linejoin:miter;stroke-opacity:1;"/>
<path d="M 647.1,624.8 L 647.1,624.8 L 647.1,624.8 L 647.1,624.7 L 647.1,624.7 L 647.0,624.7 L 647.0,624.7 L 647.0,624.6 L 647.0,624.6 L 647.0,624.6 L 647.0,624.6 L 646.9,624.6 L 646.9,624.6 L 646.9,624.5 L 646.9,624.5 L 646.9,624.5 L 646.8,624.5 L 646.8,624.5 L 646.8,624.5 L 646.7,624.5 L 646.7,624.5 L 646.7,624.5 L 646.7,624.5 L 646.6,624.5 L 646.6,624.5 L 646.6,624.6 L 646.6,624.6 L 646.6,624.6 L 646.5,624.6 L 646.5,624.6 L 646.5,624.7 L 646.5,624.7 L 646.5,624.7 L 646.5,624.7 L 646.5,624.7 L 646.5,624.8 L 646.5,624.8 L 646.5,624.8 L 646.5,624.9 L 646.5,624.9 L 646.5,624.9 L 646.5,624.9 L 646.5,625.0 L 646.5,625.0 L 646.5,625.0 L 646.5,625.0 L 646.6,625.0 L 646.6,625.1 L 646.6,625.1 L 646.6,625.1 L 646.6,625.1 L 646.7,625.1 L 646.7,625.1 L 646.7,625.1 L 646.7,625.1 L 646.8,625.1 L 646.8,625.1 L 646.8,625.1 L 646.9,625.1 L 646.9,625.1 L 646.9,625.1 L 646.9,625.1 L 646.9,625.1 L 647.0,625.0 L 647.0,625.0 L 647.0,625.0 L 647.0,625.0 L 647.0,625.0 L 647.0,624.9 L 647.1,624.9 L 647.1,624.9 L 647.1,624.9 L 647.1,624.8 L 647.1,624.8 L 646.8,624.8 Z" style="fill:#000000;fill-rule:evenodd;fill-opacity:1;stroke:#000000;stroke-width:0.0px;stroke-linecap:butt;stroke-linejoin:miter;stroke-opacity:1;"/>
</svg>